<svg width="998" height="875" viewBox="0 0 998 875" fill="none" xmlns="http://www.w3.org/2000/svg">
<path fill-rule="evenodd" clip-rule="evenodd" d="M482.097 107.088C567.899 92.8759 639.291 -30.8737 715.565 7.26509C794.601 46.7851 708.196 177.718 758.564 245.328C802.821 304.734 922.576 284.769 966.643 344.29C1008.8 401.229 1002.8 480.859 981.594 546.575C960.635 611.517 915.518 675.682 849.365 707.681C783.563 739.511 703.055 717.521 628.362 717.44C578.842 717.386 527.075 688.62 482.097 707.281C391.782 744.754 349.754 891.793 252.431 873.419C168.93 857.654 239.68 716.004 191.716 652.459C148.994 595.86 21.7805 608.687 2.61916 542.46C-16.263 477.198 71.8755 425.71 109.194 367.24C137.33 323.157 169.142 283.24 196.466 238.745C229.083 185.631 226.628 105.967 286.62 78.3149C346.14 50.8802 416.339 117.98 482.097 107.088Z" fill="#F9813A"/>
</svg>
