<svg width="1032" height="1028" viewBox="0 0 1032 1028" fill="none" xmlns="http://www.w3.org/2000/svg">
<path fill-rule="evenodd" clip-rule="evenodd" d="M715.406 -7.70825C573.369 -7.70823 332.906 -18.2082 326.906 -5.70826C471.406 76.7917 241.856 313.434 189.787 360.935C143.906 402.792 -38.9083 531.491 7.47375 626.314C53.8664 721.159 274.885 704.919 389.438 769.1C519.121 841.758 545.797 996.063 711.154 1020.57C874.997 1044.85 1032.41 1008.2 1032.41 867.792C1032.41 763.267 1032.41 747.533 1032.41 640.292C1032.41 530.145 1032.41 445.824 1032.41 350.292C1032.41 236.613 1032.41 24.2917 1032.41 -7.70823C1032.41 -17.3648 867.406 -7.70826 715.406 -7.70825Z" fill="url(#paint0_linear)"/>
<g filter="url(#filter0_b)">
<path fill-rule="evenodd" clip-rule="evenodd" d="M1003.53 603.264C977.105 682.919 984.028 778.797 917.606 833.43C849.701 889.283 747.611 906.3 656.107 889.025C572.103 873.166 529.81 783.988 453.494 745.812C359.08 698.581 207.341 732.031 161.779 641.739C117.414 553.817 227.666 470.724 272.263 386.653C307.353 320.505 335.647 252.757 394.199 203.597C457.007 150.863 529.722 105.274 615.465 98.4999C705.461 91.3896 794.899 121.058 874.103 165.682C958.08 212.995 1049.56 270.189 1075.43 357.649C1100.82 443.47 1031.06 520.257 1003.53 603.264Z" fill="white" fill-opacity="0.3"/>
</g>
<defs>
<filter id="filter0_b" x="99.0005" y="-22" width="1048.4" height="999.424" filterUnits="userSpaceOnUse" color-interpolation-filters="sRGB">
<feFlood flood-opacity="0" result="BackgroundImageFix"/>
<feGaussianBlur in="BackgroundImage" stdDeviation="5"/>
<feComposite in2="SourceAlpha" operator="in" result="effect1_backgroundBlur"/>
<feBlend mode="normal" in="SourceGraphic" in2="effect1_backgroundBlur" result="shape"/>
</filter>
<linearGradient id="paint0_linear" x1="1032" y1="15.5" x2="7.93898e-06" y2="642" gradientUnits="userSpaceOnUse">
<stop stop-color="#FF7E5F"/>
<stop offset="1" stop-color="#FF9B21"/>
</linearGradient>
</defs>
</svg>
