<svg width="1680" height="1080" viewBox="0 0 1680 1080" fill="none" xmlns="http://www.w3.org/2000/svg">
<path fill-rule="evenodd" clip-rule="evenodd" d="M1290.41 35.6204C1381.76 6.43268 1488.23 -5.46044 1572.71 38.0067C1657.04 81.4007 1685.41 180.657 1730.28 261.952C1773.95 341.082 1830.28 416.958 1831.41 506.795C1832.58 599.673 1806.97 700.726 1736.59 764.734C1668.57 826.591 1558.04 799.7 1471.61 834.002C1383.11 869.133 1318.94 989.554 1226.44 967.224C1132.47 944.537 1140.74 802.846 1071.86 737.492C1003.97 673.077 868.378 680.515 833.973 594.831C800.277 510.915 862.668 417.021 912.358 340.262C955.634 273.41 1033.02 240.973 1095.78 190.396C1161.64 137.324 1209 61.6331 1290.41 35.6204Z" fill="url(#paint0_linear)"/>
<g filter="url(#filter0_b)">
<path fill-rule="evenodd" clip-rule="evenodd" d="M1585.17 559.869C1564.28 626.268 1569.75 706.189 1517.24 751.729C1463.56 798.288 1382.85 812.473 1310.51 798.073C1244.1 784.853 1210.67 710.516 1150.34 678.693C1075.7 639.323 955.743 667.206 919.724 591.941C884.651 518.651 971.811 449.387 1007.07 379.308C1034.81 324.168 1057.18 267.695 1103.46 226.717C1153.12 182.759 1210.6 144.757 1278.38 139.11C1349.53 133.183 1420.24 157.914 1482.85 195.111C1549.24 234.55 1621.56 282.225 1642.01 355.13C1662.08 426.669 1606.93 490.676 1585.17 559.869Z" fill="white" fill-opacity="0.3"/>
</g>
<path fill-rule="evenodd" clip-rule="evenodd" d="M519.69 782.663C567.748 790.556 621.579 771.825 663.247 797.037C705.095 822.357 749.58 869.398 743.182 917.89C735.899 973.078 659.228 990.887 631.313 1039.05C612.809 1070.97 623.557 1111.8 610.732 1146.4C594.587 1189.95 581.987 1238.16 546.424 1268.04C509.394 1299.14 459.153 1316.45 410.839 1314.31C362.714 1312.18 325.554 1273.25 280.48 1256.25C229.902 1237.18 168.311 1243.54 127.909 1207.63C86.9738 1171.24 60.3373 1115.05 60.0023 1060.28C59.6702 1005.98 97.8781 960.02 126.111 913.639C148.94 876.133 186.062 851.014 209.847 814.107C237.275 771.55 227.869 693.005 276.767 679.876C330.246 665.516 370.382 735.732 421.379 757.31C452.942 770.665 485.871 777.108 519.69 782.663Z" fill="url(#paint1_linear)"/>
<defs>
<filter id="filter0_b" x="901.562" y="128.233" width="754.769" height="685.221" filterUnits="userSpaceOnUse" color-interpolation-filters="sRGB">
<feFlood flood-opacity="0" result="BackgroundImageFix"/>
<feGaussianBlur in="BackgroundImage" stdDeviation="5"/>
<feComposite in2="SourceAlpha" operator="in" result="effect1_backgroundBlur"/>
<feBlend mode="normal" in="SourceGraphic" in2="effect1_backgroundBlur" result="shape"/>
</filter>
<linearGradient id="paint0_linear" x1="1283.88" y1="21.9091" x2="1365.96" y2="960.105" gradientUnits="userSpaceOnUse">
<stop stop-color="#FF7E5F"/>
<stop offset="1" stop-color="#FF9B21"/>
</linearGradient>
<linearGradient id="paint1_linear" x1="527.217" y1="728.062" x2="251.559" y2="1273.81" gradientUnits="userSpaceOnUse">
<stop stop-color="#FF9B21"/>
<stop offset="0.536458" stop-color="#FF8E3E"/>
<stop offset="1" stop-color="#FF7E5F"/>
</linearGradient>
</defs>
</svg>
