<svg width="1083" height="1080" viewBox="0 0 1083 1080" fill="none" xmlns="http://www.w3.org/2000/svg">
<path fill-rule="evenodd" clip-rule="evenodd" d="M390.18 408.949C445.044 300.586 463.251 124.578 584.661 111.588C712.35 97.9272 752.129 309.609 872.023 357.397C991.796 405.137 1173.08 270.682 1247.71 375.869C1320.83 478.927 1144.3 598.465 1131.6 723.238C1119.93 838.007 1227.61 954.691 1178.24 1058.58C1127.33 1165.71 1000.73 1218.52 884.322 1243.59C770.48 1268.1 651.191 1245.73 545.595 1194.79C445.294 1146.41 358.311 1068.43 311.826 967.429C268.809 873.964 288.843 769.045 303.046 667.811C316.036 575.226 348.063 492.135 390.18 408.949Z" fill="url(#paint0_linear)"/>
<g filter="url(#filter0_b)">
<path fill-rule="evenodd" clip-rule="evenodd" d="M370.282 777.714C350.327 699.995 403.542 637.588 421.758 565.309C438.089 500.508 434.145 425.82 471.383 376.56C512.577 322.066 570.045 278.385 636.613 281.085C702.813 283.771 766.791 333.87 818.39 390.636C864.294 441.139 871.774 516.115 905.975 577.426C952.138 660.183 1061.05 720.42 1052.94 811.111C1045.05 899.335 934.599 898.593 873.185 944.018C818.951 984.132 782.229 1059.33 714.485 1061.45C645.841 1063.59 582.088 1004.68 521.811 954.997C462.203 905.86 390.627 856.954 370.282 777.714Z" fill="white" fill-opacity="0.3"/>
</g>
<g clip-path="url(#clip0)">
<path opacity="0.1" d="M703.044 828.439C725.687 828.439 744.042 824.322 744.042 819.245C744.042 814.167 725.687 810.05 703.044 810.05C680.402 810.05 662.046 814.167 662.046 819.245C662.046 824.322 680.402 828.439 703.044 828.439Z" fill="#6C63FF"/>
<path opacity="0.1" d="M798.31 854.509C839.159 854.509 872.273 851.794 872.273 848.445C872.273 845.095 839.159 842.38 798.31 842.38C757.462 842.38 724.347 845.095 724.347 848.445C724.347 851.794 757.462 854.509 798.31 854.509Z" fill="#6C63FF"/>
<path opacity="0.1" d="M554.359 849.549C595.208 849.549 628.322 845.432 628.322 840.354C628.322 835.277 595.208 831.16 554.359 831.16C513.51 831.16 480.396 835.277 480.396 840.354C480.396 845.432 513.51 849.549 554.359 849.549Z" fill="#6C63FF"/>
<path opacity="0.1" d="M614.111 802.418C644.847 802.418 669.763 798.302 669.763 793.224C669.763 788.146 644.847 784.029 614.111 784.029C583.375 784.029 558.459 788.146 558.459 793.224C558.459 798.302 583.375 802.418 614.111 802.418Z" fill="#6C63FF"/>
<path d="M655.698 574.491C654.521 566.575 647.322 548.105 647.322 548.105C647.196 547.561 647.055 547.016 646.897 546.472C641.79 528.943 634.722 527.419 634.722 527.419L609.403 521.975C609.615 522.108 609.8 522.28 609.948 522.481C609.814 522.494 609.681 522.514 609.55 522.541C608.391 521.174 607.624 519.519 607.332 517.751C607.283 517.49 607.239 517.207 607.207 516.94C609.025 515.169 610.443 513.031 611.367 510.668C612.29 508.305 612.696 505.772 612.559 503.239C612.422 500.706 611.744 498.231 610.571 495.982C609.397 493.732 607.756 491.759 605.757 490.195C605.49 489.988 605.212 489.787 604.945 489.596C606.138 488.328 606.177 486.564 605.283 484.8C603.288 480.663 598.95 478.045 594.492 476.765C591.086 475.791 587.408 475.475 584.018 476.542C582.094 477.152 580.34 478.175 578.536 479.084C575.173 480.761 571.451 482.089 568.939 484.849C568.35 485.492 567.805 486.314 567.98 487.163C568.11 487.794 568.612 488.284 568.933 488.845C569.658 490.102 569.478 491.686 568.982 493.058C568.487 494.43 567.762 495.704 567.418 497.108C567.075 498.513 567.206 500.168 568.263 501.175C568.77 501.566 569.298 501.929 569.843 502.264C570.422 502.756 570.93 503.326 571.353 503.957C572.356 505.299 573.355 506.648 574.35 508.001C575.756 509.795 577.012 511.702 578.105 513.701C578.852 515.171 579.429 516.738 580.427 518.056C580.719 518.44 581.054 518.791 581.424 519.101L581.13 518.987C581.563 519.427 582.082 519.775 582.655 520.008C583.227 520.241 583.841 520.355 584.46 520.342C584.514 520.342 584.563 520.342 584.612 520.342C584.84 520.337 585.057 520.248 585.222 520.092C585.222 520.277 585.222 520.462 585.222 520.636C585.282 522.579 585.272 524.648 585.135 526.591L584.901 526.472C584.553 526.299 584.164 526.229 583.778 526.269C583.392 526.31 583.025 526.459 582.721 526.7L559.413 545.383C559.413 545.383 554.345 552.307 555.053 564.262L550.966 582.188C550.966 582.188 545.859 597.398 549.789 608.258C553.718 619.118 555.996 625.329 555.996 625.329C555.996 625.329 557.565 637.67 559.925 638.677C562.285 639.684 563.304 640.229 563.304 640.229L563.773 643.179C563.773 643.179 563.931 643.468 564.208 643.952C565.925 646.935 572.285 657.463 575.98 656.337C576.445 659.195 576.646 662.091 576.579 664.987L580.236 689.51C580.236 689.51 582.786 696.179 582.628 699.674C582.47 703.169 585.604 708.15 585.604 708.15C583.7 711.631 583.142 715.689 584.034 719.554C585.528 726.087 587.413 756.179 587.413 756.179L590.138 763.474L590.062 772.026C589.838 773.421 589.256 774.734 588.372 775.837C586.607 777.753 586.738 779.968 582.481 782.587C578.225 785.205 575.528 786.196 575.528 789.664C575.522 790.147 575.479 790.629 575.397 791.106C575.004 793.654 574.241 795.036 582.067 795.777C591.261 796.648 597.392 790.66 597.392 790.66C597.392 790.66 598.743 788.21 605.108 787.219C605.108 787.219 607.288 787.105 607.403 785.183C607.446 784.519 607.435 783.251 607.403 781.852C607.299 779.19 607.043 776.082 606.705 775.929C606.28 775.739 605.539 773.06 605.283 772.091H607.054C607.054 772.091 608.689 759.75 607.054 751.759C605.419 743.768 606.896 738.101 606.896 738.101L606.58 716.996C606.58 716.996 604.4 714.666 606.111 710.55C607.822 706.435 606.111 686.108 606.111 686.108C606.111 686.108 606.743 678.814 608.547 677.104C610.351 675.395 608.634 666.418 608.547 665.95L611.762 676.723C611.762 676.723 613.174 698.139 616.166 702.015L617.027 711.715C617.027 711.715 623.152 720.643 621.975 725.45C620.798 730.256 623.234 747.644 623.234 747.644V765.417C623.234 765.417 620.482 772.554 624.324 775.118L625.959 775.053C625.414 775.559 624.994 776.321 624.357 776.98C623.621 777.736 623.201 780.616 622.967 783.093C622.771 785.189 622.705 786.991 622.705 786.991C622.705 786.991 624.34 789.604 627.419 789.783C630.498 789.963 640.646 797.671 640.646 797.671C640.646 797.671 650.668 797.671 653.262 797.127L653.414 797.089C654.247 796.827 654.947 796.256 655.371 795.494C655.89 794.609 656.058 793.562 655.84 792.56C655.518 791.03 654.303 789.353 651.611 787.927C644.913 784.399 643.916 781.095 643.916 781.095L639.518 774.503H640.144C640.144 774.503 639.758 767.519 644.542 759.68L644.232 725.15C644.232 725.15 646.194 713.278 642.82 706.832C642.82 706.832 642.542 700.006 644.798 697.91C647.055 695.814 641.796 674.633 641.796 674.633C641.796 674.633 640.706 663.261 639.425 652.885C644.728 657.91 650.226 639.82 651.153 636.603H651.289L651.229 636.369C651.267 636.217 651.289 636.14 651.289 636.14C651.289 636.14 650.112 631.96 650.973 632.809C651.834 633.658 653.959 630.479 653.959 630.479C653.959 630.479 653.643 613.173 657.338 604.453C661.033 595.732 655.698 574.491 655.698 574.491ZM639.894 585.503L639.921 585.454C640.466 596.02 639.817 618.568 639.817 618.568C639.817 618.568 639.087 621.459 638.308 624.861L637.763 603.44L637.218 583.26L639.894 585.503ZM572.258 578.219C572.258 578.219 574.928 611.584 572.258 616.396C571.5 617.768 570.863 620.207 570.334 622.988C569.451 620.675 567.582 615.242 568.252 612.362C569.119 608.639 566.525 598.857 566.525 598.628C566.525 598.399 566.29 593.184 568.16 589.199C570.029 585.215 568.803 583.489 568.803 583.489C568.803 583.489 570.372 576.957 572.258 578.219Z" fill="url(#paint1_linear)"/>
<path d="M578.765 653.364C576.438 663.582 567.184 648.133 565.075 644.426C564.802 643.941 564.65 643.658 564.65 643.658L565.653 638.96L570.955 636.783C571.795 637.221 572.591 637.739 573.331 638.329C576.236 640.61 580.558 645.449 578.765 653.364Z" fill="#FBBEBE"/>
<path d="M650.553 636.647C650.553 636.647 650.553 636.723 650.493 636.875C650.493 636.941 650.45 637.028 650.422 637.12C649.512 640.31 644.117 658.269 638.907 653.283C633.207 647.839 635.975 635.253 635.975 635.253H636.013L648.003 634.028L650.379 636.467L650.553 636.647Z" fill="#FBBEBE"/>
<path d="M643.616 725.025L643.921 759.32C639.218 767.105 639.605 774.018 639.605 774.018L624.106 774.628C620.324 772.086 623.016 765.004 623.016 765.004V747.344C623.016 747.344 620.624 730.093 621.779 725.314C622.934 720.534 616.923 711.704 616.923 711.704L616.073 702.074C613.141 698.226 611.751 676.968 611.751 676.968L608.607 666.233C608.694 666.696 610.329 675.656 608.607 677.306C606.885 678.955 606.215 686.239 606.215 686.239C606.215 686.239 607.909 706.424 606.215 710.501C604.52 714.579 606.672 716.898 606.672 716.898L606.983 737.85C606.983 737.85 605.517 743.474 607.136 751.405C608.754 759.337 607.136 771.59 607.136 771.59H590.509L590.585 763.038L587.893 755.798C587.893 755.798 586.04 725.912 584.574 719.44C583.696 715.604 584.242 711.581 586.111 708.117C586.111 708.117 583.032 703.19 583.184 699.723C583.337 696.255 580.808 689.641 580.808 689.641L577.222 665.302C577.321 660.618 576.722 655.945 575.446 651.437C573.364 644.502 570.279 635.411 570.279 635.411L573.762 635.721L591.331 637.284C591.331 637.284 634.052 634.415 635.964 636.799C636.368 637.579 636.64 638.419 636.771 639.287C638.689 647.893 641.223 674.856 641.223 674.856C641.223 674.856 646.39 695.885 644.172 697.964C641.954 700.044 642.226 706.816 642.226 706.816C645.55 713.212 643.616 725.025 643.616 725.025Z" fill="#444053"/>
<path d="M607.5 784.595C607.381 786.506 605.25 786.621 605.25 786.621C599.004 787.6 597.675 790.028 597.675 790.028C597.675 790.028 591.68 795.978 582.639 795.113C574.955 794.372 575.702 793.006 576.099 790.475C576.177 790.003 576.219 789.526 576.225 789.048C576.225 785.581 578.884 784.595 583.048 781.972C587.211 779.348 587.097 777.176 588.83 775.27C590.563 773.365 590.743 769.669 590.743 769.669C592.705 766.256 597.68 770.213 597.68 770.213C597.914 771.422 605.31 771.253 605.31 771.253C605.31 771.253 606.291 775.183 606.797 775.412C607.13 775.564 607.381 778.645 607.479 781.291C607.533 782.679 607.544 783.937 607.5 784.595Z" fill="#B07473"/>
<path opacity="0.1" d="M607.5 784.595C607.381 786.506 605.25 786.621 605.25 786.621C599.004 787.6 597.675 790.028 597.675 790.028C597.675 790.028 591.68 795.978 582.639 795.113C574.955 794.372 575.702 793.006 576.099 790.475C579.533 791.324 586.094 792.511 589.925 790.431C595.25 787.546 599.07 785.532 599.07 785.532L607.484 781.302C607.533 782.679 607.544 783.937 607.5 784.595Z" fill="black"/>
<path d="M654.57 794.879C654.16 795.635 653.472 796.203 652.651 796.463L652.504 796.501C649.959 797.045 640.123 797.045 640.123 797.045C640.123 797.045 630.177 789.364 627.169 789.19C624.161 789.016 622.542 786.414 622.542 786.414C622.542 786.414 622.602 784.628 622.793 782.549C623.027 780.088 623.436 777.23 624.161 776.479C625.49 775.091 625.795 773.213 628.787 774.399C628.787 774.399 633.06 766.876 638.095 772.69L643.305 780.583C643.305 780.583 644.286 783.85 650.886 787.394C653.523 788.809 654.701 790.475 655.033 791.993C655.243 792.979 655.078 794.008 654.57 794.879Z" fill="#B07473"/>
<path opacity="0.1" d="M654.57 794.879C653.981 795.374 653.333 795.907 652.651 796.463L652.504 796.501C649.959 797.045 640.123 797.045 640.123 797.045C640.123 797.045 630.177 789.364 627.169 789.19C624.161 789.016 622.542 786.414 622.542 786.414C622.542 786.414 622.602 784.628 622.793 782.549C625.855 783.463 630.493 785.08 631.736 786.822C633.643 789.473 639.436 793.175 639.436 793.175C639.436 793.175 650.237 792.135 655.033 791.993C655.243 792.979 655.078 794.008 654.57 794.879Z" fill="black"/>
<path d="M612.536 526.074L598.313 541.093C598.313 541.093 581.075 539.825 584.083 534.741C585.615 532.149 585.855 526.728 585.718 522.013C585.593 517.468 585.124 513.597 585.124 513.597C585.124 513.597 609.299 501.578 607.468 512.786C607.074 514.898 607.051 517.063 607.403 519.183C608.433 524.844 612.536 526.074 612.536 526.074Z" fill="#FBBEBE"/>
<path opacity="0.1" d="M607.446 512.786C607.051 514.898 607.029 517.063 607.381 519.183C605.727 520.856 603.757 522.185 601.584 523.09C599.412 523.996 597.08 524.461 594.726 524.458C591.457 524.458 587.92 521.774 585.277 520.222C585.151 515.671 585.124 513.597 585.124 513.597C585.124 513.597 609.299 501.578 607.446 512.786Z" fill="black"/>
<path d="M612.536 505.737C612.538 509.769 611.168 513.682 608.653 516.835C606.137 519.987 602.624 522.194 598.689 523.092C594.754 523.989 590.63 523.526 586.993 521.777C583.356 520.028 580.422 517.097 578.671 513.464C576.919 509.832 576.455 505.713 577.353 501.782C578.252 497.851 580.46 494.342 583.616 491.828C586.772 489.315 590.689 487.947 594.725 487.948C598.762 487.948 602.678 489.319 605.833 491.833C607.924 493.5 609.612 495.615 610.772 498.022C611.932 500.428 612.535 503.065 612.536 505.737Z" fill="#FBBEBE"/>
<path opacity="0.1" d="M636.771 639.287C632.335 649.831 603.8 650.049 603.8 650.049V638.552L602.072 638.438C602.819 641.731 601.026 649.761 601.026 649.761C578.475 652.94 572.977 640.103 572.977 640.103L573.761 635.71L591.331 637.273C591.331 637.273 634.051 634.404 635.964 636.788C636.369 637.571 636.641 638.415 636.771 639.287Z" fill="black"/>
<path d="M603.8 648.661V637.164L602.072 637.055C602.819 640.321 601.026 648.378 601.026 648.378C584.056 650.768 576.742 644.094 574.165 640.642C573.701 640.048 573.303 639.406 572.977 638.726L579.865 600.021L581.5 543.059L583.969 533.064L584.541 528.268V528.214H584.601L586.356 528.965L596.857 533.5L608.786 524.501L608.961 524.376L609.555 523.924L610.541 524.713L612.994 526.679L620.858 577.408C620.858 577.408 634.482 616.467 637.032 632.232C637.136 632.863 637.218 633.451 637.283 634.001C638.967 648.394 603.8 648.661 603.8 648.661Z" fill="#FF9B21"/>
<path d="M598.133 535.633C598.693 535.633 599.146 535.18 599.146 534.621C599.146 534.062 598.693 533.608 598.133 533.608C597.573 533.608 597.119 534.062 597.119 534.621C597.119 535.18 597.573 535.633 598.133 535.633Z" fill="#67647E"/>
<path d="M598.601 544.877C599.161 544.877 599.615 544.424 599.615 543.864C599.615 543.305 599.161 542.852 598.601 542.852C598.041 542.852 597.587 543.305 597.587 543.864C597.587 544.424 598.041 544.877 598.601 544.877Z" fill="#67647E"/>
<path d="M599.615 559.842C600.175 559.842 600.628 559.388 600.628 558.829C600.628 558.27 600.175 557.817 599.615 557.817C599.055 557.817 598.601 558.27 598.601 558.829C598.601 559.388 599.055 559.842 599.615 559.842Z" fill="#67647E"/>
<path d="M601.288 575.96C601.848 575.96 602.302 575.507 602.302 574.948C602.302 574.389 601.848 573.935 601.288 573.935C600.728 573.935 600.274 574.389 600.274 574.948C600.274 575.507 600.728 575.96 601.288 575.96Z" fill="#67647E"/>
<path d="M602.302 591.094C602.862 591.094 603.315 590.64 603.315 590.081C603.315 589.522 602.862 589.069 602.302 589.069C601.742 589.069 601.288 589.522 601.288 590.081C601.288 590.64 601.742 591.094 602.302 591.094Z" fill="#67647E"/>
<path d="M603.315 607.213C603.875 607.213 604.329 606.759 604.329 606.2C604.329 605.641 603.875 605.188 603.315 605.188C602.756 605.188 602.302 605.641 602.302 606.2C602.302 606.759 602.756 607.213 603.315 607.213Z" fill="#67647E"/>
<path d="M602.912 623.157C603.472 623.157 603.926 622.704 603.926 622.145C603.926 621.585 603.472 621.132 602.912 621.132C602.352 621.132 601.898 621.585 601.898 622.145C601.898 622.704 602.352 623.157 602.912 623.157Z" fill="#67647E"/>
<path opacity="0.1" d="M585.217 605.65C585.217 605.65 584.083 620.473 582.001 624.785C579.92 629.096 578.993 641.192 578.993 641.192L574.159 640.648C573.696 640.053 573.297 639.411 572.971 638.732L579.86 600.027L581.494 543.064L583.969 533.064L584.541 528.268L584.606 528.241C584.876 528.114 585.172 528.05 585.47 528.054C585.769 528.059 586.063 528.132 586.328 528.268L586.557 528.388C586.488 528.584 586.423 528.785 586.361 528.992C584.475 534.888 583.772 545.753 583.772 545.753C583.772 545.753 586.497 565.628 586.781 574.872C587.064 584.115 585.217 605.65 585.217 605.65Z" fill="black"/>
<path opacity="0.1" d="M573.331 638.345C573.278 638.469 573.216 638.589 573.146 638.704C571.271 641.867 566.519 643.876 565.075 644.426C564.802 643.941 564.65 643.658 564.65 643.658L565.653 638.96L570.955 636.783C571.796 637.226 572.591 637.749 573.331 638.345Z" fill="black"/>
<path d="M560.486 562.699L556.088 565.318L552.083 583.113C552.083 583.113 547.069 598.209 550.922 608.993C554.775 619.777 557.015 625.95 557.015 625.95C557.015 625.95 558.557 638.198 560.873 639.2C563.189 640.201 564.187 640.74 564.187 640.74L564.65 643.669C564.65 643.669 570.928 641.541 573.146 637.79C575.364 634.039 571.511 624.725 571.511 624.725C571.511 624.725 568.198 616.788 569.048 613.092C569.898 609.396 567.347 599.689 567.347 599.483C567.347 599.276 567.119 594.088 568.982 590.119C570.846 586.151 569.604 584.458 569.604 584.458L568.443 573.135L560.486 562.699Z" fill="#F9813A"/>
<path opacity="0.1" d="M637.136 635.955C637.136 635.955 625.49 640.343 621.79 636.5C618.089 632.656 618.471 614.621 618.471 614.621C618.471 614.621 614.929 581.344 612.689 575.879C610.449 570.413 611.599 530.968 611.599 530.968C611.599 530.968 610.095 525.867 608.781 524.534C608.698 524.448 608.605 524.373 608.503 524.311L608.956 524.409L610.536 524.746L612.988 526.711L620.852 577.441C620.852 577.441 634.477 616.5 637.027 632.264L637.136 635.955Z" fill="black"/>
<path opacity="0.1" d="M650.553 637.109H650.423C648.957 637.3 636.019 638.862 635.965 636.173C635.962 635.862 635.979 635.551 636.014 635.242L648.003 634.017L650.379 636.456C650.423 636.614 650.455 636.75 650.488 636.859L650.553 637.109Z" fill="black"/>
<path d="M638.139 544.877L646.64 549.308C646.64 549.308 653.725 567.631 654.858 575.487C654.858 575.487 660.106 596.532 656.493 605.188C652.88 613.843 653.18 631.023 653.18 631.023C653.18 631.023 651.098 634.181 650.248 633.337C649.398 632.493 650.558 636.647 650.558 636.647C650.558 636.647 636.024 638.574 635.964 635.721C635.904 632.869 639.299 619.238 639.299 619.238C639.299 619.238 640.226 586.81 638.912 581.725C637.599 576.641 638.139 544.877 638.139 544.877Z" fill="#F9813A"/>
<path opacity="0.1" d="M612.77 579.417C612.77 579.417 607.986 591.121 606.443 591.894C604.901 592.667 606.754 595.743 606.754 595.743C606.754 595.743 615.468 583.576 612.77 579.417Z" fill="black"/>
<path opacity="0.1" d="M609.915 538.361C609.969 538.138 604.209 544.006 602.667 544.893C601.124 545.78 608.296 544.839 609.915 538.361Z" fill="black"/>
<path opacity="0.1" d="M593.876 578.492C593.876 578.492 585.086 584.169 586.247 586.418C587.408 588.666 593.876 578.492 593.876 578.492Z" fill="black"/>
<path opacity="0.1" d="M609.838 661.372C609.838 661.372 617.321 666.179 628.961 667.36L609.838 661.372Z" fill="black"/>
<path opacity="0.1" d="M591.871 672.929C591.871 672.929 598.809 681.639 601.975 681.862C605.141 682.085 591.871 672.929 591.871 672.929Z" fill="black"/>
<path opacity="0.1" d="M601.588 707.061C601.277 707.213 597.653 714.916 593.958 715.15C590.263 715.384 601.588 707.061 601.588 707.061Z" fill="black"/>
<path opacity="0.1" d="M633.741 723.936C633.741 723.936 640.618 722.396 642.15 727.322C642.15 727.306 641.686 725.765 633.741 723.936Z" fill="black"/>
<path opacity="0.1" d="M629.114 752.113C629.114 752.113 637.447 750.414 639.218 752.728C640.989 755.042 629.114 752.113 629.114 752.113Z" fill="black"/>
<path opacity="0.1" d="M605.544 756.054C605.544 756.13 597.064 757.753 597.369 758.83C597.675 759.908 606.416 759.756 606.726 758.057C606.782 757.848 606.796 757.63 606.766 757.416C606.737 757.201 606.665 756.995 606.555 756.809C606.445 756.622 606.299 756.46 606.125 756.33C605.952 756.201 605.754 756.107 605.544 756.054Z" fill="black"/>
<path opacity="0.1" d="M626.34 763.36C626.34 763.36 640.275 761.661 639.42 764.59C638.564 767.518 626.34 763.36 626.34 763.36Z" fill="black"/>
<path opacity="0.1" d="M553.391 591.894C553.467 592.123 562.568 593.358 563.8 596.287C563.8 596.287 554.857 592.123 553.445 592.123" fill="black"/>
<path opacity="0.1" d="M566.192 615.694C566.192 615.694 558.633 618.084 559.173 621.682C559.712 625.28 558.404 620.016 566.192 615.694Z" fill="black"/>
<path opacity="0.1" d="M562.671 634.028C562.671 634.028 565.423 630.256 568.045 630.947C570.666 631.638 562.671 634.028 562.671 634.028Z" fill="black"/>
<path opacity="0.1" d="M605.833 491.833C605.568 492.09 605.271 492.311 604.95 492.492C602.77 493.761 602.171 495.715 601.135 497.969C600.171 500.032 599.108 502.215 597.162 503.385C594.65 504.898 591.342 504.343 588.732 505.66C587.573 506.263 586.621 507.199 586 508.346C585.378 509.494 585.115 510.802 585.244 512.1C585.41 513.102 585.658 514.089 585.985 515.051C586.579 517.133 586.847 519.294 586.781 521.458C586.786 521.521 586.786 521.585 586.781 521.649C584.547 520.534 582.574 518.963 580.987 517.037C579.401 515.111 578.238 512.873 577.574 510.469C576.909 508.065 576.758 505.549 577.13 503.083C577.502 500.617 578.389 498.256 579.734 496.155C581.078 494.053 582.85 492.258 584.934 490.884C587.018 489.511 589.368 488.591 591.831 488.183C594.294 487.776 596.815 487.89 599.231 488.519C601.647 489.148 603.904 490.277 605.855 491.833H605.833Z" fill="black"/>
<path d="M605.37 486.477C603.413 482.372 599.157 479.77 594.781 478.502C591.44 477.538 587.811 477.223 584.497 478.284C582.606 478.883 580.89 479.917 579.119 480.805C575.816 482.47 572.187 483.788 569.701 486.526C569.118 487.163 568.612 487.979 568.759 488.823C568.884 489.449 569.374 489.912 569.691 490.489C570.404 491.741 570.236 493.314 569.74 494.675C569.244 496.036 568.541 497.299 568.203 498.698C567.865 500.097 567.996 501.736 569.031 502.732C569.494 503.173 570.088 503.45 570.59 503.82C571.156 504.309 571.653 504.874 572.067 505.497L575.009 509.515C576.392 511.295 577.624 513.187 578.693 515.171C579.424 516.63 579.99 518.186 580.971 519.487C581.952 520.788 583.478 521.834 585.102 521.692C585.228 521.695 585.353 521.669 585.466 521.615C585.58 521.561 585.679 521.481 585.756 521.382C585.817 521.255 585.845 521.114 585.838 520.974C585.91 518.818 585.647 516.664 585.059 514.588C584.731 513.627 584.483 512.64 584.318 511.638C584.192 510.339 584.457 509.033 585.078 507.886C585.699 506.739 586.649 505.803 587.805 505.198C590.421 503.88 593.729 504.436 596.236 502.928C598.187 501.752 599.25 499.569 600.209 497.484C601.261 495.23 601.844 493.276 604.024 492.008C606.203 490.739 606.454 488.638 605.37 486.477Z" fill="#585268"/>
<path opacity="0.1" d="M597.392 777.317C597.392 777.317 600.116 780.785 599.408 782.761C598.7 784.737 597.392 777.317 597.392 777.317Z" fill="black"/>
<path opacity="0.1" d="M634.259 785.994C634.259 785.994 634.864 781.346 637.289 781.302C639.714 781.258 639.834 781.052 641.687 781.765C643.54 782.478 645.278 783.583 644.722 783.746C644.166 783.91 641.534 781.09 638.831 782.532C637.144 783.454 635.603 784.621 634.259 785.994Z" fill="black"/>
<path opacity="0.1" d="M589.261 539.33L596.89 533.989C596.89 533.989 585.729 527.403 584.4 528.328C583.07 529.253 582.154 537.582 582.154 537.582L589.261 539.33Z" fill="black"/>
<path d="M589.228 538.987L596.858 533.543C596.858 533.543 585.697 526.956 584.367 527.882C583.037 528.807 582.122 537.593 582.122 537.593L589.228 538.987Z" fill="#E1E7EF"/>
<path d="M589.228 538.987L596.858 533.543C596.858 533.543 585.697 526.956 584.367 527.882C583.037 528.807 582.122 537.593 582.122 537.593L589.228 538.987Z" fill="#FF9B21"/>
<path d="M585.631 527.925L585.402 527.811C585.061 527.637 584.678 527.566 584.298 527.606C583.918 527.645 583.557 527.794 583.26 528.034L560.371 546.581C560.371 546.581 555.396 553.456 556.088 565.318L569.587 584.42C569.587 584.42 571.129 577.953 572.977 579.183C572.977 579.183 575.598 612.308 572.977 617.082C570.355 621.856 569.2 639.728 569.2 639.728L578.067 640.729C578.067 640.729 578.993 628.634 581.075 624.322C583.157 620.011 584.29 605.188 584.29 605.188C584.29 605.188 586.165 583.652 585.854 574.409C585.544 565.166 582.846 545.291 582.846 545.291C582.846 545.291 583.603 533.641 585.631 527.925Z" fill="#F9813A"/>
<path opacity="0.1" d="M608.433 535.955L598.923 532.438C598.923 532.438 611.032 519.188 612.547 526.537L608.433 535.955Z" fill="black"/>
<path d="M608.433 535.492L598.923 531.975C598.923 531.975 611.032 518.725 612.547 526.074L608.433 535.492Z" fill="#E1E7EF"/>
<path d="M608.433 535.492L598.923 531.975C598.923 531.975 611.032 518.725 612.547 526.074L608.433 535.492Z" fill="#FF9B21"/>
<path opacity="0.1" d="M608.122 524.218C608.259 524.196 608.399 524.227 608.514 524.305L608.122 524.218Z" fill="black"/>
<path d="M609.038 523.298L634.27 528.742C634.27 528.742 641.213 530.282 646.226 547.691C651.24 565.1 639.36 586.429 639.36 586.429L636.738 584.202L638.052 635.041C638.052 635.041 626.406 639.428 622.705 635.585C619.005 631.742 619.392 613.691 619.392 613.691C619.392 613.691 615.844 580.419 613.604 574.948C611.365 569.477 612.514 530.043 612.514 530.043C612.514 530.043 610.455 522.993 609.038 523.298Z" fill="#F9813A"/>
<path opacity="0.1" d="M632.122 555.693C631.768 556.02 631.354 571.404 632.896 583.113C633.839 590.244 635.296 597.297 637.256 604.219L634.967 557.31C634.967 557.31 633.201 554.692 632.122 555.693Z" fill="black"/>
<path opacity="0.1" d="M629.038 542.443C629.653 542.83 632.356 549.221 631.119 551.839C629.882 554.458 629.038 542.443 629.038 542.443Z" fill="black"/>
<path opacity="0.1" d="M605.222 486.477C603.984 484.04 602.054 482.022 599.675 480.674C601.444 481.939 602.872 483.623 603.833 485.573C604.923 487.751 604.601 489.928 602.481 491.12C600.361 492.313 599.702 494.343 598.666 496.597C597.702 498.66 596.639 500.843 594.688 502.04C592.181 503.554 588.873 502.993 586.258 504.31C585.102 504.918 584.153 505.855 583.532 507.003C582.911 508.151 582.645 509.457 582.77 510.756C582.937 511.756 583.187 512.741 583.516 513.701C584.11 515.783 584.378 517.944 584.312 520.108C584.317 520.249 584.287 520.389 584.225 520.516C584.15 520.616 584.051 520.697 583.938 520.751C583.826 520.805 583.701 520.831 583.576 520.827C582.922 520.877 582.266 520.755 581.674 520.473C582.103 520.898 582.614 521.23 583.177 521.45C583.739 521.67 584.341 521.773 584.944 521.752C585.042 521.766 585.143 521.758 585.237 521.727C585.331 521.696 585.417 521.644 585.488 521.574C585.559 521.504 585.612 521.419 585.645 521.326C585.677 521.232 585.687 521.132 585.674 521.033C585.745 518.87 585.478 516.708 584.884 514.626C584.552 513.666 584.302 512.679 584.138 511.676C584.012 510.378 584.277 509.072 584.898 507.924C585.52 506.777 586.469 505.841 587.625 505.236C590.241 503.918 593.549 504.474 596.056 502.966C598.007 501.79 599.07 499.607 600.029 497.522C601.081 495.268 601.664 493.314 603.844 492.046C606.024 490.777 606.312 488.638 605.222 486.477Z" fill="black"/>
<path d="M760.468 554.839C752.958 554.692 746.332 549.395 742.577 542.923C741.592 541.382 740.973 539.638 740.767 537.822C740.793 537.409 740.863 537.001 740.975 536.602C741.204 535.995 741.386 535.371 741.52 534.735C741.549 534.482 741.549 534.226 741.52 533.973C741.52 533.973 741.52 533.973 741.52 533.93C741.699 532.552 740.887 531.208 739.885 530.266C738.882 529.324 737.623 528.633 736.577 527.697C733.35 524.866 732.369 520.326 732.31 516.003V515.775C732.348 513.924 732.495 512.068 732.478 510.217C732.504 509.166 732.458 508.115 732.342 507.07C732.032 504.452 731.034 501.785 728.974 500.113C723.601 495.758 714.565 500.293 709.001 496.178C707.65 495.17 706.554 493.684 704.914 493.292C703.677 492.993 702.391 493.396 701.181 493.799C697.083 495.149 692.51 496.923 690.908 500.875C689.993 503.145 690.249 505.737 689.41 508.034C688.865 509.574 687.824 510.897 687.066 512.356C686.444 513.455 686.142 514.705 686.194 515.965C686.127 516.618 686.219 517.277 686.461 517.887C686.746 518.622 687.204 519.277 687.796 519.798C687.583 520.252 687.316 520.68 687.001 521.072C685.954 522.351 684.347 523.249 683.257 524.523C681.241 526.858 681.317 530.032 682.309 532.776C683.3 535.519 685.093 538.018 686.331 540.691C686.875 541.85 687.29 543.146 686.739 544.3C686.352 545.1 685.551 545.71 684.93 546.401C684.021 547.419 683.45 548.693 683.295 550.048C671.028 552.846 671.017 562.694 671.017 562.694L664.39 579.341C664.39 579.341 663.327 582.144 662.079 585.846L654.237 584.442L659.687 593.554C658.657 597.267 657.927 600.707 658.167 602.438C658.167 602.438 655.731 613.87 660.063 615.868L669.622 620.163C670.036 620.417 670.481 620.616 670.946 620.757L671.333 620.931C671.472 620.998 671.625 621.033 671.78 621.033C671.935 621.033 672.087 620.998 672.227 620.931H672.254H672.358C672.543 620.943 672.729 620.915 672.902 620.849C673.115 620.735 673.284 620.553 673.382 620.332C673.379 620.314 673.379 620.295 673.382 620.277L676.243 619.45L678.668 622.319C679.758 623.086 680.848 623.751 681.878 624.349L678.123 661.595C678.123 661.595 677.518 711.133 675.687 722.423C675.012 726.604 675.006 729.456 675.262 731.394L675.191 731.514C675.644 734.699 676.826 735.325 676.826 735.325V735.281C676.848 735.298 676.872 735.313 676.897 735.325C677.449 733.878 678.104 732.474 678.859 731.122C678.859 731.389 678.859 731.666 678.859 731.939C678.821 736.141 678.69 742.026 678.254 745.853C677.513 752.385 680.151 773.915 680.151 773.915L681.061 793.512C681.209 796.84 680.436 800.143 678.826 803.06C676.646 806.974 673.862 812.483 673.66 814.928C673.649 815.06 673.649 815.193 673.66 815.325L668.984 820.943C668.984 820.943 667.158 823.763 671.284 824.901C673.502 825.516 677.328 824.901 680.401 824.177C681.743 823.868 682.94 823.114 683.798 822.039C684.656 820.963 685.124 819.629 685.126 818.254C685.903 815.554 687.215 813.039 688.985 810.856L689.753 815.369L694.897 816.642L695.557 804.274C695.822 803.58 695.943 802.839 695.911 802.097C696.925 793.3 693.524 794.089 693.524 794.089C693.615 794.167 693.674 794.276 693.688 794.394L693.524 794.095C691.437 789.979 692.434 783.207 692.434 783.207C692.434 783.207 695.159 763.61 696.091 758.433C696.761 754.775 696.483 742.799 696.26 736.114C696.26 735.836 696.26 735.57 696.233 735.303C704.211 735.199 713.988 734.933 720.849 734.268V735.074L719.585 781.373C719.498 784.325 718.897 787.239 717.808 789.985C717.808 790.039 717.77 790.088 717.748 790.143C716.244 794.02 715.395 798.121 715.236 802.277L714.647 816.975V817.383C713.623 817.775 712.004 818.913 711.96 822.211C711.89 827.045 720.418 825.434 720.418 825.434C728.942 825.434 729.012 816.572 729.012 816.572C729.012 816.572 729.28 808.444 729.688 803.006C730.097 797.568 728.402 798.765 728.402 798.765L728.271 814.236C728.271 814.274 728.271 814.313 728.271 814.356V800.796L728.402 798.831V798.776V798.357L729.476 782.402C729.476 782.402 737.329 755.815 738.544 750.714C739.41 747.088 739.051 736.168 738.767 730.131C738.767 729.854 738.767 729.587 738.724 729.331C741.16 729.113 743.312 729.092 744.173 729.092H744.571C744.571 729.092 744.168 686.391 743.149 670.3C742.13 654.208 740.511 639.483 736.451 635.052C733.999 632.373 730.582 624.104 728.277 617.98C733.123 620.073 738.153 621.713 743.302 622.88C756.157 625.569 754.397 614.42 754.397 614.42L753.095 593.337H753.182C753.134 587.814 752.66 582.303 751.765 576.853C751.084 572.672 750.043 568.35 748.452 564.877C749.847 564.333 751.225 563.75 752.577 563.151C756.07 561.611 760.005 559.428 760.506 555.666H760.337C760.405 555.395 760.448 555.118 760.468 554.839ZM680.777 585.324C680.805 587.501 680.723 591.279 680.592 595.454L676.51 590.011L680.603 583.38L680.777 585.324ZM737.171 604.616L730.369 602.438C731.575 600.559 732.984 598.817 734.571 597.245L735.16 596.701L734.947 596.744L735.274 596.445L735.47 596.401L735.16 596.701L735.53 596.625C735.94 598.331 736.732 599.923 737.846 601.279C740.288 603.941 737.176 604.616 737.176 604.616H737.171Z" fill="url(#paint2_linear)"/>
<path d="M695.856 800.584L695.061 815.652L689.987 814.383L688.919 808.118L695.856 800.584Z" fill="#A27772"/>
<path opacity="0.1" d="M695.856 800.584L695.061 815.652L689.987 814.383L688.919 808.118L695.856 800.584Z" fill="black"/>
<path d="M714.478 817.65L722.217 819.25L727.955 814.187V799.919L728.086 797.971V797.911V797.497L729.154 781.64C729.154 781.64 736.898 755.243 738.102 750.175C738.953 746.582 738.598 735.738 738.315 729.745C738.2 727.29 738.102 725.646 738.102 725.646L721.018 721.514L720.658 734.633L719.41 780.6C719.324 783.53 718.732 786.423 717.661 789.152L717.601 789.31C716.115 793.16 715.277 797.228 715.121 801.351L714.543 815.967V816.37L714.478 817.65Z" fill="#FBBEBE"/>
<path opacity="0.1" d="M714.478 817.65L722.217 819.25L727.955 814.187V812.973C727.936 813.242 727.851 813.502 727.708 813.73C727.564 813.958 727.367 814.147 727.132 814.28L727.05 814.329C724.385 815.736 721.365 816.333 718.364 816.044L715.345 815.788C715.069 815.814 714.799 815.88 714.543 815.984V816.387L714.478 817.65Z" fill="black"/>
<path d="M727.05 814.726L727.132 814.683C727.384 814.541 727.594 814.336 727.74 814.087C727.886 813.839 727.964 813.556 727.966 813.267L728.091 797.911C728.091 797.911 729.759 796.719 729.356 802.119C728.952 807.519 728.691 815.586 728.691 815.586C728.691 815.586 728.625 824.383 720.216 824.383C720.216 824.383 711.808 825.984 711.873 821.183C711.938 816.381 715.344 816.185 715.344 816.185L718.364 816.446C721.365 816.736 724.386 816.138 727.05 814.726Z" fill="#2F2E41"/>
<path d="M674.172 814.383C674.368 817.851 684.581 815.848 684.581 815.848L691.453 802.522C691.453 802.522 697.191 798.118 694.319 794.253C694.166 794.042 694.026 793.822 693.9 793.594C693.9 793.594 693.9 793.594 693.873 793.561C693.813 793.463 693.758 793.36 693.704 793.251C691.644 789.168 692.657 782.472 692.657 782.472C692.657 782.472 695.322 763.006 696.26 757.872C696.919 754.247 696.646 742.352 696.428 735.7C696.341 732.935 696.26 731.079 696.26 731.079L679.306 726.544C679.306 726.544 679.306 728.656 679.306 731.596C679.267 735.771 679.137 741.612 678.706 745.412C677.976 751.873 680.575 773.273 680.575 773.273L681.474 792.745C681.63 796.044 680.876 799.322 679.295 802.222C677.169 806.109 674.39 811.585 674.199 814.008C674.18 814.132 674.171 814.258 674.172 814.383Z" fill="#FBBEBE"/>
<path opacity="0.1" d="M674.172 814.383C674.368 817.851 684.581 815.848 684.581 815.848L691.453 802.521C691.453 802.521 697.192 798.118 694.32 794.253C694.166 794.042 694.026 793.822 693.9 793.594C693.807 795.613 691.589 800.671 691.589 800.671C691.589 800.671 685.916 812.01 684.112 814.606C682.309 817.203 674.472 814.122 674.178 814.013C674.166 814.136 674.164 814.26 674.172 814.383Z" fill="black"/>
<path d="M693.704 793.235C693.704 793.235 697.061 792.456 696.058 801.188C696.096 802.18 695.871 803.164 695.405 804.041C694.938 804.918 694.248 805.656 693.404 806.18C691.001 807.688 687.295 810.932 685.42 817.241C685.422 818.603 684.962 819.925 684.116 820.992C683.27 822.059 682.088 822.81 680.761 823.12C677.731 823.828 673.954 824.449 671.769 823.839C667.698 822.707 669.502 819.909 669.502 819.909L674.172 814.372C674.172 814.372 682.314 817.573 684.112 814.971C685.911 812.369 691.589 801.041 691.589 801.041C691.589 801.041 694.701 793.969 693.704 793.235Z" fill="#2F2E41"/>
<path opacity="0.1" d="M721.017 723.131L720.658 736.25C725.208 735.809 728.467 735.194 729.023 734.328C730.227 732.467 734.598 731.683 738.315 731.362C738.2 728.906 738.102 727.262 738.102 727.262L721.017 723.131Z" fill="black"/>
<path opacity="0.1" d="M679.306 733.191C679.741 732.302 680.381 731.529 681.175 730.937C682.973 729.941 682.777 737.339 682.777 737.339C682.777 737.339 688.772 737.393 696.429 737.295C696.341 734.53 696.26 732.668 696.26 732.668L679.306 728.139C679.306 728.139 679.338 730.24 679.306 733.191Z" fill="black"/>
<path d="M677.371 734.943C677.371 734.943 679.376 729.5 681.186 728.531C682.995 727.562 682.788 734.927 682.788 734.927C682.788 734.927 726.832 735.33 729.034 731.928C731.236 728.525 744.048 728.727 744.048 728.727C744.048 728.727 743.65 686.331 742.647 670.338C741.644 654.344 740.048 639.739 736.042 635.34C733.454 632.493 729.77 623.282 727.492 617.142C726.255 613.789 725.432 611.344 725.432 611.344L683.393 613.74L683.049 617.142L678.586 661.737C678.586 661.737 677.987 710.931 676.183 722.129C674.379 733.327 677.371 734.943 677.371 734.943Z" fill="#444053"/>
<g opacity="0.1">
<path opacity="0.1" d="M725.611 731.928C727.791 728.531 740.625 728.727 740.625 728.727C740.625 728.727 740.227 686.331 739.225 670.338C738.222 654.344 736.625 639.739 732.62 635.34C730.02 632.482 726.347 623.282 724.069 617.142C723.028 614.322 722.282 612.15 722.075 611.529L725.344 611.344C725.344 611.344 726.167 613.789 727.41 617.142C729.688 623.282 733.366 632.493 735.955 635.34C739.96 639.739 741.563 654.339 742.56 670.338C743.557 686.337 743.966 728.727 743.966 728.727C743.966 728.727 731.154 728.531 728.947 731.928C727.066 734.829 694.657 734.965 685.251 734.938C697.322 734.911 723.911 734.552 725.611 731.928Z" fill="black"/>
<path opacity="0.1" d="M677.763 728.531C678.575 728.079 678.979 729.331 679.18 730.85C678.453 732.167 677.821 733.535 677.289 734.943C677.289 734.943 676.128 734.317 675.654 731.133C676.319 729.995 677.055 728.923 677.763 728.531Z" fill="black"/>
</g>
<path d="M690.363 508.769C687.453 512.732 690.396 518.366 687.273 522.22C686.243 523.494 684.657 524.398 683.584 525.65C681.595 527.969 681.671 531.121 682.646 533.842C683.622 536.564 685.371 539.047 686.614 541.703C687.159 542.852 687.562 544.142 687.017 545.285C686.636 546.08 685.845 546.684 685.23 547.37C683.224 549.607 683.17 552.716 684.249 555.351C685.328 557.985 687.388 560.25 689.42 562.482C690.222 563.358 691.235 564.327 692.57 564.3C693.272 564.247 693.951 564.024 694.549 563.652C699.172 561.293 702.706 557.244 704.416 552.347C706.125 547.45 705.878 542.084 703.726 537.365C702.036 533.32 699.219 529.444 699.192 525.171C699.192 521.779 700.936 518.54 701.246 515.165C701.622 511.061 699.192 504.545 694.233 502.754C694.559 505.388 691.84 506.733 690.363 508.769Z" fill="#2F2E41"/>
<path opacity="0.1" d="M690.363 508.769C687.453 512.732 690.396 518.366 687.273 522.22C686.243 523.494 684.657 524.398 683.584 525.65C681.595 527.969 681.671 531.121 682.646 533.842C683.622 536.564 685.371 539.047 686.614 541.703C687.159 542.852 687.562 544.142 687.017 545.285C686.636 546.08 685.845 546.684 685.23 547.37C683.224 549.607 683.17 552.716 684.249 555.351C685.328 557.985 687.388 560.25 689.42 562.482C690.222 563.358 691.235 564.327 692.57 564.3C693.272 564.247 693.951 564.024 694.549 563.652C699.172 561.293 702.706 557.244 704.416 552.347C706.125 547.45 705.878 542.084 703.726 537.365C702.036 533.32 699.219 529.444 699.192 525.171C699.192 521.779 700.936 518.54 701.246 515.165C701.622 511.061 699.192 504.545 694.233 502.754C694.559 505.388 691.84 506.733 690.363 508.769Z" fill="black"/>
<path opacity="0.1" d="M722.636 652.923C716.811 653.228 711.328 655.732 706.227 658.563C701.126 661.394 696.189 664.6 690.701 666.609" fill="black"/>
<path opacity="0.1" d="M719.017 666.636C713.255 667.185 707.884 669.795 703.895 673.985C702.478 675.482 701.257 677.159 699.78 678.596C697.519 680.8 694.726 682.381 691.671 683.185" fill="black"/>
<path opacity="0.1" d="M720.211 677.072C715.563 678.36 711.357 680.894 708.047 684.399C707.153 685.362 706.341 686.391 705.448 687.355C700.625 692.526 693.813 695.27 687.235 697.866" fill="black"/>
<path d="M719.715 532.351C719.844 537.001 720.244 541.64 720.914 546.243C721.459 549.509 722.222 552.449 723.318 553.75C726.522 557.561 707.704 562.651 707.704 562.651L696.592 554.049C696.592 554.049 705.399 545.949 701.295 538.05C697.192 530.152 719.715 532.351 719.715 532.351Z" fill="#FBBEBE"/>
<path opacity="0.1" d="M683.039 617.142H727.481C726.244 613.789 725.421 611.344 725.421 611.344L683.382 613.74L683.039 617.142Z" fill="black"/>
<path d="M680.178 616.342H727.694C726.359 611.568 727.694 607.153 729.596 603.756C730.929 601.375 732.605 599.204 734.571 597.311L734.898 597.011L751.487 593.342L752.381 593.146C752.381 593.146 752.517 563.015 741.836 558.878C731.154 554.741 724.751 549.15 724.751 549.15L710.075 553.679L699.263 548.236C695.791 551.965 686.581 550.5 686.581 550.5C671.502 552.231 671.502 563.565 671.502 563.565C671.502 563.565 680.309 584.093 680.979 584.093C681.649 584.093 680.178 616.342 680.178 616.342Z" fill="#FF7E5F"/>
<path opacity="0.1" d="M696.581 597.185C696.581 597.185 686.892 595.041 683.595 591.29L696.581 597.185Z" fill="black"/>
<path opacity="0.1" d="M745.437 585.944L734.2 595.144C734.282 595.876 734.405 596.603 734.571 597.321L734.898 597.022L751.487 593.353L745.437 585.944Z" fill="black"/>
<path opacity="0.1" d="M715.012 613.141C715.012 613.141 717.47 614.523 721.236 616.342H727.694C726.358 611.568 727.694 607.153 729.596 603.756L718.211 600.076C722.086 603.674 715.012 613.141 715.012 613.141Z" fill="black"/>
<path d="M678.172 559.95L671.502 563.549L664.962 580.081C664.962 580.081 658.155 598.209 658.82 603.01C658.82 603.01 656.423 614.344 660.69 616.342L671.807 621.372C672.003 621.458 672.222 621.482 672.432 621.439C672.643 621.396 672.835 621.288 672.981 621.132C673.128 620.975 673.222 620.777 673.251 620.564C673.28 620.352 673.242 620.135 673.142 619.945C671.556 616.946 669.812 612.253 672.597 609.673L669.393 603.01L680.973 584.077L684.843 577.544L678.172 559.95Z" fill="#FF7E5F"/>
<path opacity="0.1" d="M693.012 593.402C693.589 595.754 695.54 599.39 701.998 600.745L709.083 606.543L716.62 609.956L719.693 611.344L720.996 601.943L718.037 600.31L714.587 598.426C714.587 598.426 706.805 584.344 694.483 590.261C693.91 590.532 693.45 590.994 693.182 591.567C692.913 592.14 692.853 592.789 693.012 593.402Z" fill="black"/>
<path d="M693.415 592.602C693.993 594.959 695.938 598.59 702.396 599.945L709.481 605.743L717.023 609.156L720.091 610.544L721.394 601.143L718.435 599.51L715.012 597.643C715.012 597.643 707.225 583.56 694.903 589.504C694.336 589.771 693.879 590.225 693.608 590.789C693.337 591.353 693.269 591.993 693.415 592.602Z" fill="#FBBEBE"/>
<path opacity="0.1" d="M707.301 544.545C716.808 544.545 724.516 536.846 724.516 527.348C724.516 517.851 716.808 510.152 707.301 510.152C697.793 510.152 690.085 517.851 690.085 527.348C690.085 536.846 697.793 544.545 707.301 544.545Z" fill="black"/>
<path d="M707.301 544.147C716.808 544.147 724.516 536.448 724.516 526.951C724.516 517.453 716.808 509.754 707.301 509.754C697.793 509.754 690.085 517.453 690.085 526.951C690.085 536.448 697.793 544.147 707.301 544.147Z" fill="#FBBEBE"/>
<path opacity="0.1" d="M717.966 563.696L712.789 553.647C712.789 553.647 720.364 550.587 720.914 547.043C721.464 543.5 728.173 551.197 726.723 553.75C725.274 556.303 717.966 563.696 717.966 563.696Z" fill="black"/>
<path d="M717.966 562.896L712.789 552.846C712.789 552.846 720.364 549.787 720.914 546.243C721.464 542.699 728.173 550.402 726.723 552.95C725.274 555.498 717.966 562.896 717.966 562.896Z" fill="#FF7E5F"/>
<path d="M675.595 588.856L704.2 627.273C704.2 627.273 693.655 633.005 679.131 622.743L672.859 615.275L654.951 585.122L675.595 588.856Z" fill="#F6F8FB"/>
<path d="M669.965 609.744L672.57 609.673C672.57 609.673 688.483 594.246 692.39 602.052C696.298 609.858 682.477 617.153 682.477 617.153L678.276 619.417L672.799 621.05L669.294 616.353L669.965 609.744Z" fill="#FBBEBE"/>
<path opacity="0.1" d="M673.807 618.078C674.047 618.966 674.276 619.945 673.872 620.767C673.776 620.987 673.609 621.169 673.398 621.285C673.225 621.351 673.038 621.377 672.853 621.361C671.475 621.244 670.192 620.61 669.262 619.586C668.349 618.566 667.567 617.436 666.935 616.222C666.227 614.986 665.491 613.62 665.742 612.215C666.025 610.686 667.376 609.624 668.701 608.764C671.338 607.022 671.426 609.053 672.003 611.295C672.581 613.538 673.202 615.814 673.807 618.078Z" fill="black"/>
<path d="M673.409 618.078C673.643 618.966 673.878 619.945 673.474 620.767C673.378 620.987 673.211 621.169 673 621.285C672.827 621.351 672.64 621.377 672.455 621.361C671.076 621.246 669.792 620.612 668.864 619.586C667.947 618.568 667.164 617.437 666.532 616.222C665.823 614.986 665.087 613.62 665.344 612.215C665.621 610.686 666.978 609.624 668.297 608.764C670.94 607.022 671.022 609.053 671.605 611.295C672.188 613.538 672.799 615.814 673.409 618.078Z" fill="#FF7E5F"/>
<path opacity="0.1" d="M680.979 584.077L682.308 581.829L681.147 586.004L680.979 584.077Z" fill="black"/>
<path opacity="0.1" d="M717.045 609.156L720.113 610.544L721.416 601.143L718.456 599.51C720.5 601.851 718.713 606.178 717.045 609.156Z" fill="black"/>
<path opacity="0.1" d="M729.361 598.241C729.361 598.241 719.454 598.846 715.247 596.146L729.361 598.241Z" fill="black"/>
<g opacity="0.1">
<path opacity="0.1" d="M728.129 604.556C729.462 602.174 731.139 600.001 733.105 598.105C733.576 597.81 734.066 597.545 734.571 597.311L750.015 594.142L750.909 593.946C750.909 593.946 751.045 563.815 740.369 559.678C734.381 557.404 728.767 554.246 723.715 550.31L724.887 549.95C724.887 549.95 731.29 555.546 741.971 559.678C752.653 563.81 752.511 593.946 752.511 593.946H750.909L735.105 596.968C735.105 596.968 734.424 597.626 734.216 597.817C732.234 599.8 730.535 602.046 729.165 604.491C727.073 608.369 726.597 612.915 727.84 617.142H726.205C724.887 612.368 726.249 607.953 728.129 604.556Z" fill="black"/>
<path opacity="0.1" d="M685.949 551.371C686.205 551.333 686.45 551.295 686.717 551.268C687.801 551.421 688.893 551.51 689.987 551.534C688.639 551.572 687.29 551.517 685.949 551.371Z" fill="black"/>
<path opacity="0.1" d="M708.603 554.48L698.826 549.537C699.02 549.378 699.202 549.205 699.371 549.02L709.573 554.175L708.603 554.48Z" fill="black"/>
</g>
<path d="M745.824 585.122L752.364 593.124L753.699 614.856C753.699 614.856 755.432 625.917 742.756 623.25C730.08 620.582 715.41 612.341 715.41 612.341C715.41 612.341 722.494 602.874 718.614 599.276L736.767 605.144C736.767 605.144 739.835 604.474 737.432 601.812C735.029 599.15 734.603 594.344 734.603 594.344L745.824 585.122Z" fill="#FF7E5F"/>
<path opacity="0.1" d="M748.778 608.078L752.381 612.21C751.454 611.926 750.625 611.388 749.989 610.658C749.352 609.928 748.933 609.034 748.778 608.078Z" fill="black"/>
<path opacity="0.1" d="M742.637 607.409L748.244 614.605L745.443 615.275L742.637 607.409Z" fill="black"/>
<path opacity="0.1" d="M686.739 519.057C686.123 517.55 686.597 515.791 687.338 514.37C688.08 512.95 689.099 511.605 689.654 510.075C690.477 507.8 690.227 505.225 691.126 502.999C692.712 499.052 697.219 497.288 701.257 495.922C702.45 495.524 703.72 495.127 704.941 495.421C706.576 495.807 707.638 497.288 708.974 498.284C714.456 502.367 723.372 497.871 728.674 502.193C730.702 503.826 731.688 506.499 731.993 509.095C732.298 511.692 731.993 514.327 731.96 516.945C731.873 521.529 732.734 526.543 736.168 529.58C737.203 530.495 738.424 531.181 739.437 532.128C740.451 533.075 741.247 534.398 741.072 535.77C740.938 536.4 740.756 537.018 740.527 537.62C739.846 540.01 740.865 542.52 742.108 544.697C745.814 551.104 752.348 556.385 759.754 556.532C759.258 560.266 755.394 562.433 751.934 563.962C747.574 565.917 742.931 567.833 738.129 567.588C733.328 567.343 728.32 564.273 727.481 559.548C727.192 557.915 727.23 555.949 725.846 555.1C724.996 554.583 723.895 554.714 722.979 554.327C721.655 553.783 721.001 552.297 720.565 550.93C719.672 548.111 719.193 545.177 719.143 542.22C719.083 538.715 719.546 534.888 717.557 532.003C715.715 529.33 712.445 527.974 710.32 525.519C708.358 523.244 706.227 520.5 703.012 520.075C698.565 519.449 689.366 525.486 686.739 519.057Z" fill="black"/>
<path d="M686.739 518.257C686.123 516.749 686.597 514.991 687.338 513.57C688.08 512.149 689.099 510.805 689.654 509.275C690.477 507 690.227 504.425 691.126 502.198C692.712 498.246 697.219 496.482 701.257 495.121C702.45 494.724 703.72 494.327 704.941 494.621C706.576 495.007 707.638 496.488 708.974 497.484C714.456 501.567 723.372 497.07 728.674 501.393C730.702 503.026 731.688 505.699 731.993 508.301C732.298 510.903 731.993 513.527 731.96 516.145C731.873 520.729 732.734 525.742 736.168 528.78C737.203 529.694 738.424 530.38 739.437 531.327C740.451 532.275 741.247 533.598 741.072 534.969C740.938 535.599 740.756 536.218 740.527 536.82C739.846 539.21 740.865 541.719 742.108 543.897C745.824 550.282 752.331 555.579 759.737 555.726C759.242 559.461 755.378 561.627 751.917 563.162C747.557 565.111 742.914 567.027 738.113 566.782C733.312 566.537 728.304 563.467 727.464 558.742C727.176 557.109 727.214 555.144 725.83 554.294C724.979 553.777 723.879 553.908 722.963 553.521C721.639 552.977 720.985 551.491 720.549 550.125C719.655 547.305 719.176 544.371 719.126 541.415C719.066 537.909 719.53 534.082 717.541 531.197C715.699 528.524 712.429 527.168 710.303 524.713C708.341 522.438 706.211 519.694 702.995 519.27C698.565 518.649 689.366 524.697 686.739 518.257Z" fill="#2F2E41"/>
<path opacity="0.1" d="M698.957 562.449L708.827 554.447C708.827 554.447 702.069 550.789 701.262 547.669C700.456 544.55 695.05 549.15 695.6 551.948C696.151 554.746 698.957 562.449 698.957 562.449Z" fill="black"/>
<path d="M699.344 561.246L709.214 553.249C709.214 553.249 702.456 549.591 701.682 546.472C700.908 543.353 695.47 547.953 696.02 550.751C696.57 553.549 699.344 561.246 699.344 561.246Z" fill="#FF7E5F"/>
<path opacity="0.1" d="M709.601 560.729C710.034 560.729 710.385 560.378 710.385 559.945C710.385 559.512 710.034 559.161 709.601 559.161C709.167 559.161 708.816 559.512 708.816 559.945C708.816 560.378 709.167 560.729 709.601 560.729Z" fill="black"/>
<path opacity="0.1" d="M709.601 565.084C710.034 565.084 710.385 564.733 710.385 564.3C710.385 563.867 710.034 563.516 709.601 563.516C709.167 563.516 708.816 563.867 708.816 564.3C708.816 564.733 709.167 565.084 709.601 565.084Z" fill="black"/>
<path opacity="0.1" d="M709.601 569.433C710.034 569.433 710.385 569.082 710.385 568.649C710.385 568.217 710.034 567.866 709.601 567.866C709.167 567.866 708.816 568.217 708.816 568.649C708.816 569.082 709.167 569.433 709.601 569.433Z" fill="black"/>
<g opacity="0.1">
<path opacity="0.1" d="M690.723 507.141C691.502 505.002 691.333 502.601 692.063 500.445C691.725 500.922 691.445 501.437 691.23 501.981C690.325 504.229 690.581 506.804 689.753 509.057L689.698 509.188C690.102 508.539 690.445 507.853 690.723 507.141Z" fill="black"/>
<path opacity="0.1" d="M752.985 561.028C748.626 562.977 743.982 564.893 739.181 564.648C734.38 564.403 729.372 561.333 728.533 556.613C728.244 554.98 728.282 553.01 726.898 552.161C726.048 551.643 724.947 551.774 724.031 551.388C722.707 550.843 722.053 549.357 721.617 547.991C720.723 545.171 720.244 542.238 720.195 539.281C720.135 535.78 720.603 531.954 718.614 529.063C716.767 526.39 713.497 525.04 711.372 522.579C709.41 520.309 707.279 517.56 704.063 517.136C699.655 516.537 690.439 522.579 687.834 516.145C687.416 514.929 687.476 513.6 688.003 512.427C687.813 512.748 687.627 513.069 687.458 513.396C686.717 514.844 686.248 516.581 686.864 518.088C689.486 524.512 698.685 518.475 703.093 519.079C706.309 519.515 708.44 522.264 710.401 524.523C712.527 526.983 715.797 528.333 717.639 531.012C719.633 533.897 719.165 537.724 719.224 541.224C719.274 544.181 719.753 547.115 720.647 549.934C721.083 551.306 721.737 552.776 723.061 553.331C723.977 553.717 725.077 553.592 725.928 554.104C727.334 554.953 727.295 556.94 727.563 558.557C728.413 563.277 733.415 566.347 738.211 566.592C743.007 566.837 747.628 564.926 752.015 562.972C755.176 561.567 758.697 559.624 759.645 556.439C758.13 558.508 755.449 559.934 752.985 561.028Z" fill="black"/>
</g>
<path d="M849.298 591.752C837.761 585.122 833.401 583.489 833.379 583.489L833.139 583.32C831.883 582.356 830.885 581.095 830.235 579.651C830.221 579.388 830.221 579.125 830.235 578.862C830.232 578.887 830.232 578.913 830.235 578.938C830.415 575.427 832.916 572.231 835.287 569.444L841.352 562.318C842.041 561.613 842.574 560.771 842.916 559.847C843.039 559.35 843.094 558.839 843.08 558.328C843.08 558.121 843.08 557.914 843.08 557.708C843.047 555.938 842.998 554.164 842.933 552.395C842.878 550.849 842.48 548.9 840.932 548.584C840.126 548.421 839.058 548.709 838.633 548.04C838.488 547.755 838.452 547.429 838.529 547.12C838.526 547.145 838.526 547.171 838.529 547.196V547.109C838.829 545.914 839.02 544.696 839.101 543.467C839.135 542.841 839.05 542.215 838.851 541.621C837.957 539.058 834.867 538.001 832.137 537.517C829.406 537.032 826.344 536.619 824.632 534.485C824.174 533.773 823.676 533.088 823.139 532.433C822.35 531.732 821.386 531.256 820.349 531.055C816.96 530.221 813.39 530.531 810.196 531.937C808.877 532.525 807.553 533.32 806.104 533.233C804.654 533.146 803.313 532.1 801.831 531.85C799.433 531.442 797.139 533.2 795.956 535.285C795.256 536.521 794.881 537.915 794.866 539.335V539.575C794.832 541.103 795.39 542.585 796.425 543.712C797.46 544.801 798.997 545.519 799.428 546.929C799.602 547.501 799.558 548.121 799.717 548.704C799.733 548.776 799.755 548.847 799.782 548.916L799.706 549.019C797.232 552.181 795.889 556.079 795.891 560.092C795.918 563.99 797.185 567.778 799.508 570.909C801.832 574.04 805.092 576.353 808.817 577.512C808.817 577.691 808.817 577.871 808.817 578.056C808.817 580.234 808.191 582.504 806.311 584.153L789.967 590.675C789.967 590.675 780.114 589.504 776.561 603.886C775.993 606.274 775.787 608.733 775.95 611.181C776.081 613.359 775.782 617.169 773.226 622.107C769.187 630.011 770.108 648.155 778.37 649.951C786.169 651.649 789.22 650.942 789.542 650.86V651.176C789.411 654.584 788.174 683.947 783.678 687.496C782.436 688.482 782.664 689.129 783.678 689.592C783.678 689.592 783.678 689.783 783.651 690.136C783.515 692.314 782.822 700.479 779.836 705.117C776.343 710.507 776.708 741.59 776.708 741.59L774.326 759.914C774.326 759.914 775.792 771.231 774.326 773.207C773.013 774.966 771.269 816.833 770.904 825.913H770.751C770.029 825.96 769.33 826.183 768.714 826.563C768.099 826.942 767.586 827.467 767.22 828.091C765.291 831.221 758.533 837.007 758.533 837.007C757.067 839.087 751.645 841.079 748.778 842.016C748.4 842.139 748.035 842.3 747.688 842.495C746.615 843.078 745.753 843.985 745.225 845.086C745.036 845.412 744.915 845.773 744.87 846.148C744.825 846.522 744.857 846.902 744.964 847.263C745.694 849.054 760.937 850.317 764.795 848.515C767.825 847.105 779.836 845.249 784.823 844.52C785.728 844.406 786.57 843.994 787.215 843.35C787.861 842.705 788.273 841.864 788.387 840.959C788.434 840.647 788.418 840.329 788.339 840.023C788.261 839.717 788.121 839.43 787.929 839.179C786.975 837.998 786.49 834.77 786.294 832.647C786.699 832.482 787.077 832.258 787.417 831.983C787 825.457 787.927 818.915 790.141 812.761C793.815 803.06 794.915 785.096 794 773.42C794 773.42 805.199 725.275 814.016 720.784C814.153 720.959 818.431 726.44 818.976 743.419C819.521 760.665 825.766 771.982 825.766 771.982C825.766 771.982 823.008 801.264 825.766 812.222L822.164 829.506C821.897 829.283 821.728 829.109 821.728 829.109C821.728 829.109 821.837 829.588 821.984 830.355L821.908 830.725L822.066 830.758C822.474 832.935 823.079 836.686 822.829 838.924C822.687 840.181 822.333 841.907 822.093 843.6C821.711 846.262 821.608 848.842 823.008 849.408C825.308 850.333 838.813 851.586 841.101 848.624C841.616 848.021 841.952 847.285 842.069 846.501C842.187 845.717 842.082 844.915 841.766 844.188C841.601 843.78 841.377 843.398 841.101 843.055C841.101 843.055 837.516 837.203 838.529 833.077C838.623 832.674 838.633 832.256 838.559 831.849C838.485 831.441 838.328 831.054 838.099 830.709C838.257 828.684 839.074 819.31 841.189 811.351C843.488 802.707 848.333 783.752 844.769 771.291C844.635 770.801 844.482 770.322 844.311 769.854C842.254 763.05 841.567 755.906 842.289 748.836C840.966 742.799 840.966 736.549 842.289 730.512C844.497 720.452 846.039 710.572 846.039 710.572C846.039 710.572 847.254 697.279 846.191 689.129C846.191 688.955 846.142 688.781 846.121 688.585L846.698 688.454C846.698 688.454 843.576 674.622 842.475 665.819C842.213 663.74 841.875 661.111 841.505 658.302C842.52 658.134 843.521 657.884 844.497 657.556C854.41 654.143 857.532 623.261 857.532 623.261V613.462C857.532 613.462 860.867 598.399 849.298 591.752ZM775.422 830.317C775.117 830.165 774.937 830.061 774.937 830.061L775.422 830.317Z" fill="url(#paint3_linear)"/>
<path d="M843.314 770.05C847.614 782.402 842.595 802.451 840.262 811.422C837.93 820.393 837.216 831.117 837.216 831.117C828.077 832.549 821.444 830.758 821.444 830.758L825.21 812.32C822.518 801.4 825.21 772.217 825.21 772.217C825.21 772.217 819.117 760.937 818.578 743.751C818.033 726.838 813.875 721.367 813.744 721.198C805.144 725.673 794.212 773.654 794.212 773.654C795.106 785.287 794.027 803.191 790.447 812.848C788.272 818.987 787.358 825.5 787.76 831.999C786.506 833.088 784.763 833.24 782.855 832.935C777.738 832.108 771.602 827.704 771.602 827.704C771.602 827.704 773.569 775.445 775.008 773.463C776.446 771.482 775.008 760.213 775.008 760.213L777.335 741.955C777.335 741.955 776.975 710.98 780.381 705.613C783.324 700.975 784 692.82 784.13 690.681C784.13 690.343 784.13 690.136 784.13 690.136L789.318 683.931C789.318 683.931 839.499 680.169 843.27 683.931C844.191 684.851 844.764 686.952 845.101 689.592C846.137 697.714 844.949 710.959 844.949 710.959C844.949 710.959 843.445 720.806 841.292 730.828C840.002 736.848 840.002 743.072 841.292 749.092C840.6 756.143 841.287 763.261 843.314 770.05Z" fill="#65617D"/>
<path d="M840.175 848.548C837.935 851.504 824.764 850.252 822.518 849.332C821.15 848.787 821.254 846.191 821.625 843.54C821.859 841.858 822.202 840.137 822.344 838.885C822.698 835.663 821.254 829.125 821.254 829.125C821.254 829.125 824.208 832.26 824.922 829.125C825.238 827.753 826.338 827.051 827.483 826.697C829.019 826.233 830.67 826.335 832.137 826.985C834.464 827.998 838.344 830.148 837.652 833.055C836.666 837.165 840.159 843.001 840.159 843.001C840.43 843.341 840.65 843.719 840.813 844.122C841.124 844.847 841.229 845.644 841.116 846.425C841.004 847.205 840.678 847.94 840.175 848.548Z" fill="#A27772"/>
<path opacity="0.1" d="M840.175 848.548C837.935 851.504 824.764 850.252 822.518 849.332C821.15 848.787 821.254 846.191 821.625 843.54C823.041 844.204 825.439 844.754 829.456 844.384C830.392 844.295 831.333 844.266 832.273 844.296C835.126 844.425 837.984 844.366 840.829 844.122C841.138 844.849 841.24 845.646 841.125 846.427C841.009 847.208 840.681 847.941 840.175 848.548Z" fill="black"/>
<path opacity="0.1" d="M794.207 773.632C795.101 785.265 794.021 803.169 790.441 812.826C788.266 818.965 787.352 825.478 787.754 831.977C786.501 833.066 784.757 833.219 782.85 832.914C783.94 825.363 788.539 792.832 791.487 767.127C794.85 737.856 810.561 717.72 810.561 717.72L813.695 721.166C805.139 725.651 794.207 773.632 794.207 773.632Z" fill="black"/>
<path d="M834.796 585.476L832.616 596.216L821.897 614.208L808.681 608.568C808.681 608.568 790.697 589.771 802.005 587.087C803.357 586.797 804.633 586.23 805.755 585.421C807.973 583.75 808.67 581.322 808.681 578.943C808.597 576.282 807.978 573.664 806.861 571.246L829.978 563.995C829.034 567.03 828.485 570.173 828.343 573.347C828.164 579.64 830.523 582.738 832.425 584.235C833.127 584.798 833.933 585.22 834.796 585.476Z" fill="#FBBEBE"/>
<path opacity="0.1" d="M829.957 563.995C829.013 567.03 828.464 570.173 828.322 573.347C827.901 573.849 827.451 574.327 826.976 574.779C824.589 577.056 821.63 578.645 818.412 579.379C815.194 580.112 811.837 579.961 808.698 578.943C808.609 576.281 807.984 573.663 806.861 571.246L829.957 563.995Z" fill="black"/>
<path d="M832.61 561.039C832.611 564.652 831.54 568.183 829.532 571.187C827.523 574.192 824.668 576.533 821.327 577.916C817.987 579.3 814.31 579.662 810.763 578.958C807.216 578.254 803.958 576.515 801.4 573.961C798.843 571.407 797.101 568.153 796.395 564.61C795.689 561.067 796.051 557.394 797.434 554.057C798.818 550.719 801.161 547.866 804.168 545.859C807.175 543.852 810.71 542.781 814.327 542.781C816.731 542.769 819.113 543.234 821.336 544.147C823.559 545.061 825.579 546.405 827.279 548.103C828.979 549.8 830.326 551.818 831.241 554.038C832.156 556.258 832.621 558.638 832.61 561.039Z" fill="#FBBEBE"/>
<path opacity="0.1" d="M834.796 585.476L832.616 596.216L821.897 614.208L808.681 608.568C808.681 608.568 790.697 589.771 802.005 587.087C803.357 586.797 804.633 586.23 805.755 585.421C803.716 591.018 812.131 602.662 812.131 602.662C813.112 604.104 815.357 603.206 815.357 603.206C820.779 602.384 830.758 586.81 832.387 584.218C833.099 584.792 833.918 585.219 834.796 585.476Z" fill="black"/>
<path opacity="0.1" d="M845.145 689.603C841.963 690.327 824.355 694.219 817.679 693.245C810.333 692.156 796.049 691.459 796.049 691.459C796.049 691.459 786.953 691.949 784.152 690.67C784.152 690.332 784.152 690.126 784.152 690.126L789.34 683.92C789.34 683.92 839.521 680.158 843.292 683.92C844.235 684.862 844.807 686.963 845.145 689.603Z" fill="black"/>
<path d="M812.125 603.201C812.125 603.201 802.67 590.136 806.234 585.019L790.261 591.551C790.261 591.551 780.648 590.386 777.182 604.719C776.628 607.101 776.428 609.552 776.588 611.992C776.719 614.17 776.424 617.98 773.956 622.88C770.016 630.757 770.909 648.841 778.975 650.642C787.04 652.444 789.901 651.535 789.901 651.535C789.901 651.535 788.811 684.295 784.168 688.057C779.525 691.819 796.049 690.92 796.049 690.92C796.049 690.92 810.332 691.639 817.684 692.711C825.036 693.784 845.641 688.95 845.641 688.95C845.641 688.95 842.594 675.166 841.515 666.396C840.436 657.627 837.924 638.944 837.924 638.944L856.202 614.208C856.202 614.208 859.429 599.259 848.137 592.634C836.845 586.009 832.6 584.387 832.6 584.387C832.6 584.387 821.253 602.841 815.341 603.734C815.351 603.734 813.106 604.638 812.125 603.201Z" fill="#F9813A"/>
<path opacity="0.1" d="M791.155 608.388C791.155 608.388 790.981 614.3 792.054 616.625C793.128 618.949 797.074 631.867 797.074 631.867H788.109C788.109 631.867 792.948 626.674 792.594 624.164C792.24 621.655 791.155 608.388 791.155 608.388Z" fill="#F9813A"/>
<path d="M817.684 652.967C817.684 652.967 797.891 648.133 796.049 644.017C794.207 639.902 789.122 630.686 789.122 630.686L791.209 627.877L800.833 635.422C800.833 635.422 812.278 644.551 817.684 645.449C823.09 646.347 817.684 652.967 817.684 652.967Z" fill="#FBBEBE"/>
<path opacity="0.05" d="M817.684 652.967C817.684 652.967 797.891 648.133 796.049 644.017C794.207 639.902 789.122 630.686 789.122 630.686L791.209 627.877L800.833 635.422C800.833 635.422 812.278 644.551 817.684 645.449C823.09 646.347 817.684 652.967 817.684 652.967Z" fill="black"/>
<path d="M834.796 629.695V640.419H833.074C824.546 640.417 816.159 642.587 808.703 646.723L805.466 648.514L804.6 648.998L799.041 636.478L804.24 631.824H804.507C805.777 631.949 811.276 632.406 813.608 631.622C815.821 630.871 818.567 628.492 825.085 630.152C828.295 630.974 831.042 634.567 834.153 633.446L834.796 629.695Z" fill="#FBBEBE"/>
<path opacity="0.1" d="M852.094 610.163L855.674 614.191V623.952C855.674 623.952 852.628 654.741 842.954 658.144C833.281 661.546 816 656.173 816 656.173C816 656.173 811.537 644.36 813.624 643.653C815.711 642.945 832.071 638.623 832.071 638.623C832.071 638.623 831.843 620.561 835.423 615.188C835.423 615.188 833.096 598.361 841.161 598.002C849.227 597.643 852.094 610.163 852.094 610.163Z" fill="black"/>
<path d="M852.638 610.163L856.224 614.191V623.952C856.224 623.952 853.178 654.741 843.499 658.144C833.821 661.546 816.545 656.173 816.545 656.173C816.545 656.173 812.082 644.36 814.175 643.653C816.267 642.945 832.622 638.623 832.622 638.623C832.622 638.623 832.387 620.561 835.973 615.188C835.973 615.188 833.641 598.361 841.706 598.002C849.772 597.643 852.638 610.163 852.638 610.163Z" fill="#F9813A"/>
<path opacity="0.1" d="M827.597 568.791C827.752 567.612 827.611 566.413 827.189 565.302C826.682 564.213 825.499 563.391 824.344 563.668C822.813 564.028 822.164 566.02 820.649 566.499C819.379 566.902 817.995 566.004 817.379 564.823C816.763 563.641 816.758 562.253 816.758 560.925C816.758 559.433 816.758 557.936 816.758 556.439C816.758 554.806 816.703 553.053 815.701 551.774C814.453 550.184 811.515 549.488 809.554 549.553C808.248 549.568 806.996 550.071 806.044 550.963C804.998 551.856 803.782 552.509 802.354 552.275C801.759 552.186 801.201 551.93 800.746 551.537C800.291 551.144 799.956 550.629 799.782 550.054V549.999C801.303 547.98 803.226 546.298 805.431 545.059C807.636 543.821 810.075 543.053 812.592 542.805C815.109 542.556 817.651 542.832 820.056 543.616C822.461 544.399 824.677 545.672 826.564 547.355C828.45 549.038 829.967 551.094 831.018 553.393C832.068 555.691 832.629 558.183 832.666 560.709C832.703 563.236 832.214 565.742 831.231 568.071C830.248 570.399 828.792 572.498 826.954 574.235C827.27 572.433 827.484 570.616 827.597 568.791Z" fill="black"/>
<path d="M802.354 551.747C801.758 551.655 801.2 551.398 800.744 551.004C800.288 550.61 799.953 550.096 799.776 549.52C799.629 548.943 799.667 548.328 799.498 547.757C799.079 546.347 797.575 545.617 796.566 544.545C794.55 542.405 794.681 538.889 796.109 536.314C797.264 534.24 799.498 532.503 801.842 532.895C803.291 533.146 804.567 534.175 806.016 534.273C807.466 534.371 808.741 533.57 810.011 532.982C813.124 531.57 816.626 531.259 819.94 532.1C820.956 532.305 821.898 532.781 822.665 533.478C823.185 534.132 823.671 534.814 824.12 535.519C825.788 537.642 828.779 538.061 831.444 538.54C834.109 539.019 837.123 540.076 837.984 542.634C838.567 544.332 837.984 546.172 837.668 547.936C837.563 548.296 837.588 548.682 837.739 549.025C838.158 549.711 839.199 549.422 839.984 549.569C841.494 549.89 841.881 551.834 841.94 553.38C842.002 555.144 842.049 556.909 842.082 558.677C842.126 559.334 842.072 559.994 841.924 560.636C841.597 561.556 841.079 562.397 840.404 563.102L834.485 570.206C831.859 573.353 829.074 577.022 829.581 581.094C828.338 581.638 826.856 580.577 826.452 579.276C826.049 577.975 826.371 576.554 826.649 575.242C827.131 572.936 827.448 570.598 827.597 568.247C827.751 567.069 827.611 565.872 827.188 564.763C826.681 563.674 825.499 562.852 824.343 563.13C822.807 563.489 822.164 565.481 820.649 565.96C819.379 566.363 817.995 565.465 817.379 564.284C816.763 563.102 816.757 561.72 816.757 560.391V555.9C816.757 554.267 816.703 552.514 815.7 551.235C814.452 549.646 811.515 548.949 809.553 549.014C808.25 549.03 806.999 549.533 806.049 550.424C804.997 551.322 803.782 551.981 802.354 551.747Z" fill="#7C5C5C"/>
<path opacity="0.1" d="M806.479 607.942L812.093 630.974C812.093 630.974 816.518 630.947 806.479 607.942Z" fill="black"/>
<path opacity="0.1" d="M825.657 604.093C825.657 604.093 818.311 616.113 821.177 628.546L822.545 628.644C822.545 628.644 820.104 622.89 825.657 604.093Z" fill="black"/>
<path opacity="0.1" d="M830.295 672.123C830.295 672.123 839.32 669.14 839.974 676.059C839.995 676.059 838.295 671.318 830.295 672.123Z" fill="black"/>
<path opacity="0.1" d="M804.24 632.379C804.24 632.379 802.447 644.899 805.673 649.924C805.673 649.924 799.133 652.608 789.901 652.074L788.812 632.379H804.24Z" fill="black"/>
<path opacity="0.1" d="M805.466 648.514L804.6 648.998L799.041 636.478L804.24 631.824H804.507C804.425 632.444 802.976 643.206 805.466 648.514Z" fill="black"/>
<path d="M804.24 631.845C804.24 631.845 802.447 644.366 805.673 649.385C805.673 649.385 799.133 652.074 789.902 651.535L783.629 631.845H804.24Z" fill="#F9813A"/>
<path d="M788.741 840.927C788.637 841.82 788.238 842.654 787.608 843.297C786.977 843.939 786.151 844.354 785.258 844.476C780.392 845.2 768.67 847.051 765.71 848.461C761.945 850.252 747.073 849.005 746.353 847.209C746.249 846.847 746.219 846.468 746.263 846.094C746.307 845.721 746.424 845.359 746.609 845.031C747.12 843.941 747.96 843.038 749.013 842.451C749.36 842.258 749.725 842.097 750.103 841.972C752.904 841.041 758.195 839.06 759.623 836.98C759.623 836.98 766.223 831.215 768.103 828.101C768.456 827.489 768.955 826.972 769.556 826.598C770.157 826.224 770.841 826.004 771.547 825.957C773.117 825.886 774.866 826.675 775.585 830.11C775.585 830.11 784.179 835.009 786.485 830.714C786.485 830.714 786.844 837.312 788.272 839.119C788.467 839.374 788.61 839.665 788.69 839.976C788.771 840.286 788.788 840.61 788.741 840.927Z" fill="#A27772"/>
<path opacity="0.1" d="M788.741 840.927C788.637 841.82 788.238 842.654 787.608 843.297C786.977 843.939 786.151 844.354 785.259 844.476C780.392 845.2 768.67 847.051 765.711 848.461C761.945 850.252 747.073 849.005 746.353 847.209C746.249 846.847 746.219 846.468 746.263 846.094C746.307 845.721 746.424 845.359 746.609 845.031C747.12 843.941 747.96 843.038 749.013 842.451C751.438 844.084 756.822 845.63 768.664 843.785C779.961 842.021 785.558 840.295 788.283 839.12C788.476 839.375 788.617 839.666 788.695 839.977C788.774 840.287 788.789 840.61 788.741 840.927Z" fill="black"/>
<g opacity="0.1">
<path opacity="0.1" d="M837.641 548.187V548.099C837.897 546.76 838.284 545.378 838.186 544.033C838.072 545.132 837.89 546.223 837.641 547.299C837.574 547.591 837.574 547.895 837.641 548.187Z" fill="black"/>
<path opacity="0.1" d="M827.183 564.942C827.468 565.587 827.618 566.284 827.625 566.989C827.705 566.017 827.554 565.039 827.183 564.137C826.682 563.048 825.499 562.226 824.344 562.504C822.807 562.863 822.164 564.855 820.643 565.334C819.379 565.737 817.995 564.839 817.374 563.658C816.752 562.476 816.752 561.088 816.752 559.76C816.752 558.263 816.752 556.771 816.752 555.274C816.752 553.641 816.698 551.888 815.695 550.609C814.442 549.014 811.51 548.323 809.548 548.383C808.242 548.399 806.99 548.904 806.038 549.798C804.987 550.691 803.777 551.344 802.343 551.11C801.749 551.019 801.192 550.763 800.737 550.37C800.282 549.977 799.947 549.463 799.771 548.889C799.624 548.312 799.662 547.691 799.493 547.12C799.074 545.715 797.569 544.98 796.561 543.913C795.616 542.866 795.08 541.513 795.052 540.103C794.977 540.93 795.073 541.764 795.333 542.553C795.592 543.342 796.01 544.07 796.561 544.692C797.569 545.781 799.074 546.494 799.493 547.898C799.662 548.442 799.624 549.09 799.771 549.667C799.947 550.242 800.282 550.755 800.737 551.148C801.192 551.541 801.749 551.798 802.343 551.888C803.777 552.122 804.987 551.469 806.038 550.576C806.99 549.683 808.242 549.178 809.548 549.161C811.51 549.101 814.453 549.793 815.695 551.388C816.698 552.667 816.747 554.425 816.752 556.053C816.752 557.55 816.752 559.041 816.752 560.538C816.752 561.867 816.752 563.26 817.374 564.431C817.995 565.601 819.363 566.516 820.643 566.113C822.148 565.634 822.823 563.641 824.344 563.282C825.499 563.032 826.682 563.892 827.183 564.942Z" fill="black"/>
<path opacity="0.1" d="M841.913 560.016C841.585 560.935 841.065 561.773 840.388 562.476L834.469 569.58C831.979 572.569 829.346 576.031 829.564 579.847C829.744 576.347 832.186 573.162 834.469 570.386L840.388 563.282C841.065 562.579 841.585 561.74 841.913 560.821C842.062 560.178 842.115 559.515 842.071 558.856C842.063 559.247 842.01 559.636 841.913 560.016Z" fill="black"/>
<path opacity="0.1" d="M826.48 578.65C826.383 578.338 826.322 578.017 826.3 577.691C826.25 578.285 826.311 578.883 826.48 579.455C826.883 580.751 828.36 581.823 829.608 581.268C829.573 581.008 829.551 580.746 829.542 580.484C828.3 580.979 826.861 579.923 826.48 578.65Z" fill="black"/>
</g>
<path opacity="0.1" d="M766.909 829.74C766.909 829.74 768.784 833.006 775.574 830.132L766.909 829.74Z" fill="black"/>
<path opacity="0.1" d="M824.3 830.535C824.3 830.535 830.153 837.421 837.532 832.794L824.3 830.535Z" fill="black"/>
<path opacity="0.1" d="M841.336 749.103C841.336 749.103 837.2 751.683 837.069 753.158C836.938 754.633 839.205 752.069 839.205 752.069L841.336 749.103Z" fill="black"/>
<path opacity="0.1" d="M842.971 768.896C841.532 770.091 839.744 770.789 837.875 770.883C834.78 771.019 835.042 775.047 837.063 773.839C839.085 772.63 842.971 768.896 842.971 768.896Z" fill="black"/>
<path opacity="0.1" d="M843.755 771.482C843.755 771.482 841.771 781.22 840.158 779.342L843.755 771.482Z" fill="black"/>
<path d="M500.294 668.743L500.251 670.73L499.804 668.83L500.294 668.743Z" fill="#FDC2CC"/>
<path opacity="0.05" d="M534.623 729.063L534.58 731.05L534.133 729.15L534.623 729.063Z" fill="black"/>
<path d="M549.218 688.417C547.082 688.423 545.02 687.635 543.43 686.208C542.541 685.414 541.823 684.448 541.321 683.367C540.818 682.286 540.542 681.114 540.509 679.922L506.492 655.18C505.465 654.434 504.613 653.473 503.993 652.366C503.374 651.258 503.001 650.029 502.902 648.764C502.803 647.499 502.979 646.227 503.418 645.036C503.858 643.845 504.55 642.764 505.447 641.867L530.773 616.539C531.817 615.495 533.146 614.784 534.594 614.496C536.041 614.208 537.542 614.356 538.905 614.921C540.269 615.486 541.434 616.442 542.254 617.669C543.074 618.897 543.512 620.34 543.512 621.816C543.305 625.687 541.779 629.372 539.187 632.256L521.992 649.454L548.981 670.969C549.064 670.963 549.147 670.959 549.232 670.959C551.46 670.959 553.604 671.811 555.225 673.341C556.845 674.871 557.819 676.962 557.947 679.187C558.075 681.412 557.347 683.602 555.912 685.307C554.478 687.013 552.445 688.105 550.232 688.36C549.895 688.398 549.557 688.416 549.218 688.417Z" fill="#FFB8B8"/>
<path d="M589.641 834.557L598.769 831.15L589.969 794.319L576.498 799.348L589.641 834.557Z" fill="#FFB8B8"/>
<path d="M619.536 833.054L590.849 843.764L586.711 832.68L604.707 825.961C607.542 824.902 610.682 825.014 613.436 826.27C616.189 827.527 618.331 829.826 619.389 832.661L619.536 833.054Z" fill="#2F2E41"/>
<path d="M507.525 836.229H517.268L521.903 798.645L507.523 798.646L507.525 836.229Z" fill="#FFB8B8"/>
<path d="M536.058 845.275L505.438 845.277L505.437 833.445L524.646 833.444C527.672 833.444 530.575 834.646 532.715 836.787C534.856 838.927 536.058 841.83 536.058 844.856L536.058 845.275Z" fill="#2F2E41"/>
<path d="M518.041 825.973C517.931 825.973 517.822 825.968 517.712 825.958L507.384 824.974C506.546 824.894 505.767 824.511 505.192 823.896C504.617 823.282 504.286 822.478 504.263 821.637C503.667 799.269 502.165 686.381 531.213 660.512C531.716 660.069 532.341 659.787 533.006 659.701V659.701C538.267 658.98 556.018 657.211 563.532 664.769C564.009 665.245 564.339 665.848 564.483 666.505L597.375 818.595C597.476 819.063 597.479 819.547 597.383 820.016C597.287 820.485 597.095 820.929 596.818 821.32C596.541 821.71 596.186 822.039 595.775 822.285C595.364 822.531 594.907 822.688 594.432 822.748L581.82 824.324C581.365 824.382 580.903 824.348 580.461 824.224C580.019 824.1 579.606 823.889 579.246 823.604C578.887 823.318 578.588 822.964 578.367 822.561C578.147 822.159 578.009 821.716 577.962 821.259C576.707 809.034 569.167 746.935 543.899 724.922C543.557 724.622 543.145 724.412 542.701 724.312C542.257 724.212 541.795 724.226 541.357 724.351C540.928 724.47 540.537 724.696 540.22 725.008C539.902 725.32 539.67 725.708 539.544 726.135C534.867 741.442 519.74 793.614 521.478 822.317C521.507 822.787 521.44 823.257 521.28 823.699C521.121 824.141 520.872 824.546 520.55 824.889C520.228 825.231 519.839 825.504 519.408 825.691C518.976 825.877 518.511 825.973 518.041 825.973V825.973Z" fill="#2F2E41"/>
<path d="M537.917 598.281C548.315 598.281 556.745 589.851 556.745 579.452C556.745 569.053 548.315 560.623 537.917 560.623C527.519 560.623 519.089 569.053 519.089 579.452C519.089 589.851 527.519 598.281 537.917 598.281Z" fill="#FFB8B8"/>
<path d="M519.43 614.913C519.43 614.913 536.914 594.249 551.218 610.939C560.422 621.678 565.29 635.464 564.87 649.602L564.331 667.766L531.351 662.6L519.43 614.913Z" fill="#FF7E5F"/>
<path d="M565.375 654.954C565.238 654.954 565.101 654.951 564.963 654.945C563.554 654.887 562.175 654.523 560.92 653.88C559.665 653.236 558.565 652.328 557.695 651.218L536.296 623.931C535.385 622.77 534.839 621.364 534.727 619.893C534.615 618.421 534.942 616.949 535.666 615.663C536.39 614.377 537.48 613.335 538.796 612.668C540.113 612.001 541.598 611.74 543.063 611.917L546.076 612.281C548 612.619 549.75 613.605 551.036 615.075L567.916 636.6L592.513 612.385C592.518 612.302 592.523 612.219 592.534 612.135C592.739 610.431 593.443 608.826 594.556 607.519C595.669 606.213 597.143 605.263 598.793 604.79C600.443 604.317 602.195 604.341 603.832 604.859C605.468 605.376 606.916 606.365 607.993 607.701C609.07 609.037 609.73 610.662 609.889 612.371C610.049 614.08 609.701 615.798 608.889 617.31C608.077 618.823 606.837 620.062 605.324 620.873C603.812 621.685 602.094 622.032 600.385 621.872L572.518 651.841C571.606 652.823 570.501 653.607 569.271 654.142C568.042 654.678 566.716 654.954 565.375 654.954Z" fill="#FFB8B8"/>
<path d="M540.969 582.71L549.058 573.179C551.143 570.723 553.323 568.048 553.618 564.84C553.941 561.323 551.802 557.905 548.878 555.925C545.954 553.945 542.364 553.2 538.843 552.926C532.313 552.419 525.442 553.498 520.074 557.251C514.706 561.004 511.195 567.779 512.503 574.197C513.534 579.25 517.331 584.091 515.855 589.033C514.24 594.44 507.617 596.099 502.21 597.711C493.134 600.417 484.467 605.746 479.71 613.936C474.953 622.127 474.974 633.422 481.315 640.458C485.421 645.014 491.613 647.318 497.736 647.665C503.86 648.011 509.954 646.569 515.761 644.596C521.109 642.78 526.399 640.443 530.61 636.678C534.82 632.913 537.853 627.525 537.722 621.878C537.597 616.496 534.714 611.594 533.53 606.342C532.596 601.945 532.841 597.379 534.241 593.107C535.64 588.835 538.144 585.009 541.499 582.017" fill="#2F2E41"/>
</g>
<defs>
<filter id="filter0_b" x="225.073" y="185" width="890.182" height="969.435" filterUnits="userSpaceOnUse" color-interpolation-filters="sRGB">
<feFlood flood-opacity="0" result="BackgroundImageFix"/>
<feGaussianBlur in="BackgroundImage" stdDeviation="5"/>
<feComposite in2="SourceAlpha" operator="in" result="effect1_backgroundBlur"/>
<feBlend mode="normal" in="SourceGraphic" in2="effect1_backgroundBlur" result="shape"/>
</filter>
<linearGradient id="paint0_linear" x1="349.804" y1="342.609" x2="1199.92" y2="1043.39" gradientUnits="userSpaceOnUse">
<stop offset="0.0833333" stop-color="#FF9B21"/>
<stop offset="0.447917" stop-color="#FF9038"/>
<stop offset="0.9375" stop-color="#FF7E5F"/>
</linearGradient>
<linearGradient id="paint1_linear" x1="603.474" y1="797.671" x2="603.474" y2="475.9" gradientUnits="userSpaceOnUse">
<stop stop-color="#808080" stop-opacity="0.25"/>
<stop offset="0.54" stop-color="#808080" stop-opacity="0.12"/>
<stop offset="1" stop-color="#808080" stop-opacity="0.1"/>
</linearGradient>
<linearGradient id="paint2_linear" x1="75402.7" y1="260488" x2="75402.7" y2="57391.2" gradientUnits="userSpaceOnUse">
<stop stop-color="#808080" stop-opacity="0.25"/>
<stop offset="0.54" stop-color="#808080" stop-opacity="0.12"/>
<stop offset="1" stop-color="#808080" stop-opacity="0.1"/>
</linearGradient>
<linearGradient id="paint3_linear" x1="99850.3" y1="265172" x2="99850.3" y2="77219.1" gradientUnits="userSpaceOnUse">
<stop stop-color="#808080" stop-opacity="0.25"/>
<stop offset="0.54" stop-color="#808080" stop-opacity="0.12"/>
<stop offset="1" stop-color="#808080" stop-opacity="0.1"/>
</linearGradient>
<clipPath id="clip0">
<rect width="620" height="468" fill="white" transform="translate(341 411)"/>
</clipPath>
</defs>
</svg>
