<svg width="1113" height="1080" viewBox="0 0 1113 1080" fill="none" xmlns="http://www.w3.org/2000/svg">
<path fill-rule="evenodd" clip-rule="evenodd" d="M389.572 216.949C444.436 108.586 462.643 -67.4222 584.053 -80.4116C711.742 -94.0728 751.521 117.609 871.415 165.397C991.188 213.137 1172.47 78.6817 1247.1 183.869C1320.23 286.927 1143.69 406.465 1131 531.238C1119.32 646.007 1227 762.691 1177.63 866.577C1126.72 973.71 1000.12 1026.52 883.714 1051.59C769.872 1076.1 650.583 1053.73 544.987 1002.79C444.686 954.412 357.703 876.426 311.219 775.429C268.201 681.964 288.235 577.045 302.438 475.811C315.428 383.226 347.455 300.135 389.572 216.949Z" fill="url(#paint0_linear)"/>
<g filter="url(#filter0_b)">
<path fill-rule="evenodd" clip-rule="evenodd" d="M369.313 650.044C348.204 567.036 406.551 499.854 426.912 422.376C445.167 352.914 441.446 273.026 482.318 220.033C527.533 161.41 590.364 114.233 662.739 116.615C734.713 118.985 803.91 172.105 859.593 232.453C909.131 286.142 916.695 366.312 953.422 431.655C1003 519.855 1120.98 583.48 1111.47 680.583C1102.22 775.044 982.108 775.091 914.972 824.164C855.685 867.499 815.175 948.244 741.486 951.025C666.817 953.843 597.931 891.294 532.757 838.587C468.304 786.464 390.835 734.678 369.313 650.044Z" fill="white" fill-opacity="0.3"/>
</g>
<g clip-path="url(#clip0)">
<path opacity="0.1" d="M719.044 695.439C741.687 695.439 760.042 691.322 760.042 686.244C760.042 681.167 741.687 677.05 719.044 677.05C696.402 677.05 678.046 681.167 678.046 686.244C678.046 691.322 696.402 695.439 719.044 695.439Z" fill="#6C63FF"/>
<path opacity="0.1" d="M814.31 721.509C855.159 721.509 888.273 718.794 888.273 715.445C888.273 712.095 855.159 709.38 814.31 709.38C773.462 709.38 740.347 712.095 740.347 715.445C740.347 718.794 773.462 721.509 814.31 721.509Z" fill="#6C63FF"/>
<path opacity="0.1" d="M570.359 716.549C611.208 716.549 644.322 712.432 644.322 707.354C644.322 702.276 611.208 698.16 570.359 698.16C529.51 698.16 496.396 702.276 496.396 707.354C496.396 712.432 529.51 716.549 570.359 716.549Z" fill="#6C63FF"/>
<path opacity="0.1" d="M630.111 669.418C660.847 669.418 685.763 665.302 685.763 660.224C685.763 655.146 660.847 651.029 630.111 651.029C599.375 651.029 574.459 655.146 574.459 660.224C574.459 665.302 599.375 669.418 630.111 669.418Z" fill="#6C63FF"/>
<path d="M671.698 441.491C670.521 433.575 663.322 415.105 663.322 415.105C663.196 414.561 663.055 414.016 662.897 413.472C657.79 395.943 650.722 394.419 650.722 394.419L625.403 388.975C625.615 389.108 625.8 389.279 625.948 389.481C625.814 389.494 625.681 389.514 625.55 389.541C624.391 388.174 623.624 386.519 623.332 384.751C623.283 384.49 623.239 384.206 623.207 383.94C625.025 382.169 626.443 380.031 627.367 377.668C628.29 375.304 628.696 372.772 628.559 370.239C628.422 367.706 627.744 365.231 626.571 362.982C625.397 360.732 623.756 358.759 621.757 357.195C621.49 356.988 621.212 356.787 620.945 356.596C622.138 355.328 622.177 353.564 621.283 351.8C619.288 347.663 614.95 345.045 610.492 343.765C607.086 342.791 603.408 342.475 600.018 343.542C598.094 344.152 596.34 345.175 594.536 346.084C591.173 347.761 587.451 349.089 584.939 351.849C584.35 352.492 583.805 353.314 583.98 354.163C584.11 354.794 584.612 355.284 584.933 355.845C585.658 357.102 585.478 358.686 584.982 360.058C584.487 361.43 583.762 362.704 583.418 364.108C583.075 365.513 583.206 367.168 584.263 368.175C584.77 368.566 585.298 368.929 585.843 369.264C586.422 369.756 586.93 370.326 587.353 370.957C588.356 372.299 589.355 373.648 590.35 375.001C591.756 376.795 593.012 378.702 594.105 380.701C594.852 382.171 595.429 383.738 596.427 385.056C596.719 385.44 597.054 385.791 597.424 386.101L597.13 385.987C597.563 386.427 598.082 386.775 598.655 387.008C599.227 387.241 599.841 387.355 600.46 387.342C600.514 387.342 600.563 387.342 600.612 387.342C600.84 387.337 601.057 387.248 601.222 387.092C601.222 387.277 601.222 387.462 601.222 387.636C601.282 389.579 601.272 391.648 601.135 393.591L600.901 393.472C600.553 393.299 600.164 393.229 599.778 393.269C599.392 393.31 599.025 393.459 598.721 393.7L575.413 412.383C575.413 412.383 570.345 419.307 571.053 431.262L566.966 449.188C566.966 449.188 561.859 464.398 565.789 475.258C569.718 486.118 571.996 492.329 571.996 492.329C571.996 492.329 573.565 504.67 575.925 505.677C578.285 506.684 579.304 507.229 579.304 507.229L579.773 510.179C579.773 510.179 579.931 510.468 580.208 510.952C581.925 513.935 588.285 524.463 591.98 523.336C592.445 526.195 592.646 529.091 592.579 531.987L596.236 556.51C596.236 556.51 598.786 563.179 598.628 566.674C598.47 570.169 601.604 575.15 601.604 575.15C599.7 578.631 599.142 582.689 600.034 586.554C601.528 593.087 603.413 623.179 603.413 623.179L606.138 630.474L606.062 639.026C605.838 640.421 605.256 641.734 604.372 642.837C602.607 644.753 602.738 646.968 598.481 649.587C594.225 652.205 591.528 653.196 591.528 656.663C591.522 657.147 591.479 657.629 591.397 658.106C591.004 660.654 590.241 662.036 598.067 662.777C607.261 663.648 613.392 657.66 613.392 657.66C613.392 657.66 614.743 655.21 621.108 654.219C621.108 654.219 623.288 654.105 623.403 652.183C623.446 651.519 623.435 650.251 623.403 648.852C623.299 646.19 623.043 643.081 622.705 642.929C622.28 642.739 621.539 640.06 621.283 639.091H623.054C623.054 639.091 624.689 626.75 623.054 618.759C621.419 610.768 622.896 605.101 622.896 605.101L622.58 583.996C622.58 583.996 620.4 581.666 622.111 577.55C623.822 573.435 622.111 553.108 622.111 553.108C622.111 553.108 622.743 545.814 624.547 544.104C626.351 542.395 624.634 533.418 624.547 532.95L627.762 543.723C627.762 543.723 629.174 565.139 632.166 569.015L633.027 578.715C633.027 578.715 639.152 587.643 637.975 592.45C636.798 597.256 639.234 614.644 639.234 614.644V632.417C639.234 632.417 636.482 639.554 640.324 642.118L641.959 642.053C641.414 642.559 640.994 643.321 640.357 643.98C639.621 644.736 639.201 647.616 638.967 650.093C638.771 652.189 638.705 653.991 638.705 653.991C638.705 653.991 640.34 656.604 643.419 656.783C646.498 656.963 656.646 664.671 656.646 664.671C656.646 664.671 666.668 664.671 669.262 664.127L669.414 664.089C670.247 663.827 670.947 663.256 671.371 662.494C671.89 661.609 672.058 660.562 671.84 659.56C671.518 658.03 670.303 656.353 667.611 654.927C660.913 651.399 659.916 648.095 659.916 648.095L655.518 641.503H656.144C656.144 641.503 655.758 634.519 660.542 626.68L660.232 592.15C660.232 592.15 662.194 580.278 658.82 573.832C658.82 573.832 658.542 567.006 660.798 564.91C663.055 562.814 657.796 541.633 657.796 541.633C657.796 541.633 656.706 530.261 655.425 519.885C660.728 524.91 666.226 506.82 667.153 503.603H667.289L667.229 503.369C667.267 503.217 667.289 503.14 667.289 503.14C667.289 503.14 666.112 498.96 666.973 499.809C667.834 500.658 669.959 497.479 669.959 497.479C669.959 497.479 669.643 480.173 673.338 471.453C677.033 462.732 671.698 441.491 671.698 441.491ZM655.894 452.503L655.921 452.454C656.466 463.02 655.817 485.568 655.817 485.568C655.817 485.568 655.087 488.459 654.308 491.861L653.763 470.44L653.218 450.26L655.894 452.503ZM588.258 445.219C588.258 445.219 590.928 478.584 588.258 483.396C587.5 484.768 586.863 487.207 586.334 489.988C585.451 487.675 583.582 482.242 584.252 479.362C585.119 475.639 582.525 465.857 582.525 465.628C582.525 465.399 582.29 460.184 584.16 456.199C586.029 452.215 584.803 450.489 584.803 450.489C584.803 450.489 586.372 443.957 588.258 445.219Z" fill="url(#paint1_linear)"/>
<path d="M594.765 520.364C592.438 530.582 583.184 515.133 581.075 511.426C580.802 510.941 580.65 510.658 580.65 510.658L581.653 505.96L586.955 503.783C587.795 504.221 588.591 504.739 589.331 505.329C592.236 507.61 596.558 512.449 594.765 520.364Z" fill="#FBBEBE"/>
<path d="M666.553 503.647C666.553 503.647 666.553 503.723 666.493 503.875C666.493 503.941 666.45 504.028 666.422 504.12C665.512 507.31 660.117 525.269 654.907 520.283C649.207 514.839 651.975 502.253 651.975 502.253H652.013L664.003 501.028L666.379 503.467L666.553 503.647Z" fill="#FBBEBE"/>
<path d="M659.616 592.025L659.921 626.32C655.218 634.105 655.605 641.018 655.605 641.018L640.106 641.628C636.324 639.086 639.016 632.004 639.016 632.004V614.344C639.016 614.344 636.624 597.093 637.779 592.314C638.934 587.534 632.923 578.704 632.923 578.704L632.073 569.074C629.141 565.226 627.751 543.968 627.751 543.968L624.607 533.233C624.694 533.696 626.329 542.656 624.607 544.306C622.885 545.955 622.215 553.239 622.215 553.239C622.215 553.239 623.909 573.424 622.215 577.501C620.52 581.579 622.672 583.898 622.672 583.898L622.983 604.85C622.983 604.85 621.517 610.474 623.136 618.405C624.754 626.337 623.136 638.59 623.136 638.59H606.509L606.585 630.038L603.893 622.798C603.893 622.798 602.04 592.912 600.574 586.44C599.696 582.604 600.242 578.581 602.111 575.117C602.111 575.117 599.032 570.19 599.184 566.723C599.337 563.255 596.808 556.641 596.808 556.641L593.222 532.302C593.321 527.618 592.722 522.945 591.446 518.437C589.364 511.502 586.279 502.411 586.279 502.411L589.762 502.721L607.331 504.284C607.331 504.284 650.052 501.415 651.964 503.799C652.368 504.579 652.64 505.419 652.771 506.287C654.689 514.893 657.223 541.856 657.223 541.856C657.223 541.856 662.39 562.885 660.172 564.964C657.954 567.044 658.226 573.816 658.226 573.816C661.55 580.212 659.616 592.025 659.616 592.025Z" fill="#444053"/>
<path d="M623.5 651.595C623.381 653.506 621.25 653.62 621.25 653.62C615.004 654.6 613.675 657.028 613.675 657.028C613.675 657.028 607.68 662.978 598.639 662.113C590.955 661.372 591.702 660.006 592.099 657.475C592.177 657.003 592.219 656.526 592.225 656.048C592.225 652.581 594.884 651.595 599.048 648.972C603.211 646.348 603.097 644.176 604.83 642.27C606.563 640.365 606.743 636.669 606.743 636.669C608.705 633.256 613.68 637.213 613.68 637.213C613.914 638.422 621.31 638.253 621.31 638.253C621.31 638.253 622.291 642.183 622.797 642.412C623.13 642.564 623.381 645.645 623.479 648.291C623.533 649.679 623.544 650.937 623.5 651.595Z" fill="#B07473"/>
<path opacity="0.1" d="M623.5 651.595C623.381 653.506 621.25 653.62 621.25 653.62C615.004 654.6 613.675 657.028 613.675 657.028C613.675 657.028 607.68 662.978 598.639 662.113C590.955 661.372 591.702 660.006 592.099 657.475C595.533 658.324 602.094 659.511 605.925 657.431C611.25 654.546 615.07 652.532 615.07 652.532L623.484 648.302C623.533 649.679 623.544 650.937 623.5 651.595Z" fill="black"/>
<path d="M670.57 661.879C670.16 662.635 669.472 663.203 668.651 663.463L668.504 663.501C665.959 664.045 656.123 664.045 656.123 664.045C656.123 664.045 646.177 656.364 643.169 656.19C640.161 656.016 638.542 653.414 638.542 653.414C638.542 653.414 638.602 651.628 638.793 649.549C639.027 647.088 639.436 644.23 640.161 643.479C641.49 642.091 641.795 640.213 644.787 641.399C644.787 641.399 649.06 633.876 654.095 639.69L659.305 647.583C659.305 647.583 660.286 650.85 666.886 654.394C669.523 655.809 670.701 657.475 671.033 658.993C671.243 659.979 671.078 661.008 670.57 661.879Z" fill="#B07473"/>
<path opacity="0.1" d="M670.57 661.879C669.981 662.374 669.333 662.907 668.651 663.463L668.504 663.501C665.959 664.045 656.123 664.045 656.123 664.045C656.123 664.045 646.177 656.364 643.169 656.19C640.161 656.016 638.542 653.414 638.542 653.414C638.542 653.414 638.602 651.628 638.793 649.549C641.855 650.463 646.493 652.08 647.736 653.822C649.643 656.473 655.436 660.175 655.436 660.175C655.436 660.175 666.237 659.135 671.033 658.993C671.243 659.979 671.078 661.008 670.57 661.879Z" fill="black"/>
<path d="M628.536 393.074L614.313 408.093C614.313 408.093 597.075 406.825 600.083 401.741C601.615 399.149 601.855 393.728 601.718 389.013C601.593 384.468 601.124 380.597 601.124 380.597C601.124 380.597 625.299 368.578 623.468 379.786C623.074 381.898 623.051 384.063 623.403 386.183C624.433 391.844 628.536 393.074 628.536 393.074Z" fill="#FBBEBE"/>
<path opacity="0.1" d="M623.446 379.786C623.051 381.898 623.029 384.063 623.381 386.183C621.727 387.856 619.757 389.185 617.584 390.09C615.412 390.996 613.08 391.461 610.726 391.458C607.457 391.458 603.92 388.774 601.277 387.222C601.151 382.671 601.124 380.597 601.124 380.597C601.124 380.597 625.299 368.578 623.446 379.786Z" fill="black"/>
<path d="M628.536 372.737C628.538 376.769 627.168 380.681 624.653 383.834C622.137 386.987 618.624 389.194 614.689 390.091C610.754 390.989 606.63 390.526 602.993 388.777C599.356 387.028 596.422 384.097 594.671 380.464C592.919 376.832 592.455 372.713 593.353 368.782C594.252 364.851 596.46 361.342 599.616 358.828C602.772 356.315 606.689 354.947 610.725 354.948C614.762 354.948 618.678 356.319 621.833 358.833C623.924 360.5 625.612 362.615 626.772 365.022C627.932 367.428 628.535 370.065 628.536 372.737Z" fill="#FBBEBE"/>
<path opacity="0.1" d="M652.771 506.287C648.335 516.831 619.8 517.049 619.8 517.049V505.552L618.072 505.438C618.819 508.731 617.026 516.76 617.026 516.76C594.475 519.94 588.977 507.103 588.977 507.103L589.761 502.71L607.331 504.273C607.331 504.273 650.051 501.404 651.964 503.788C652.369 504.571 652.641 505.415 652.771 506.287V506.287Z" fill="black"/>
<path d="M619.8 515.661V504.164L618.072 504.055C618.819 507.321 617.026 515.378 617.026 515.378C600.056 517.768 592.742 511.094 590.165 507.642C589.701 507.048 589.303 506.405 588.977 505.726L595.865 467.021L597.5 410.059L599.969 400.064L600.541 395.268V395.214H600.601L602.356 395.965L612.857 400.499L624.786 391.501L624.961 391.376L625.555 390.924L626.541 391.713L628.994 393.679L636.858 444.408C636.858 444.408 650.482 483.467 653.032 499.232C653.136 499.863 653.218 500.451 653.283 501.001C654.967 515.394 619.8 515.661 619.8 515.661Z" fill="#FF9B21"/>
<path d="M614.133 402.633C614.693 402.633 615.146 402.18 615.146 401.621C615.146 401.062 614.693 400.608 614.133 400.608C613.573 400.608 613.119 401.062 613.119 401.621C613.119 402.18 613.573 402.633 614.133 402.633Z" fill="#67647E"/>
<path d="M614.601 411.877C615.161 411.877 615.615 411.423 615.615 410.864C615.615 410.305 615.161 409.852 614.601 409.852C614.041 409.852 613.587 410.305 613.587 410.864C613.587 411.423 614.041 411.877 614.601 411.877Z" fill="#67647E"/>
<path d="M615.615 426.842C616.175 426.842 616.628 426.388 616.628 425.829C616.628 425.27 616.175 424.816 615.615 424.816C615.055 424.816 614.601 425.27 614.601 425.829C614.601 426.388 615.055 426.842 615.615 426.842Z" fill="#67647E"/>
<path d="M617.288 442.96C617.848 442.96 618.302 442.507 618.302 441.948C618.302 441.389 617.848 440.935 617.288 440.935C616.728 440.935 616.274 441.389 616.274 441.948C616.274 442.507 616.728 442.96 617.288 442.96Z" fill="#67647E"/>
<path d="M618.302 458.094C618.862 458.094 619.315 457.64 619.315 457.081C619.315 456.522 618.862 456.069 618.302 456.069C617.742 456.069 617.288 456.522 617.288 457.081C617.288 457.64 617.742 458.094 618.302 458.094Z" fill="#67647E"/>
<path d="M619.315 474.213C619.875 474.213 620.329 473.759 620.329 473.2C620.329 472.641 619.875 472.188 619.315 472.188C618.756 472.188 618.302 472.641 618.302 473.2C618.302 473.759 618.756 474.213 619.315 474.213Z" fill="#67647E"/>
<path d="M618.912 490.157C619.472 490.157 619.926 489.704 619.926 489.145C619.926 488.585 619.472 488.132 618.912 488.132C618.352 488.132 617.898 488.585 617.898 489.145C617.898 489.704 618.352 490.157 618.912 490.157Z" fill="#67647E"/>
<path opacity="0.1" d="M601.217 472.65C601.217 472.65 600.083 487.473 598.001 491.785C595.92 496.096 594.993 508.192 594.993 508.192L590.159 507.648C589.696 507.053 589.297 506.411 588.971 505.732L595.86 467.027L597.494 410.064L599.969 400.064L600.541 395.268L600.606 395.241C600.876 395.113 601.172 395.05 601.47 395.054C601.769 395.059 602.063 395.132 602.328 395.268L602.557 395.388C602.488 395.584 602.423 395.785 602.361 395.992C600.475 401.888 599.772 412.753 599.772 412.753C599.772 412.753 602.497 432.628 602.781 441.872C603.064 451.115 601.217 472.65 601.217 472.65Z" fill="black"/>
<path opacity="0.1" d="M589.331 505.345C589.278 505.469 589.216 505.589 589.146 505.704C587.271 508.867 582.519 510.876 581.075 511.426C580.802 510.941 580.65 510.658 580.65 510.658L581.653 505.96L586.955 503.783C587.796 504.226 588.591 504.749 589.331 505.345V505.345Z" fill="black"/>
<path d="M576.486 429.699L572.088 432.318L568.083 450.113C568.083 450.113 563.069 465.209 566.922 475.993C570.775 486.777 573.015 492.95 573.015 492.95C573.015 492.95 574.557 505.198 576.873 506.2C579.189 507.201 580.187 507.74 580.187 507.74L580.65 510.669C580.65 510.669 586.928 508.541 589.146 504.79C591.364 501.039 587.511 491.725 587.511 491.725C587.511 491.725 584.198 483.788 585.048 480.092C585.898 476.395 583.347 466.689 583.347 466.483C583.347 466.276 583.119 461.088 584.982 457.119C586.846 453.151 585.604 451.458 585.604 451.458L584.443 440.135L576.486 429.699Z" fill="#F9813A"/>
<path opacity="0.1" d="M653.136 502.955C653.136 502.955 641.49 507.343 637.79 503.5C634.089 499.656 634.471 481.621 634.471 481.621C634.471 481.621 630.929 448.344 628.689 442.879C626.449 437.413 627.599 397.968 627.599 397.968C627.599 397.968 626.095 392.867 624.781 391.534C624.698 391.448 624.605 391.373 624.503 391.311L624.956 391.409L626.536 391.746L628.988 393.711L636.852 444.441C636.852 444.441 650.477 483.5 653.027 499.264L653.136 502.955Z" fill="black"/>
<path opacity="0.1" d="M666.553 504.109H666.423C664.957 504.3 652.019 505.862 651.965 503.173C651.962 502.862 651.979 502.551 652.014 502.242L664.003 501.017L666.379 503.456C666.423 503.614 666.455 503.75 666.488 503.859L666.553 504.109Z" fill="black"/>
<path d="M654.139 411.877L662.64 416.308C662.64 416.308 669.725 434.631 670.858 442.487C670.858 442.487 676.106 463.532 672.493 472.188C668.88 480.843 669.18 498.023 669.18 498.023C669.18 498.023 667.098 501.181 666.248 500.337C665.398 499.493 666.558 503.647 666.558 503.647C666.558 503.647 652.024 505.574 651.964 502.721C651.904 499.869 655.299 486.238 655.299 486.238C655.299 486.238 656.226 453.81 654.912 448.725C653.599 443.641 654.139 411.877 654.139 411.877Z" fill="#F9813A"/>
<path opacity="0.1" d="M628.77 446.417C628.77 446.417 623.986 458.121 622.443 458.894C620.901 459.667 622.754 462.743 622.754 462.743C622.754 462.743 631.468 450.576 628.77 446.417Z" fill="black"/>
<path opacity="0.1" d="M625.915 405.361C625.969 405.138 620.209 411.006 618.667 411.893C617.124 412.78 624.296 411.839 625.915 405.361Z" fill="black"/>
<path opacity="0.1" d="M609.876 445.492C609.876 445.492 601.086 451.169 602.247 453.418C603.408 455.666 609.876 445.492 609.876 445.492Z" fill="black"/>
<path opacity="0.1" d="M625.838 528.372C625.838 528.372 633.321 533.179 644.961 534.36L625.838 528.372Z" fill="black"/>
<path opacity="0.1" d="M607.871 539.929C607.871 539.929 614.809 548.639 617.975 548.862C621.141 549.085 607.871 539.929 607.871 539.929Z" fill="black"/>
<path opacity="0.1" d="M617.588 574.061C617.277 574.213 613.653 581.916 609.958 582.15C606.263 582.384 617.588 574.061 617.588 574.061Z" fill="black"/>
<path opacity="0.1" d="M649.741 590.936C649.741 590.936 656.618 589.396 658.15 594.322C658.15 594.306 657.686 592.765 649.741 590.936Z" fill="black"/>
<path opacity="0.1" d="M645.114 619.113C645.114 619.113 653.447 617.414 655.218 619.728C656.989 622.042 645.114 619.113 645.114 619.113Z" fill="black"/>
<path opacity="0.1" d="M621.544 623.054C621.544 623.13 613.064 624.753 613.369 625.83C613.675 626.908 622.416 626.756 622.726 625.057C622.782 624.848 622.796 624.63 622.766 624.416C622.737 624.201 622.665 623.995 622.555 623.809C622.445 623.622 622.299 623.46 622.125 623.33C621.952 623.2 621.754 623.107 621.544 623.054Z" fill="black"/>
<path opacity="0.1" d="M642.34 630.36C642.34 630.36 656.275 628.661 655.42 631.59C654.564 634.518 642.34 630.36 642.34 630.36Z" fill="black"/>
<path opacity="0.1" d="M569.391 458.894C569.467 459.123 578.568 460.358 579.8 463.287C579.8 463.287 570.857 459.123 569.445 459.123" fill="black"/>
<path opacity="0.1" d="M582.192 482.694C582.192 482.694 574.633 485.084 575.173 488.682C575.712 492.28 574.404 487.016 582.192 482.694Z" fill="black"/>
<path opacity="0.1" d="M578.671 501.028C578.671 501.028 581.423 497.256 584.045 497.947C586.666 498.638 578.671 501.028 578.671 501.028Z" fill="black"/>
<path opacity="0.1" d="M621.833 358.833C621.568 359.09 621.271 359.311 620.95 359.492C618.77 360.761 618.171 362.715 617.135 364.969C616.171 367.032 615.108 369.215 613.162 370.385C610.65 371.898 607.342 371.343 604.732 372.66C603.573 373.263 602.621 374.199 602 375.346C601.378 376.494 601.115 377.802 601.244 379.1C601.41 380.102 601.658 381.089 601.985 382.051C602.579 384.133 602.847 386.294 602.781 388.458C602.786 388.521 602.786 388.585 602.781 388.649C600.547 387.534 598.574 385.963 596.987 384.037C595.401 382.111 594.238 379.873 593.574 377.469C592.909 375.065 592.758 372.549 593.13 370.083C593.502 367.617 594.389 365.256 595.734 363.155C597.078 361.053 598.85 359.258 600.934 357.884C603.018 356.511 605.368 355.591 607.831 355.183C610.294 354.776 612.815 354.89 615.231 355.519C617.647 356.148 619.904 357.277 621.855 358.833H621.833Z" fill="black"/>
<path d="M621.37 353.477C619.413 349.372 615.157 346.77 610.781 345.502C607.44 344.538 603.811 344.223 600.497 345.284C598.606 345.883 596.89 346.917 595.119 347.805C591.816 349.47 588.187 350.788 585.701 353.526C585.118 354.163 584.612 354.979 584.759 355.823C584.884 356.449 585.374 356.912 585.691 357.489C586.404 358.741 586.236 360.314 585.74 361.675C585.244 363.036 584.541 364.299 584.203 365.698C583.865 367.097 583.996 368.736 585.031 369.732C585.494 370.173 586.088 370.45 586.59 370.82C587.156 371.309 587.653 371.874 588.067 372.497L591.009 376.515C592.392 378.295 593.624 380.187 594.693 382.171C595.424 383.629 595.99 385.186 596.971 386.487C597.952 387.788 599.478 388.834 601.102 388.692C601.228 388.695 601.353 388.669 601.466 388.615C601.58 388.561 601.679 388.481 601.756 388.382C601.817 388.254 601.845 388.114 601.838 387.974C601.91 385.818 601.647 383.664 601.059 381.588C600.731 380.627 600.483 379.64 600.318 378.638C600.192 377.339 600.457 376.033 601.078 374.886C601.699 373.739 602.649 372.803 603.805 372.198C606.421 370.88 609.729 371.436 612.236 369.928C614.187 368.752 615.25 366.569 616.209 364.484C617.261 362.23 617.844 360.276 620.024 359.008C622.203 357.739 622.454 355.638 621.37 353.477Z" fill="#585268"/>
<path opacity="0.1" d="M613.392 644.317C613.392 644.317 616.116 647.785 615.408 649.761C614.7 651.737 613.392 644.317 613.392 644.317Z" fill="black"/>
<path opacity="0.1" d="M650.259 652.994C650.259 652.994 650.864 648.346 653.289 648.302C655.714 648.258 655.834 648.052 657.687 648.765C659.54 649.478 661.278 650.583 660.722 650.746C660.166 650.909 657.534 648.09 654.831 649.532C653.144 650.454 651.603 651.621 650.259 652.994V652.994Z" fill="black"/>
<path opacity="0.1" d="M605.261 406.33L612.89 400.989C612.89 400.989 601.729 394.403 600.4 395.328C599.07 396.253 598.154 404.582 598.154 404.582L605.261 406.33Z" fill="black"/>
<path d="M605.228 405.987L612.858 400.543C612.858 400.543 601.697 393.956 600.367 394.882C599.037 395.807 598.122 404.593 598.122 404.593L605.228 405.987Z" fill="#E1E7EF"/>
<path d="M605.228 405.987L612.858 400.543C612.858 400.543 601.697 393.956 600.367 394.882C599.037 395.807 598.122 404.593 598.122 404.593L605.228 405.987Z" fill="#FF9B21"/>
<path d="M601.631 394.925L601.402 394.811C601.061 394.637 600.678 394.566 600.298 394.606C599.918 394.645 599.557 394.794 599.26 395.034L576.371 413.581C576.371 413.581 571.396 420.456 572.088 432.318L585.587 451.42C585.587 451.42 587.129 444.953 588.977 446.183C588.977 446.183 591.598 479.308 588.977 484.082C586.355 488.856 585.2 506.728 585.2 506.728L594.067 507.729C594.067 507.729 594.993 495.634 597.075 491.322C599.157 487.011 600.29 472.188 600.29 472.188C600.29 472.188 602.165 450.652 601.854 441.409C601.544 432.165 598.846 412.291 598.846 412.291C598.846 412.291 599.603 400.641 601.631 394.925Z" fill="#F9813A"/>
<path opacity="0.1" d="M624.433 402.955L614.923 399.438C614.923 399.438 627.032 386.188 628.547 393.537L624.433 402.955Z" fill="black"/>
<path d="M624.433 402.492L614.923 398.975C614.923 398.975 627.032 385.725 628.547 393.074L624.433 402.492Z" fill="#E1E7EF"/>
<path d="M624.433 402.492L614.923 398.975C614.923 398.975 627.032 385.725 628.547 393.074L624.433 402.492Z" fill="#FF9B21"/>
<path opacity="0.1" d="M624.122 391.218C624.259 391.196 624.399 391.227 624.514 391.305L624.122 391.218Z" fill="black"/>
<path d="M625.038 390.298L650.27 395.742C650.27 395.742 657.213 397.282 662.226 414.691C667.24 432.1 655.36 453.429 655.36 453.429L652.738 451.202L654.052 502.041C654.052 502.041 642.406 506.428 638.705 502.585C635.005 498.742 635.392 480.691 635.392 480.691C635.392 480.691 631.844 447.419 629.604 441.948C627.365 436.477 628.514 397.043 628.514 397.043C628.514 397.043 626.455 389.993 625.038 390.298Z" fill="#F9813A"/>
<path opacity="0.1" d="M648.122 422.693C647.768 423.02 647.354 438.404 648.896 450.113C649.839 457.244 651.296 464.297 653.256 471.219L650.967 424.31C650.967 424.31 649.201 421.692 648.122 422.693Z" fill="black"/>
<path opacity="0.1" d="M645.038 409.443C645.653 409.83 648.356 416.221 647.119 418.839C645.882 421.458 645.038 409.443 645.038 409.443Z" fill="black"/>
<path opacity="0.1" d="M621.222 353.477C619.984 351.04 618.054 349.022 615.675 347.674C617.444 348.939 618.872 350.623 619.833 352.573C620.923 354.751 620.601 356.928 618.481 358.12C616.361 359.312 615.702 361.343 614.666 363.597C613.702 365.66 612.639 367.843 610.688 369.04C608.181 370.554 604.873 369.993 602.258 371.31C601.102 371.918 600.153 372.855 599.532 374.003C598.911 375.151 598.645 376.457 598.77 377.756C598.937 378.756 599.187 379.741 599.516 380.701C600.11 382.783 600.378 384.944 600.312 387.108C600.317 387.249 600.287 387.389 600.225 387.516C600.15 387.616 600.051 387.697 599.938 387.751C599.826 387.805 599.701 387.831 599.576 387.827C598.922 387.877 598.266 387.755 597.674 387.473C598.103 387.898 598.614 388.23 599.177 388.45C599.739 388.67 600.341 388.773 600.944 388.752C601.042 388.766 601.143 388.758 601.237 388.727C601.331 388.696 601.417 388.644 601.488 388.574C601.559 388.504 601.612 388.419 601.645 388.326C601.677 388.232 601.687 388.132 601.674 388.033C601.745 385.87 601.478 383.708 600.884 381.626C600.552 380.666 600.302 379.679 600.138 378.676C600.012 377.378 600.277 376.072 600.898 374.924C601.52 373.777 602.469 372.841 603.625 372.236C606.241 370.918 609.549 371.474 612.056 369.966C614.007 368.79 615.07 366.607 616.029 364.522C617.081 362.268 617.664 360.314 619.844 359.046C622.024 357.777 622.312 355.638 621.222 353.477Z" fill="black"/>
<path d="M776.468 421.839C768.958 421.692 762.332 416.395 758.577 409.923C757.592 408.382 756.973 406.638 756.767 404.822C756.793 404.409 756.863 404 756.975 403.602C757.204 402.995 757.386 402.371 757.52 401.735C757.549 401.482 757.549 401.226 757.52 400.973C757.52 400.973 757.52 400.973 757.52 400.93C757.699 399.552 756.887 398.208 755.885 397.266C754.882 396.324 753.623 395.633 752.577 394.697C749.35 391.866 748.369 387.326 748.31 383.003V382.775C748.348 380.924 748.495 379.068 748.478 377.217C748.504 376.166 748.458 375.115 748.342 374.07C748.032 371.452 747.034 368.785 744.974 367.113C739.601 362.758 730.565 367.293 725.001 363.178C723.65 362.17 722.554 360.684 720.914 360.292C719.677 359.993 718.391 360.396 717.181 360.799C713.083 362.149 708.51 363.923 706.908 367.875C705.993 370.145 706.249 372.737 705.41 375.034C704.865 376.574 703.824 377.897 703.066 379.356C702.444 380.454 702.142 381.705 702.194 382.965C702.127 383.618 702.219 384.277 702.461 384.887C702.746 385.622 703.204 386.277 703.796 386.798C703.583 387.252 703.316 387.68 703.001 388.072C701.954 389.351 700.347 390.249 699.257 391.523C697.241 393.858 697.317 397.032 698.309 399.775C699.3 402.519 701.093 405.018 702.331 407.691C702.875 408.85 703.29 410.146 702.739 411.3C702.352 412.1 701.551 412.71 700.93 413.401C700.021 414.419 699.45 415.693 699.295 417.048C687.028 419.846 687.017 429.694 687.017 429.694L680.39 446.341C680.39 446.341 679.327 449.144 678.079 452.846L670.237 451.442L675.687 460.554C674.657 464.267 673.927 467.707 674.167 469.438C674.167 469.438 671.731 480.87 676.063 482.868L685.622 487.163C686.036 487.417 686.481 487.616 686.946 487.756L687.333 487.931C687.472 487.998 687.625 488.033 687.78 488.033C687.935 488.033 688.087 487.998 688.227 487.931H688.254H688.358C688.543 487.943 688.729 487.915 688.902 487.849C689.115 487.735 689.284 487.553 689.382 487.332C689.379 487.314 689.379 487.295 689.382 487.277L692.243 486.45L694.668 489.319C695.758 490.086 696.848 490.751 697.878 491.349L694.123 528.595C694.123 528.595 693.518 578.133 691.687 589.423C691.012 593.604 691.006 596.456 691.262 598.394L691.191 598.514C691.644 601.698 692.826 602.325 692.826 602.325V602.281C692.848 602.298 692.872 602.313 692.897 602.325C693.449 600.878 694.104 599.474 694.859 598.122C694.859 598.389 694.859 598.666 694.859 598.939C694.821 603.141 694.69 609.026 694.254 612.853C693.513 619.385 696.151 640.915 696.151 640.915L697.061 660.512C697.209 663.84 696.436 667.143 694.826 670.06C692.646 673.974 689.862 679.483 689.66 681.928C689.649 682.06 689.649 682.193 689.66 682.325V682.325L684.984 687.943C684.984 687.943 683.158 690.763 687.284 691.901C689.502 692.516 693.328 691.901 696.401 691.177C697.743 690.868 698.94 690.114 699.798 689.039C700.656 687.963 701.124 686.629 701.126 685.254C701.903 682.554 703.215 680.039 704.985 677.856L705.753 682.369L710.897 683.642L711.557 671.274C711.822 670.58 711.943 669.839 711.911 669.097V669.097C712.925 660.3 709.524 661.089 709.524 661.089C709.615 661.167 709.674 661.275 709.688 661.394L709.524 661.095C707.437 656.979 708.434 650.207 708.434 650.207C708.434 650.207 711.159 630.61 712.091 625.433C712.761 621.775 712.483 609.799 712.26 603.114C712.26 602.836 712.26 602.569 712.233 602.303C720.211 602.199 729.988 601.933 736.849 601.268V602.074L735.585 648.373C735.498 651.325 734.897 654.239 733.808 656.985C733.808 657.039 733.77 657.088 733.748 657.143C732.244 661.02 731.395 665.121 731.236 669.277L730.647 683.974V684.383C729.623 684.775 728.004 685.912 727.96 689.211C727.89 694.045 736.418 692.434 736.418 692.434C744.942 692.434 745.012 683.572 745.012 683.572C745.012 683.572 745.28 675.444 745.688 670.006C746.097 664.568 744.402 665.765 744.402 665.765L744.271 681.236C744.271 681.274 744.271 681.313 744.271 681.356V667.796L744.402 665.831V665.776V665.357L745.476 649.402C745.476 649.402 753.329 622.815 754.544 617.714C755.41 614.088 755.051 603.168 754.767 597.131C754.767 596.854 754.767 596.587 754.724 596.331C757.16 596.113 759.312 596.091 760.173 596.091H760.571C760.571 596.091 760.168 553.391 759.149 537.3C758.13 521.208 756.511 506.483 752.451 502.052C749.999 499.373 746.582 491.104 744.277 484.98C749.123 487.073 754.153 488.713 759.302 489.88C772.157 492.569 770.397 481.42 770.397 481.42L769.095 460.337H769.182C769.134 454.814 768.66 449.303 767.765 443.853C767.084 439.672 766.043 435.35 764.452 431.877C765.847 431.333 767.225 430.75 768.577 430.151C772.07 428.611 776.005 426.428 776.506 422.666H776.337C776.405 422.395 776.448 422.118 776.468 421.839V421.839ZM696.777 452.323C696.805 454.501 696.723 458.279 696.592 462.454L692.51 457.011L696.603 450.38L696.777 452.323ZM753.171 471.616L746.369 469.438C747.575 467.559 748.984 465.817 750.571 464.245L751.16 463.701L750.947 463.744L751.274 463.445L751.47 463.401L751.16 463.701L751.53 463.625C751.94 465.331 752.732 466.923 753.846 468.279C756.288 470.941 753.176 471.616 753.176 471.616H753.171Z" fill="url(#paint2_linear)"/>
<path d="M711.856 667.584L711.061 682.652L705.987 681.383L704.919 675.118L711.856 667.584Z" fill="#A27772"/>
<path opacity="0.1" d="M711.856 667.584L711.061 682.652L705.987 681.383L704.919 675.118L711.856 667.584Z" fill="black"/>
<path d="M730.478 684.65L738.217 686.25L743.955 681.187V666.919L744.086 664.971V664.911V664.497L745.154 648.64C745.154 648.64 752.898 622.243 754.102 617.175C754.953 613.582 754.598 602.738 754.315 596.745C754.2 594.29 754.102 592.646 754.102 592.646L737.018 588.514L736.658 601.633L735.41 647.6C735.324 650.53 734.732 653.423 733.661 656.152L733.601 656.31C732.115 660.159 731.277 664.228 731.121 668.351L730.543 682.967V683.37L730.478 684.65Z" fill="#FBBEBE"/>
<path opacity="0.1" d="M730.478 684.65L738.217 686.25L743.955 681.187V679.973C743.936 680.242 743.851 680.502 743.708 680.73C743.564 680.958 743.367 681.147 743.132 681.28L743.05 681.329C740.385 682.736 737.365 683.333 734.364 683.044L731.345 682.788C731.069 682.814 730.799 682.88 730.543 682.984V683.387L730.478 684.65Z" fill="black"/>
<path d="M743.05 681.726L743.132 681.683C743.384 681.541 743.594 681.336 743.74 681.087C743.886 680.839 743.964 680.556 743.966 680.267L744.091 664.911C744.091 664.911 745.759 663.719 745.356 669.119C744.952 674.519 744.691 682.586 744.691 682.586C744.691 682.586 744.625 691.383 736.216 691.383C736.216 691.383 727.808 692.984 727.873 688.182C727.938 683.381 731.344 683.185 731.344 683.185L734.364 683.446C737.365 683.736 740.386 683.138 743.05 681.726Z" fill="#2F2E41"/>
<path d="M690.172 681.383C690.368 684.851 700.581 682.848 700.581 682.848L707.453 669.522C707.453 669.522 713.191 665.118 710.319 661.253C710.166 661.042 710.026 660.822 709.9 660.594C709.9 660.594 709.9 660.594 709.873 660.561C709.813 660.463 709.758 660.36 709.704 660.251C707.644 656.168 708.657 649.472 708.657 649.472C708.657 649.472 711.322 630.006 712.26 624.872C712.919 621.247 712.646 609.352 712.428 602.7C712.341 599.935 712.26 598.078 712.26 598.078L695.306 593.544C695.306 593.544 695.306 595.656 695.306 598.596C695.267 602.771 695.137 608.612 694.706 612.412C693.976 618.873 696.575 640.273 696.575 640.273L697.474 659.745C697.63 663.044 696.876 666.322 695.295 669.222C693.169 673.109 690.39 678.585 690.199 681.008C690.18 681.132 690.171 681.258 690.172 681.383V681.383Z" fill="#FBBEBE"/>
<path opacity="0.1" d="M690.172 681.383C690.368 684.851 700.581 682.848 700.581 682.848L707.453 669.521C707.453 669.521 713.192 665.117 710.32 661.252C710.166 661.042 710.026 660.822 709.9 660.594C709.807 662.613 707.589 667.671 707.589 667.671C707.589 667.671 701.916 679.01 700.112 681.606C698.309 684.203 690.472 681.122 690.178 681.013C690.166 681.136 690.164 681.26 690.172 681.383V681.383Z" fill="black"/>
<path d="M709.704 660.235C709.704 660.235 713.061 659.456 712.058 668.188C712.096 669.18 711.871 670.164 711.405 671.041C710.938 671.918 710.248 672.656 709.404 673.18C707.001 674.688 703.295 677.932 701.42 684.241C701.422 685.603 700.962 686.925 700.116 687.992C699.27 689.059 698.088 689.81 696.761 690.12C693.731 690.828 689.954 691.449 687.769 690.839C683.698 689.707 685.502 686.909 685.502 686.909L690.172 681.372C690.172 681.372 698.314 684.573 700.112 681.971C701.911 679.369 707.589 668.041 707.589 668.041C707.589 668.041 710.701 660.969 709.704 660.235Z" fill="#2F2E41"/>
<path opacity="0.1" d="M737.017 590.131L736.658 603.25C741.208 602.809 744.467 602.194 745.023 601.328C746.227 599.467 750.598 598.683 754.315 598.362C754.2 595.906 754.102 594.262 754.102 594.262L737.017 590.131Z" fill="black"/>
<path opacity="0.1" d="M695.306 600.191C695.741 599.302 696.381 598.529 697.175 597.937C698.973 596.941 698.777 604.339 698.777 604.339C698.777 604.339 704.772 604.393 712.429 604.295C712.341 601.53 712.26 599.668 712.26 599.668L695.306 595.139C695.306 595.139 695.338 597.24 695.306 600.191Z" fill="black"/>
<path d="M693.371 601.943C693.371 601.943 695.376 596.5 697.186 595.531C698.995 594.562 698.788 601.927 698.788 601.927C698.788 601.927 742.832 602.33 745.034 598.928C747.236 595.525 760.048 595.727 760.048 595.727C760.048 595.727 759.65 553.331 758.647 537.338C757.644 521.344 756.048 506.739 752.042 502.34C749.454 499.493 745.77 490.282 743.492 484.142C742.255 480.789 741.432 478.344 741.432 478.344L699.393 480.74L699.049 484.142L694.586 528.737C694.586 528.737 693.987 577.931 692.183 589.129C690.379 600.327 693.371 601.943 693.371 601.943Z" fill="#444053"/>
<g opacity="0.1">
<path opacity="0.1" d="M741.611 598.928C743.791 595.531 756.625 595.727 756.625 595.727C756.625 595.727 756.227 553.331 755.225 537.338C754.222 521.344 752.625 506.739 748.62 502.34C746.02 499.482 742.347 490.282 740.069 484.142C739.028 481.322 738.282 479.15 738.075 478.529L741.344 478.344C741.344 478.344 742.167 480.789 743.41 484.142C745.688 490.282 749.366 499.493 751.955 502.34C755.96 506.739 757.563 521.339 758.56 537.338C759.557 553.337 759.966 595.727 759.966 595.727C759.966 595.727 747.154 595.531 744.947 598.928C743.066 601.829 710.657 601.965 701.251 601.938C713.322 601.911 739.911 601.552 741.611 598.928Z" fill="black"/>
<path opacity="0.1" d="M693.763 595.531C694.575 595.079 694.979 596.331 695.18 597.85C694.453 599.167 693.821 600.535 693.289 601.943C693.289 601.943 692.128 601.317 691.654 598.133C692.319 596.995 693.055 595.923 693.763 595.531Z" fill="black"/>
</g>
<path d="M706.363 375.769C703.453 379.732 706.396 385.366 703.273 389.22C702.243 390.494 700.657 391.398 699.584 392.65C697.595 394.969 697.671 398.121 698.646 400.842C699.622 403.564 701.371 406.047 702.614 408.703C703.159 409.852 703.562 411.142 703.017 412.285C702.636 413.08 701.845 413.684 701.23 414.37C699.224 416.607 699.17 419.716 700.249 422.35C701.328 424.985 703.388 427.25 705.42 429.482C706.222 430.358 707.235 431.327 708.57 431.3C709.272 431.247 709.951 431.024 710.549 430.652C715.172 428.293 718.706 424.244 720.416 419.347C722.125 414.45 721.878 409.084 719.726 404.365C718.036 400.32 715.219 396.444 715.192 392.171C715.192 388.779 716.936 385.54 717.246 382.165C717.622 378.061 715.192 371.544 710.233 369.754C710.559 372.388 707.84 373.733 706.363 375.769Z" fill="#2F2E41"/>
<path opacity="0.1" d="M706.363 375.769C703.453 379.732 706.396 385.366 703.273 389.22C702.243 390.494 700.657 391.398 699.584 392.65C697.595 394.969 697.671 398.121 698.646 400.842C699.622 403.564 701.371 406.047 702.614 408.703C703.159 409.852 703.562 411.142 703.017 412.285C702.636 413.08 701.845 413.684 701.23 414.37C699.224 416.607 699.17 419.716 700.249 422.35C701.328 424.985 703.388 427.25 705.42 429.482C706.222 430.358 707.235 431.327 708.57 431.3C709.272 431.247 709.951 431.024 710.549 430.652C715.172 428.293 718.706 424.244 720.416 419.347C722.125 414.45 721.878 409.084 719.726 404.365C718.036 400.32 715.219 396.444 715.192 392.171C715.192 388.779 716.936 385.54 717.246 382.165C717.622 378.061 715.192 371.544 710.233 369.754C710.559 372.388 707.84 373.733 706.363 375.769Z" fill="black"/>
<path opacity="0.1" d="M738.636 519.923C732.811 520.228 727.328 522.732 722.227 525.563C717.126 528.394 712.189 531.6 706.701 533.609" fill="black"/>
<path opacity="0.1" d="M735.017 533.636C729.255 534.185 723.884 536.795 719.895 540.985C718.478 542.482 717.257 544.159 715.78 545.596C713.519 547.8 710.726 549.381 707.671 550.185" fill="black"/>
<path opacity="0.1" d="M736.211 544.072C731.563 545.36 727.357 547.894 724.047 551.399C723.153 552.362 722.341 553.391 721.448 554.355C716.625 559.526 709.813 562.27 703.235 564.866" fill="black"/>
<path d="M735.715 399.351C735.844 404.001 736.244 408.64 736.914 413.243C737.459 416.509 738.222 419.449 739.318 420.75C742.522 424.561 723.704 429.65 723.704 429.65L712.592 421.049C712.592 421.049 721.399 412.949 717.295 405.05C713.192 397.152 735.715 399.351 735.715 399.351Z" fill="#FBBEBE"/>
<path opacity="0.1" d="M699.039 484.142H743.481C742.244 480.789 741.421 478.344 741.421 478.344L699.382 480.74L699.039 484.142Z" fill="black"/>
<path d="M696.178 483.342H743.694C742.359 478.568 743.694 474.153 745.596 470.756C746.929 468.375 748.605 466.204 750.571 464.311L750.898 464.011L767.487 460.342L768.381 460.146C768.381 460.146 768.517 430.015 757.836 425.878C747.154 421.741 740.751 416.15 740.751 416.15L726.075 420.679L715.263 415.236C711.791 418.965 702.581 417.5 702.581 417.5C687.502 419.231 687.502 430.565 687.502 430.565C687.502 430.565 696.309 451.093 696.979 451.093C697.649 451.093 696.178 483.342 696.178 483.342Z" fill="#FF7E5F"/>
<path opacity="0.1" d="M712.581 464.185C712.581 464.185 702.892 462.04 699.595 458.29Z" fill="black"/>
<path opacity="0.1" d="M761.437 452.944L750.2 462.144C750.282 462.876 750.405 463.603 750.571 464.321L750.898 464.022L767.487 460.353L761.437 452.944Z" fill="black"/>
<path opacity="0.1" d="M731.012 480.141C731.012 480.141 733.47 481.523 737.236 483.342H743.694C742.358 478.568 743.694 474.153 745.596 470.756L734.211 467.076C738.086 470.674 731.012 480.141 731.012 480.141Z" fill="black"/>
<path d="M694.172 426.95L687.502 430.549L680.962 447.081C680.962 447.081 674.155 465.209 674.82 470.01C674.82 470.01 672.423 481.344 676.69 483.342L687.807 488.372C688.003 488.458 688.222 488.482 688.432 488.439C688.643 488.396 688.835 488.288 688.981 488.132C689.128 487.975 689.222 487.777 689.251 487.564C689.28 487.352 689.242 487.135 689.142 486.945C687.556 483.946 685.812 479.253 688.597 476.673L685.393 470.01L696.973 451.077L700.843 444.544L694.172 426.95Z" fill="#FF7E5F"/>
<path opacity="0.1" d="M709.012 460.402C709.589 462.754 711.54 466.39 717.998 467.745L725.083 473.543L732.62 476.956L735.693 478.344L736.996 468.943L734.037 467.31L730.587 465.426C730.587 465.426 722.805 451.344 710.483 457.261C709.91 457.532 709.45 457.994 709.182 458.567C708.913 459.14 708.853 459.789 709.012 460.402Z" fill="black"/>
<path d="M709.415 459.602C709.993 461.959 711.938 465.59 718.396 466.945L725.481 472.743L733.023 476.156L736.091 477.544L737.394 468.143L734.435 466.51L731.012 464.643C731.012 464.643 723.225 450.56 710.903 456.504C710.336 456.771 709.879 457.225 709.608 457.789C709.337 458.353 709.269 458.993 709.415 459.602V459.602Z" fill="#FBBEBE"/>
<path opacity="0.1" d="M723.301 411.545C732.808 411.545 740.516 403.846 740.516 394.348C740.516 384.851 732.808 377.151 723.301 377.151C713.793 377.151 706.085 384.851 706.085 394.348C706.085 403.846 713.793 411.545 723.301 411.545Z" fill="black"/>
<path d="M723.301 411.147C732.808 411.147 740.516 403.448 740.516 393.951C740.516 384.453 732.808 376.754 723.301 376.754C713.793 376.754 706.085 384.453 706.085 393.951C706.085 403.448 713.793 411.147 723.301 411.147Z" fill="#FBBEBE"/>
<path opacity="0.1" d="M733.966 430.696L728.789 420.647C728.789 420.647 736.364 417.587 736.914 414.043C737.464 410.5 744.173 418.197 742.723 420.75C741.274 423.303 733.966 430.696 733.966 430.696Z" fill="black"/>
<path d="M733.966 429.895L728.789 419.846C728.789 419.846 736.364 416.787 736.914 413.243C737.464 409.699 744.173 417.402 742.723 419.95C741.274 422.497 733.966 429.895 733.966 429.895Z" fill="#FF7E5F"/>
<path d="M691.595 455.856L720.2 494.273C720.2 494.273 709.655 500.005 695.131 489.743L688.859 482.275L670.951 452.122L691.595 455.856Z" fill="#F6F8FB"/>
<path d="M685.965 476.744L688.57 476.673C688.57 476.673 704.483 461.246 708.39 469.052C712.298 476.858 698.477 484.153 698.477 484.153L694.276 486.417L688.799 488.05L685.294 483.353L685.965 476.744Z" fill="#FBBEBE"/>
<path opacity="0.1" d="M689.807 485.078C690.047 485.966 690.276 486.945 689.872 487.767C689.776 487.987 689.609 488.169 689.398 488.285C689.225 488.351 689.038 488.377 688.853 488.361C687.475 488.244 686.192 487.61 685.262 486.586C684.349 485.566 683.567 484.436 682.935 483.222C682.227 481.986 681.491 480.62 681.742 479.215C682.025 477.686 683.376 476.624 684.701 475.764C687.338 474.022 687.426 476.053 688.003 478.295C688.581 480.538 689.202 482.814 689.807 485.078Z" fill="black"/>
<path d="M689.409 485.078C689.643 485.966 689.878 486.945 689.474 487.767C689.378 487.987 689.211 488.169 689 488.285C688.827 488.351 688.64 488.377 688.455 488.361C687.076 488.246 685.792 487.612 684.864 486.586C683.947 485.568 683.164 484.437 682.532 483.222C681.823 481.986 681.087 480.62 681.344 479.215C681.621 477.686 682.978 476.624 684.297 475.764C686.94 474.022 687.022 476.053 687.605 478.295C688.188 480.538 688.799 482.814 689.409 485.078Z" fill="#FF7E5F"/>
<path opacity="0.1" d="M696.979 451.077L698.308 448.829L697.147 453.004L696.979 451.077Z" fill="black"/>
<path opacity="0.1" d="M733.045 476.156L736.113 477.544L737.416 468.143L734.456 466.51C736.5 468.851 734.713 473.178 733.045 476.156Z" fill="black"/>
<path opacity="0.1" d="M745.361 465.241C745.361 465.241 735.454 465.846 731.247 463.146Z" fill="black"/>
<g opacity="0.1">
<path opacity="0.1" d="M744.129 471.556C745.462 469.174 747.139 467.001 749.105 465.105C749.576 464.81 750.066 464.544 750.571 464.311L766.015 461.142L766.909 460.946C766.909 460.946 767.045 430.815 756.369 426.678C750.381 424.404 744.767 421.246 739.715 417.31L740.887 416.95C740.887 416.95 747.29 422.546 757.971 426.678C768.653 430.81 768.511 460.946 768.511 460.946H766.909L751.105 463.968C751.105 463.968 750.424 464.626 750.216 464.817C748.234 466.8 746.535 469.045 745.165 471.491C743.073 475.369 742.597 479.915 743.84 484.142H742.205C740.887 479.368 742.249 474.953 744.129 471.556Z" fill="black"/>
<path opacity="0.1" d="M701.949 418.371C702.205 418.333 702.45 418.295 702.717 418.268C703.801 418.421 704.893 418.51 705.987 418.534C704.639 418.572 703.29 418.517 701.949 418.371V418.371Z" fill="black"/>
<path opacity="0.1" d="M724.603 421.48L714.826 416.537C715.02 416.378 715.202 416.205 715.371 416.019L725.573 421.175L724.603 421.48Z" fill="black"/>
</g>
<path d="M761.824 452.122L768.364 460.124L769.699 481.856C769.699 481.856 771.432 492.917 758.756 490.25C746.08 487.582 731.41 479.341 731.41 479.341C731.41 479.341 738.494 469.874 734.614 466.276L752.767 472.144C752.767 472.144 755.835 471.474 753.432 468.812C751.029 466.15 750.603 461.344 750.603 461.344L761.824 452.122Z" fill="#FF7E5F"/>
<path opacity="0.1" d="M764.778 475.078L768.381 479.21C767.454 478.926 766.625 478.388 765.989 477.658C765.352 476.928 764.933 476.034 764.778 475.078V475.078Z" fill="black"/>
<path opacity="0.1" d="M758.637 474.409L764.244 481.605L761.443 482.275L758.637 474.409Z" fill="black"/>
<path opacity="0.1" d="M702.739 386.057C702.123 384.549 702.597 382.791 703.338 381.37C704.08 379.95 705.099 378.605 705.654 377.075C706.477 374.8 706.227 372.225 707.126 369.998C708.712 366.052 713.219 364.288 717.257 362.922C718.45 362.524 719.72 362.127 720.941 362.421C722.576 362.807 723.638 364.288 724.974 365.284C730.456 369.367 739.372 364.871 744.674 369.193C746.702 370.826 747.688 373.499 747.993 376.095C748.298 378.692 747.993 381.327 747.96 383.945C747.873 388.529 748.734 393.542 752.168 396.58C753.203 397.495 754.424 398.181 755.437 399.128C756.451 400.075 757.247 401.398 757.072 402.77C756.938 403.399 756.756 404.018 756.527 404.62C755.846 407.01 756.865 409.52 758.108 411.697C761.814 418.104 768.348 423.385 775.754 423.532C775.258 427.266 771.394 429.433 767.934 430.962C763.574 432.917 758.931 434.833 754.129 434.588C749.328 434.343 744.32 431.273 743.481 426.548C743.192 424.915 743.23 422.949 741.846 422.1C740.996 421.583 739.895 421.714 738.979 421.327C737.655 420.783 737.001 419.297 736.565 417.93C735.672 415.111 735.193 412.177 735.143 409.22C735.083 405.715 735.546 401.888 733.557 399.003C731.715 396.33 728.445 394.974 726.32 392.519C724.358 390.244 722.227 387.5 719.012 387.075C714.565 386.449 705.366 392.486 702.739 386.057Z" fill="black"/>
<path d="M702.739 385.257C702.123 383.749 702.597 381.991 703.338 380.57C704.08 379.149 705.099 377.805 705.654 376.275C706.477 374 706.227 371.425 707.126 369.198C708.712 365.246 713.219 363.482 717.257 362.121C718.45 361.724 719.72 361.327 720.941 361.621C722.576 362.007 723.638 363.488 724.974 364.484C730.456 368.567 739.372 364.07 744.674 368.393C746.702 370.026 747.688 372.699 747.993 375.301C748.298 377.903 747.993 380.527 747.96 383.145C747.873 387.729 748.734 392.742 752.168 395.78C753.203 396.694 754.424 397.38 755.437 398.327C756.451 399.275 757.247 400.597 757.072 401.969C756.938 402.599 756.756 403.218 756.527 403.82C755.846 406.21 756.865 408.719 758.108 410.897C761.824 417.282 768.331 422.579 775.737 422.726C775.242 426.46 771.378 428.627 767.917 430.162C763.557 432.111 758.914 434.027 754.113 433.782C749.312 433.537 744.304 430.467 743.464 425.742C743.176 424.109 743.214 422.144 741.83 421.294C740.979 420.777 739.879 420.908 738.963 420.521C737.639 419.977 736.985 418.491 736.549 417.125C735.655 414.305 735.176 411.371 735.126 408.415C735.066 404.909 735.53 401.082 733.541 398.197C731.699 395.524 728.429 394.168 726.303 391.713C724.341 389.438 722.211 386.694 718.995 386.27C714.565 385.649 705.366 391.697 702.739 385.257Z" fill="#2F2E41"/>
<path opacity="0.1" d="M714.957 429.449L724.827 421.447C724.827 421.447 718.069 417.789 717.262 414.669C716.456 411.55 711.05 416.15 711.6 418.948C712.151 421.746 714.957 429.449 714.957 429.449Z" fill="black"/>
<path d="M715.344 428.246L725.214 420.249C725.214 420.249 718.456 416.591 717.682 413.472C716.908 410.353 711.47 414.952 712.02 417.751C712.57 420.549 715.344 428.246 715.344 428.246Z" fill="#FF7E5F"/>
<path opacity="0.1" d="M725.601 427.729C726.034 427.729 726.385 427.378 726.385 426.945C726.385 426.512 726.034 426.161 725.601 426.161C725.167 426.161 724.816 426.512 724.816 426.945C724.816 427.378 725.167 427.729 725.601 427.729Z" fill="black"/>
<path opacity="0.1" d="M725.601 432.084C726.034 432.084 726.385 431.733 726.385 431.3C726.385 430.867 726.034 430.516 725.601 430.516C725.167 430.516 724.816 430.867 724.816 431.3C724.816 431.733 725.167 432.084 725.601 432.084Z" fill="black"/>
<path opacity="0.1" d="M725.601 436.433C726.034 436.433 726.385 436.082 726.385 435.649C726.385 435.216 726.034 434.866 725.601 434.866C725.167 434.866 724.816 435.216 724.816 435.649C724.816 436.082 725.167 436.433 725.601 436.433Z" fill="black"/>
<g opacity="0.1">
<path opacity="0.1" d="M706.723 374.141C707.502 372.002 707.333 369.601 708.063 367.445C707.725 367.922 707.445 368.437 707.23 368.98C706.325 371.229 706.581 373.804 705.753 376.057L705.698 376.188C706.102 375.539 706.445 374.853 706.723 374.141V374.141Z" fill="black"/>
<path opacity="0.1" d="M768.985 428.028C764.626 429.977 759.982 431.893 755.181 431.648C750.38 431.403 745.372 428.333 744.533 423.613C744.244 421.98 744.282 420.01 742.898 419.16C742.048 418.643 740.947 418.774 740.031 418.387C738.707 417.843 738.053 416.357 737.617 414.991C736.723 412.171 736.244 409.237 736.195 406.281C736.135 402.78 736.603 398.953 734.614 396.063C732.767 393.39 729.497 392.04 727.372 389.579C725.41 387.309 723.279 384.56 720.063 384.136C715.655 383.537 706.439 389.579 703.834 383.145C703.416 381.929 703.476 380.6 704.003 379.427C703.813 379.748 703.627 380.069 703.458 380.396C702.717 381.844 702.248 383.58 702.864 385.088C705.486 391.512 714.685 385.475 719.093 386.079C722.309 386.515 724.44 389.264 726.401 391.523C728.527 393.983 731.797 395.333 733.639 398.012C735.633 400.897 735.165 404.724 735.224 408.224C735.274 411.181 735.753 414.115 736.647 416.934C737.083 418.306 737.737 419.776 739.061 420.331C739.977 420.717 741.077 420.592 741.928 421.104C743.334 421.953 743.295 423.94 743.563 425.557C744.413 430.277 749.415 433.347 754.211 433.592C759.007 433.837 763.628 431.926 768.015 429.972C771.176 428.567 774.697 426.624 775.645 423.439C774.13 425.508 771.449 426.934 768.985 428.028Z" fill="black"/>
</g>
<path d="M865.298 458.752C853.761 452.122 849.401 450.489 849.379 450.489L849.139 450.32C847.883 449.356 846.885 448.095 846.235 446.651C846.221 446.388 846.221 446.125 846.235 445.862C846.232 445.887 846.232 445.913 846.235 445.938C846.415 442.427 848.916 439.231 851.287 436.444L857.352 429.318C858.041 428.613 858.574 427.771 858.916 426.847C859.039 426.35 859.094 425.839 859.08 425.328C859.08 425.121 859.08 424.914 859.08 424.708C859.047 422.938 858.998 421.164 858.933 419.395C858.878 417.849 858.48 415.9 856.932 415.584C856.126 415.421 855.058 415.709 854.633 415.04C854.488 414.755 854.452 414.429 854.529 414.12C854.526 414.145 854.526 414.17 854.529 414.196V414.109C854.829 412.914 855.02 411.696 855.101 410.467C855.135 409.841 855.05 409.215 854.851 408.621C853.957 406.057 850.867 405.001 848.137 404.517C845.406 404.032 842.344 403.619 840.632 401.485C840.174 400.773 839.676 400.088 839.139 399.433C838.35 398.732 837.386 398.256 836.349 398.055C832.96 397.221 829.39 397.531 826.196 398.937C824.877 399.525 823.553 400.32 822.104 400.233C820.654 400.146 819.313 399.1 817.831 398.85C815.433 398.442 813.139 400.2 811.956 402.285C811.256 403.521 810.881 404.915 810.866 406.335V406.575C810.832 408.103 811.39 409.585 812.425 410.712C813.46 411.801 814.997 412.519 815.428 413.929C815.602 414.501 815.558 415.121 815.717 415.704C815.733 415.776 815.755 415.847 815.782 415.916L815.706 416.019C813.232 419.181 811.889 423.079 811.891 427.092C811.918 430.99 813.185 434.778 815.508 437.909C817.832 441.04 821.092 443.353 824.817 444.512C824.817 444.691 824.817 444.871 824.817 445.056C824.817 447.234 824.191 449.504 822.311 451.153L805.967 457.675C805.967 457.675 796.114 456.504 792.561 470.886C791.993 473.274 791.787 475.733 791.95 478.181C792.081 480.358 791.782 484.169 789.226 489.107C785.187 497.011 786.108 515.155 794.37 516.951C802.169 518.649 805.22 517.942 805.542 517.86V518.176C805.411 521.584 804.174 550.947 799.678 554.496C798.436 555.481 798.664 556.129 799.678 556.592C799.678 556.592 799.678 556.783 799.651 557.136C799.515 559.314 798.822 567.479 795.836 572.117C792.343 577.507 792.708 608.59 792.708 608.59L790.326 626.914C790.326 626.914 791.792 638.231 790.326 640.207C789.013 641.965 787.269 683.833 786.904 692.913H786.751C786.029 692.96 785.33 693.183 784.714 693.563C784.099 693.942 783.586 694.467 783.22 695.091C781.291 698.221 774.533 704.007 774.533 704.007C773.067 706.087 767.645 708.079 764.778 709.015C764.4 709.139 764.035 709.299 763.688 709.495C762.615 710.078 761.753 710.985 761.225 712.086C761.036 712.412 760.915 712.773 760.87 713.148C760.825 713.522 760.857 713.902 760.964 714.263C761.694 716.054 776.937 717.317 780.795 715.515C783.825 714.105 795.836 712.249 800.823 711.52C801.728 711.406 802.57 710.994 803.215 710.349C803.861 709.705 804.273 708.864 804.387 707.959C804.434 707.647 804.418 707.329 804.339 707.023C804.261 706.717 804.121 706.43 803.929 706.179C802.975 704.998 802.49 701.77 802.294 699.647C802.699 699.482 803.077 699.258 803.417 698.983C803 692.457 803.927 685.915 806.141 679.761C809.815 670.06 810.915 652.096 810 640.419C810 640.419 821.199 592.275 830.016 587.784C830.153 587.959 834.431 593.44 834.976 610.419C835.521 627.665 841.766 638.982 841.766 638.982C841.766 638.982 839.008 668.264 841.766 679.222L838.164 696.506C837.897 696.283 837.728 696.109 837.728 696.109C837.728 696.109 837.837 696.588 837.984 697.355L837.908 697.725L838.066 697.758C838.474 699.935 839.079 703.686 838.829 705.923C838.687 707.181 838.333 708.907 838.093 710.6C837.711 713.262 837.608 715.842 839.008 716.408C841.308 717.333 854.813 718.586 857.101 715.624C857.616 715.021 857.952 714.285 858.069 713.501C858.187 712.717 858.082 711.915 857.766 711.188C857.601 710.78 857.377 710.398 857.101 710.055C857.101 710.055 853.516 704.203 854.529 700.077C854.623 699.674 854.633 699.256 854.559 698.849C854.485 698.441 854.328 698.054 854.099 697.709C854.257 695.684 855.074 686.31 857.189 678.351C859.488 669.707 864.333 650.752 860.769 638.291C860.635 637.801 860.482 637.322 860.311 636.854C858.254 630.05 857.567 622.906 858.289 615.836C856.966 609.799 856.966 603.549 858.289 597.512C860.497 587.452 862.039 577.572 862.039 577.572C862.039 577.572 863.254 564.278 862.191 556.129C862.191 555.955 862.142 555.781 862.121 555.585L862.698 555.454C862.698 555.454 859.576 541.622 858.475 532.819C858.213 530.74 857.875 528.111 857.505 525.302C858.52 525.134 859.521 524.884 860.497 524.556C870.41 521.143 873.532 490.261 873.532 490.261V480.462C873.532 480.462 876.867 465.399 865.298 458.752ZM791.422 697.317C791.117 697.165 790.937 697.061 790.937 697.061L791.422 697.317Z" fill="url(#paint3_linear)"/>
<path d="M859.314 637.05C863.614 649.402 858.595 669.451 856.262 678.422C853.93 687.393 853.216 698.117 853.216 698.117C844.077 699.549 837.444 697.758 837.444 697.758L841.21 679.32C838.518 668.4 841.21 639.216 841.21 639.216C841.21 639.216 835.117 627.937 834.578 610.751C834.033 593.838 829.875 588.367 829.744 588.198C821.144 592.673 810.212 640.654 810.212 640.654C811.106 652.287 810.027 670.191 806.447 679.848C804.272 685.987 803.358 692.5 803.76 698.999C802.506 700.088 800.763 700.24 798.855 699.935C793.738 699.108 787.602 694.704 787.602 694.704C787.602 694.704 789.569 642.445 791.008 640.463C792.446 638.482 791.008 627.213 791.008 627.213L793.335 608.955C793.335 608.955 792.975 577.98 796.381 572.613C799.324 567.975 800 559.82 800.13 557.681C800.13 557.343 800.13 557.136 800.13 557.136L805.318 550.931C805.318 550.931 855.499 547.169 859.27 550.931C860.191 551.851 860.764 553.952 861.101 556.592C862.137 564.714 860.949 577.959 860.949 577.959C860.949 577.959 859.445 587.806 857.292 597.828C856.002 603.848 856.002 610.072 857.292 616.092C856.6 623.143 857.287 630.261 859.314 637.05V637.05Z" fill="#65617D"/>
<path d="M856.175 715.548C853.935 718.504 840.764 717.252 838.518 716.332C837.15 715.787 837.254 713.191 837.625 710.54C837.859 708.858 838.202 707.137 838.344 705.885C838.698 702.663 837.254 696.125 837.254 696.125C837.254 696.125 840.208 699.26 840.922 696.125C841.238 694.753 842.338 694.051 843.483 693.697C845.019 693.233 846.67 693.335 848.137 693.985C850.464 694.998 854.344 697.148 853.652 700.055C852.666 704.165 856.159 710.001 856.159 710.001C856.43 710.341 856.65 710.719 856.813 711.122C857.124 711.847 857.229 712.644 857.116 713.424C857.004 714.205 856.678 714.94 856.175 715.548V715.548Z" fill="#A27772"/>
<path opacity="0.1" d="M856.175 715.548C853.935 718.504 840.764 717.252 838.518 716.332C837.15 715.787 837.254 713.191 837.625 710.54C839.041 711.204 841.439 711.754 845.456 711.383C846.392 711.295 847.333 711.265 848.273 711.296C851.126 711.425 853.984 711.366 856.829 711.122C857.138 711.849 857.24 712.646 857.125 713.427C857.009 714.208 856.681 714.941 856.175 715.548V715.548Z" fill="black"/>
<path opacity="0.1" d="M810.207 640.632C811.101 652.265 810.021 670.169 806.441 679.826C804.266 685.965 803.352 692.478 803.754 698.977C802.501 700.066 800.757 700.219 798.85 699.914C799.94 692.363 804.539 659.832 807.487 634.127C810.85 604.856 826.561 584.72 826.561 584.72L829.695 588.165C821.139 592.651 810.207 640.632 810.207 640.632Z" fill="black"/>
<path d="M850.796 452.476L848.616 463.216L837.897 481.208L824.681 475.568C824.681 475.568 806.697 456.771 818.005 454.087C819.357 453.797 820.633 453.229 821.755 452.421C823.973 450.75 824.67 448.322 824.681 445.943C824.597 443.282 823.978 440.664 822.861 438.246L845.978 430.995C845.034 434.03 844.485 437.173 844.343 440.347C844.164 446.64 846.523 449.738 848.425 451.235C849.127 451.798 849.933 452.22 850.796 452.476V452.476Z" fill="#FBBEBE"/>
<path opacity="0.1" d="M845.957 430.995C845.013 434.03 844.463 437.173 844.322 440.347C843.9 440.849 843.451 441.327 842.976 441.779C840.589 444.056 837.629 445.645 834.411 446.379C831.193 447.112 827.837 446.961 824.697 445.943C824.608 443.281 823.984 440.663 822.861 438.246L845.957 430.995Z" fill="black"/>
<path d="M848.611 428.039C848.612 431.652 847.541 435.183 845.532 438.187C843.524 441.191 840.669 443.533 837.328 444.916C833.987 446.3 830.311 446.662 826.764 445.958C823.216 445.254 819.958 443.515 817.401 440.961C814.843 438.407 813.101 435.153 812.395 431.61C811.689 428.067 812.051 424.394 813.435 421.057C814.818 417.719 817.162 414.866 820.169 412.859C823.176 410.852 826.711 409.781 830.327 409.781C832.731 409.769 835.113 410.234 837.336 411.147C839.56 412.061 841.579 413.405 843.279 415.103C844.98 416.8 846.326 418.818 847.241 421.038C848.156 423.258 848.622 425.638 848.611 428.039V428.039Z" fill="#FBBEBE"/>
<path opacity="0.1" d="M850.796 452.476L848.616 463.216L837.897 481.208L824.681 475.568C824.681 475.568 806.697 456.771 818.005 454.087C819.357 453.797 820.633 453.23 821.755 452.421C819.716 458.018 828.131 469.662 828.131 469.662C829.112 471.104 831.357 470.206 831.357 470.206C836.779 469.384 846.758 453.81 848.387 451.218C849.099 451.792 849.918 452.219 850.796 452.476Z" fill="black"/>
<path opacity="0.1" d="M861.145 556.603C857.963 557.327 840.355 561.219 833.679 560.245C826.333 559.156 812.049 558.459 812.049 558.459C812.049 558.459 802.953 558.949 800.152 557.67C800.152 557.332 800.152 557.126 800.152 557.126L805.34 550.92C805.34 550.92 855.521 547.158 859.292 550.92C860.235 551.861 860.807 553.963 861.145 556.603Z" fill="black"/>
<path d="M828.125 470.201C828.125 470.201 818.67 457.136 822.234 452.019L806.261 458.551C806.261 458.551 796.648 457.386 793.182 471.719C792.628 474.101 792.428 476.552 792.588 478.992C792.719 481.17 792.424 484.98 789.956 489.879C786.016 497.757 786.909 515.84 794.975 517.642C803.04 519.444 805.901 518.535 805.901 518.535C805.901 518.535 804.811 551.295 800.168 555.057C795.525 558.818 812.049 557.92 812.049 557.92C812.049 557.92 826.332 558.639 833.684 559.711C841.036 560.784 861.641 555.95 861.641 555.95C861.641 555.95 858.594 542.166 857.515 533.396C856.436 524.627 853.924 505.944 853.924 505.944L872.202 481.208C872.202 481.208 875.429 466.259 864.137 459.634C852.845 453.009 848.6 451.387 848.6 451.387C848.6 451.387 837.253 469.841 831.341 470.734C831.351 470.734 829.106 471.638 828.125 470.201Z" fill="#F9813A"/>
<path opacity="0.1" d="M807.155 475.388C807.155 475.388 806.981 481.3 808.054 483.625C809.128 485.949 813.074 498.867 813.074 498.867H804.109C804.109 498.867 808.948 493.674 808.594 491.164C808.24 488.655 807.155 475.388 807.155 475.388Z" fill="#F9813A"/>
<path d="M833.684 519.967C833.684 519.967 813.891 515.133 812.049 511.017C810.207 506.902 805.122 497.686 805.122 497.686L807.209 494.877L816.833 502.422C816.833 502.422 828.278 511.551 833.684 512.449C839.09 513.347 833.684 519.967 833.684 519.967Z" fill="#FBBEBE"/>
<path opacity="0.05" d="M833.684 519.967C833.684 519.967 813.891 515.133 812.049 511.017C810.207 506.902 805.122 497.686 805.122 497.686L807.209 494.877L816.833 502.422C816.833 502.422 828.278 511.551 833.684 512.449C839.09 513.347 833.684 519.967 833.684 519.967Z" fill="black"/>
<path d="M850.796 496.695V507.419H849.074C840.546 507.417 832.159 509.587 824.703 513.723L821.466 515.514L820.6 515.998L815.041 503.478L820.24 498.824H820.507C821.777 498.949 827.276 499.406 829.608 498.622C831.821 497.871 834.567 495.492 841.085 497.152C844.295 497.974 847.042 501.567 850.153 500.446L850.796 496.695Z" fill="#FBBEBE"/>
<path opacity="0.1" d="M868.094 477.163L871.674 481.191V490.952C871.674 490.952 868.628 521.741 858.954 525.144C849.281 528.546 832 523.173 832 523.173C832 523.173 827.537 511.36 829.624 510.653C831.711 509.945 848.071 505.623 848.071 505.623C848.071 505.623 847.843 487.561 851.423 482.188C851.423 482.188 849.096 465.361 857.161 465.002C865.227 464.643 868.094 477.163 868.094 477.163Z" fill="black"/>
<path d="M868.638 477.163L872.224 481.191V490.952C872.224 490.952 869.178 521.741 859.499 525.144C849.821 528.546 832.545 523.173 832.545 523.173C832.545 523.173 828.082 511.36 830.175 510.653C832.267 509.945 848.622 505.623 848.622 505.623C848.622 505.623 848.387 487.561 851.973 482.188C851.973 482.188 849.641 465.361 857.706 465.002C865.772 464.643 868.638 477.163 868.638 477.163Z" fill="#F9813A"/>
<path opacity="0.1" d="M843.597 435.791C843.751 434.612 843.611 433.413 843.188 432.302C842.681 431.213 841.499 430.391 840.343 430.668C838.812 431.028 838.164 433.02 836.649 433.499C835.379 433.902 833.995 433.004 833.379 431.823C832.763 430.641 832.757 429.253 832.757 427.925C832.757 426.433 832.757 424.936 832.757 423.439C832.757 421.806 832.703 420.053 831.7 418.774C830.452 417.184 827.515 416.488 825.553 416.553C824.248 416.568 822.995 417.071 822.043 417.963C820.997 418.856 819.782 419.509 818.354 419.275C817.759 419.186 817.201 418.93 816.745 418.537C816.29 418.144 815.956 417.629 815.782 417.054V416.999C817.302 414.98 819.226 413.298 821.431 412.059C823.636 410.821 826.074 410.053 828.591 409.805C831.109 409.556 833.65 409.832 836.055 410.616C838.46 411.399 840.676 412.672 842.563 414.355C844.45 416.038 845.967 418.094 847.017 420.393C848.067 422.691 848.629 425.183 848.666 427.709C848.702 430.236 848.214 432.742 847.23 435.071C846.247 437.399 844.791 439.498 842.954 441.235C843.269 439.433 843.484 437.616 843.597 435.791V435.791Z" fill="black"/>
<path d="M818.354 418.747C817.758 418.655 817.2 418.398 816.744 418.004C816.288 417.61 815.953 417.096 815.776 416.52C815.629 415.943 815.667 415.328 815.498 414.757C815.079 413.347 813.575 412.617 812.566 411.545C810.55 409.405 810.681 405.889 812.109 403.314C813.264 401.24 815.498 399.503 817.842 399.895C819.291 400.146 820.567 401.175 822.016 401.272C823.466 401.37 824.741 400.57 826.011 399.982C829.124 398.57 832.626 398.259 835.94 399.1C836.956 399.304 837.898 399.781 838.665 400.478C839.185 401.132 839.671 401.814 840.12 402.519C841.788 404.642 844.779 405.061 847.444 405.54C850.109 406.019 853.123 407.075 853.984 409.634C854.567 411.332 853.984 413.172 853.668 414.936C853.563 415.296 853.588 415.681 853.739 416.025C854.158 416.711 855.199 416.422 855.984 416.569C857.494 416.89 857.881 418.834 857.94 420.38C858.002 422.144 858.049 423.909 858.082 425.677C858.126 426.334 858.072 426.994 857.924 427.636C857.597 428.556 857.079 429.397 856.404 430.102L850.485 437.206C847.859 440.353 845.074 444.022 845.581 448.094C844.338 448.638 842.856 447.577 842.452 446.276C842.049 444.975 842.371 443.554 842.649 442.242C843.131 439.936 843.448 437.598 843.597 435.247C843.751 434.069 843.611 432.872 843.188 431.763C842.681 430.674 841.499 429.852 840.343 430.13C838.807 430.489 838.164 432.481 836.649 432.96C835.379 433.363 833.995 432.465 833.379 431.284C832.763 430.102 832.757 428.72 832.757 427.391V422.9C832.757 421.267 832.703 419.514 831.7 418.235C830.452 416.645 827.515 415.949 825.553 416.014C824.25 416.03 822.999 416.533 822.049 417.424C820.997 418.322 819.782 418.981 818.354 418.747Z" fill="#7C5C5C"/>
<path opacity="0.1" d="M822.479 474.942L828.093 497.974C828.093 497.974 832.518 497.947 822.479 474.942Z" fill="black"/>
<path opacity="0.1" d="M841.657 471.093C841.657 471.093 834.311 483.113 837.177 495.546L838.545 495.644C838.545 495.644 836.104 489.89 841.657 471.093Z" fill="black"/>
<path opacity="0.1" d="M846.295 539.123C846.295 539.123 855.32 536.14 855.974 543.059C855.995 543.059 854.295 538.318 846.295 539.123Z" fill="black"/>
<path opacity="0.1" d="M820.24 499.379C820.24 499.379 818.447 511.899 821.673 516.924C821.673 516.924 815.133 519.608 805.901 519.074L804.812 499.379H820.24Z" fill="black"/>
<path opacity="0.1" d="M821.466 515.514L820.6 515.998L815.041 503.478L820.24 498.824H820.507C820.425 499.444 818.976 510.206 821.466 515.514Z" fill="black"/>
<path d="M820.24 498.845C820.24 498.845 818.447 511.366 821.673 516.385C821.673 516.385 815.133 519.074 805.902 518.535L799.629 498.845H820.24Z" fill="#F9813A"/>
<path d="M804.741 707.927C804.637 708.82 804.238 709.654 803.608 710.297C802.977 710.939 802.151 711.354 801.258 711.476C796.392 712.2 784.67 714.051 781.71 715.461C777.945 717.252 763.073 716.005 762.353 714.209C762.249 713.847 762.219 713.468 762.263 713.094C762.307 712.721 762.424 712.359 762.609 712.031C763.12 710.941 763.96 710.038 765.013 709.451C765.36 709.258 765.725 709.097 766.103 708.972C768.904 708.041 774.195 706.06 775.623 703.98C775.623 703.98 782.223 698.215 784.103 695.101C784.456 694.489 784.955 693.972 785.556 693.598C786.157 693.224 786.841 693.004 787.547 692.957C789.117 692.886 790.866 693.675 791.585 697.11C791.585 697.11 800.179 702.009 802.485 697.714C802.485 697.714 802.844 704.312 804.272 706.119C804.467 706.374 804.61 706.665 804.69 706.976C804.771 707.286 804.788 707.609 804.741 707.927V707.927Z" fill="#A27772"/>
<path opacity="0.1" d="M804.741 707.927C804.637 708.82 804.238 709.654 803.608 710.297C802.977 710.939 802.151 711.354 801.259 711.476C796.392 712.2 784.67 714.051 781.711 715.461C777.945 717.252 763.073 716.005 762.353 714.209C762.249 713.847 762.219 713.468 762.263 713.094C762.307 712.721 762.424 712.359 762.609 712.031C763.12 710.941 763.96 710.038 765.013 709.451C767.438 711.084 772.822 712.63 784.664 710.785C795.961 709.021 801.558 707.295 804.283 706.12C804.476 706.375 804.617 706.666 804.695 706.977C804.774 707.287 804.789 707.61 804.741 707.927V707.927Z" fill="black"/>
<g opacity="0.1">
<path opacity="0.1" d="M853.641 415.187V415.099C853.897 413.76 854.284 412.378 854.186 411.033C854.072 412.132 853.89 413.223 853.641 414.299C853.574 414.591 853.574 414.895 853.641 415.187V415.187Z" fill="black"/>
<path opacity="0.1" d="M843.183 431.942C843.468 432.587 843.618 433.284 843.625 433.989C843.705 433.017 843.554 432.039 843.183 431.137C842.682 430.048 841.499 429.226 840.344 429.504C838.807 429.863 838.164 431.855 836.643 432.334C835.379 432.737 833.995 431.839 833.374 430.658C832.752 429.476 832.752 428.088 832.752 426.76C832.752 425.263 832.752 423.771 832.752 422.274C832.752 420.641 832.698 418.888 831.695 417.609C830.442 416.014 827.51 415.323 825.548 415.383C824.242 415.399 822.99 415.904 822.038 416.798C820.987 417.691 819.777 418.344 818.343 418.11C817.749 418.019 817.192 417.763 816.737 417.37C816.282 416.977 815.947 416.463 815.771 415.889C815.624 415.312 815.662 414.691 815.493 414.12C815.074 412.715 813.569 411.98 812.561 410.913C811.616 409.866 811.08 408.513 811.052 407.103C810.977 407.93 811.073 408.764 811.333 409.553C811.592 410.342 812.01 411.07 812.561 411.692C813.569 412.78 815.074 413.494 815.493 414.898C815.662 415.442 815.624 416.09 815.771 416.667C815.947 417.242 816.282 417.755 816.737 418.148C817.192 418.541 817.749 418.798 818.343 418.888C819.777 419.122 820.987 418.469 822.038 417.576C822.99 416.683 824.242 416.178 825.548 416.161C827.51 416.101 830.453 416.792 831.695 418.387C832.698 419.667 832.747 421.425 832.752 423.053C832.752 424.55 832.752 426.041 832.752 427.538C832.752 428.867 832.752 430.26 833.374 431.431C833.995 432.601 835.363 433.515 836.643 433.113C838.148 432.634 838.823 430.641 840.344 430.282C841.499 430.032 842.682 430.892 843.183 431.942Z" fill="black"/>
<path opacity="0.1" d="M857.913 427.016C857.585 427.935 857.065 428.773 856.388 429.476L850.469 436.58C847.979 439.569 845.346 443.031 845.564 446.847C845.744 443.347 848.186 440.162 850.469 437.386L856.388 430.282C857.065 429.579 857.585 428.74 857.913 427.821C858.062 427.177 858.115 426.515 858.071 425.856C858.063 426.247 858.01 426.636 857.913 427.016V427.016Z" fill="black"/>
<path opacity="0.1" d="M842.48 445.65C842.383 445.338 842.322 445.017 842.3 444.691C842.25 445.285 842.311 445.883 842.48 446.455C842.883 447.751 844.36 448.823 845.608 448.268C845.573 448.008 845.551 447.746 845.542 447.484C844.3 447.979 842.861 446.923 842.48 445.65Z" fill="black"/>
</g>
<path opacity="0.1" d="M782.909 696.74C782.909 696.74 784.784 700.006 791.574 697.132Z" fill="black"/>
<path opacity="0.1" d="M840.3 697.535C840.3 697.535 846.153 704.421 853.532 699.794Z" fill="black"/>
<path opacity="0.1" d="M857.336 616.103C857.336 616.103 853.2 618.683 853.069 620.158C852.938 621.633 855.205 619.069 855.205 619.069L857.336 616.103Z" fill="black"/>
<path opacity="0.1" d="M858.971 635.896C857.532 637.091 855.744 637.789 853.875 637.883C850.78 638.019 851.042 642.047 853.063 640.839C855.085 639.63 858.971 635.896 858.971 635.896Z" fill="black"/>
<path opacity="0.1" d="M859.755 638.482C859.755 638.482 857.771 648.22 856.158 646.342Z" fill="black"/>
<path d="M516.294 535.743L516.251 537.73L515.804 535.83L516.294 535.743Z" fill="#FDC2CC"/>
<path opacity="0.05" d="M550.623 596.063L550.58 598.05L550.133 596.15L550.623 596.063Z" fill="black"/>
<path d="M565.218 555.416C563.082 555.423 561.02 554.635 559.43 553.208C558.541 552.414 557.823 551.447 557.321 550.367C556.818 549.286 556.542 548.114 556.509 546.922L522.492 522.18C521.465 521.434 520.613 520.473 519.993 519.366C519.374 518.258 519.001 517.029 518.902 515.764C518.803 514.499 518.979 513.227 519.418 512.036C519.858 510.845 520.55 509.764 521.447 508.867L546.773 483.539C547.817 482.495 549.146 481.784 550.594 481.496C552.041 481.208 553.542 481.356 554.905 481.921C556.269 482.486 557.434 483.442 558.254 484.669C559.074 485.897 559.512 487.34 559.512 488.816C559.305 492.687 557.779 496.372 555.187 499.256L537.992 516.454L564.981 537.969C565.064 537.963 565.147 537.959 565.232 537.959C567.46 537.959 569.604 538.811 571.225 540.341C572.845 541.871 573.819 543.962 573.947 546.187C574.075 548.412 573.347 550.602 571.912 552.307C570.478 554.013 568.445 555.105 566.232 555.36C565.895 555.398 565.557 555.416 565.218 555.416V555.416Z" fill="#FFB8B8"/>
<path d="M605.641 701.557L614.769 698.15L605.969 661.319L592.498 666.348L605.641 701.557Z" fill="#FFB8B8"/>
<path d="M635.536 700.054L606.849 710.764L602.711 699.68L620.707 692.961C623.542 691.902 626.682 692.014 629.436 693.27C632.189 694.527 634.331 696.826 635.389 699.661L635.536 700.054V700.054Z" fill="#2F2E41"/>
<path d="M523.525 703.229H533.268L537.903 665.645L523.523 665.646L523.525 703.229Z" fill="#FFB8B8"/>
<path d="M552.058 712.275L521.438 712.277L521.437 700.445L540.646 700.444C543.672 700.444 546.575 701.646 548.715 703.787C550.856 705.927 552.058 708.83 552.058 711.856L552.058 712.275V712.275Z" fill="#2F2E41"/>
<path d="M534.041 692.973C533.931 692.973 533.822 692.968 533.712 692.958L523.384 691.974C522.546 691.894 521.767 691.511 521.192 690.896C520.617 690.281 520.286 689.478 520.263 688.637C519.667 666.269 518.165 553.381 547.213 527.512C547.716 527.069 548.341 526.787 549.006 526.701V526.701C554.267 525.979 572.018 524.211 579.532 531.769C580.009 532.245 580.339 532.847 580.483 533.505L613.375 685.595C613.476 686.063 613.479 686.547 613.383 687.016C613.287 687.485 613.095 687.929 612.818 688.32C612.541 688.71 612.186 689.039 611.775 689.285C611.364 689.531 610.907 689.688 610.432 689.748L597.82 691.324C597.365 691.382 596.903 691.347 596.461 691.224C596.019 691.1 595.606 690.889 595.246 690.604C594.887 690.318 594.588 689.964 594.367 689.561C594.147 689.159 594.009 688.716 593.962 688.259C592.707 676.034 585.167 613.935 559.899 591.922C559.557 591.622 559.145 591.412 558.701 591.312C558.257 591.212 557.795 591.226 557.357 591.351C556.928 591.47 556.537 591.696 556.22 592.008C555.902 592.32 555.67 592.708 555.544 593.135C550.867 608.442 535.74 660.614 537.478 689.317C537.507 689.787 537.44 690.257 537.28 690.699C537.121 691.141 536.872 691.546 536.55 691.889C536.228 692.231 535.839 692.504 535.408 692.691C534.976 692.877 534.511 692.973 534.041 692.973V692.973Z" fill="#2F2E41"/>
<path d="M553.917 465.281C564.315 465.281 572.745 456.851 572.745 446.452C572.745 436.053 564.315 427.623 553.917 427.623C543.519 427.623 535.089 436.053 535.089 446.452C535.089 456.851 543.519 465.281 553.917 465.281Z" fill="#FFB8B8"/>
<path d="M535.43 481.913C535.43 481.913 552.914 461.249 567.218 477.939C576.422 488.678 581.29 502.464 580.87 516.602L580.331 534.766L547.351 529.6L535.43 481.913Z" fill="#FF7E5F"/>
<path d="M581.375 521.954C581.238 521.954 581.101 521.951 580.963 521.945C579.554 521.887 578.175 521.523 576.92 520.88C575.665 520.236 574.565 519.328 573.695 518.218L552.296 490.931C551.385 489.77 550.839 488.364 550.727 486.893C550.615 485.421 550.942 483.949 551.666 482.663C552.39 481.377 553.48 480.335 554.796 479.668C556.113 479.001 557.598 478.74 559.063 478.917L562.076 479.281C564 479.619 565.75 480.605 567.036 482.075L583.916 503.6L608.513 479.385C608.518 479.302 608.523 479.219 608.534 479.135C608.739 477.431 609.443 475.825 610.556 474.519C611.669 473.213 613.143 472.263 614.793 471.79C616.443 471.317 618.195 471.341 619.832 471.859C621.468 472.376 622.916 473.365 623.993 474.701C625.07 476.037 625.73 477.662 625.889 479.371C626.049 481.08 625.701 482.798 624.889 484.31C624.077 485.823 622.837 487.062 621.324 487.873C619.812 488.684 618.094 489.032 616.385 488.872L588.518 518.841C587.606 519.823 586.501 520.607 585.271 521.142C584.042 521.678 582.716 521.954 581.375 521.954V521.954Z" fill="#FFB8B8"/>
<path d="M556.969 449.71L565.058 440.179C567.143 437.723 569.323 435.048 569.618 431.84C569.941 428.323 567.802 424.905 564.878 422.925C561.954 420.945 558.364 420.2 554.843 419.926C548.313 419.419 541.442 420.498 536.074 424.251C530.706 428.004 527.195 434.779 528.503 441.197C529.534 446.25 533.331 451.091 531.855 456.033C530.24 461.44 523.617 463.099 518.21 464.711C509.134 467.417 500.467 472.745 495.71 480.936C490.953 489.127 490.974 500.422 497.315 507.458C501.421 512.014 507.613 514.318 513.736 514.665C519.86 515.011 525.954 513.569 531.761 511.596C537.109 509.78 542.399 507.443 546.61 503.678C550.82 499.913 553.853 494.525 553.722 488.878C553.597 483.496 550.714 478.594 549.53 473.342C548.596 468.945 548.841 464.379 550.241 460.107C551.64 455.835 554.144 452.009 557.499 449.017" fill="#2F2E41"/>
</g>
<defs>
<filter id="filter0_b" x="215" y="13" width="962.535" height="1038.41" filterUnits="userSpaceOnUse" color-interpolation-filters="sRGB">
<feFlood flood-opacity="0" result="BackgroundImageFix"/>
<feGaussianBlur in="BackgroundImage" stdDeviation="5"/>
<feComposite in2="SourceAlpha" operator="in" result="effect1_backgroundBlur"/>
<feBlend mode="normal" in="SourceGraphic" in2="effect1_backgroundBlur" result="shape"/>
</filter>
<linearGradient id="paint0_linear" x1="349.196" y1="150.609" x2="1199.31" y2="851.391" gradientUnits="userSpaceOnUse">
<stop offset="0.0833333" stop-color="#FF9B21"/>
<stop offset="0.447917" stop-color="#FF9038"/>
<stop offset="0.9375" stop-color="#FF7E5F"/>
</linearGradient>
<linearGradient id="paint1_linear" x1="619.474" y1="664.671" x2="619.474" y2="342.9" gradientUnits="userSpaceOnUse">
<stop stop-color="#808080" stop-opacity="0.25"/>
<stop offset="0.54" stop-color="#808080" stop-opacity="0.12"/>
<stop offset="1" stop-color="#808080" stop-opacity="0.1"/>
</linearGradient>
<linearGradient id="paint2_linear" x1="75418.7" y1="260355" x2="75418.7" y2="57258.2" gradientUnits="userSpaceOnUse">
<stop stop-color="#808080" stop-opacity="0.25"/>
<stop offset="0.54" stop-color="#808080" stop-opacity="0.12"/>
<stop offset="1" stop-color="#808080" stop-opacity="0.1"/>
</linearGradient>
<linearGradient id="paint3_linear" x1="99866.3" y1="265039" x2="99866.3" y2="77086.1" gradientUnits="userSpaceOnUse">
<stop stop-color="#808080" stop-opacity="0.25"/>
<stop offset="0.54" stop-color="#808080" stop-opacity="0.12"/>
<stop offset="1" stop-color="#808080" stop-opacity="0.1"/>
</linearGradient>
<clipPath id="clip0">
<rect width="620" height="468" fill="white" transform="translate(357 278)"/>
</clipPath>
</defs>
</svg>
