<svg width="779" height="479" viewBox="0 0 779 479" fill="none" xmlns="http://www.w3.org/2000/svg">
<path fill-rule="evenodd" clip-rule="evenodd" d="M519.69 181.663C567.748 189.556 621.579 170.825 663.247 196.037C705.095 221.357 749.58 268.398 743.182 316.89C735.899 372.078 659.228 389.887 631.313 438.049C612.809 469.972 623.557 510.804 610.732 545.402C594.587 588.95 581.987 637.163 546.424 667.036C509.394 698.142 459.153 715.453 410.839 713.313C362.714 711.18 325.554 672.247 280.48 655.251C229.902 636.18 168.311 642.541 127.909 606.63C86.9738 570.244 60.3373 514.046 60.0023 459.279C59.6702 404.981 97.8781 359.02 126.111 312.639C148.94 275.133 186.062 250.014 209.847 213.107C237.275 170.55 227.869 92.0054 276.767 78.8758C330.246 64.5163 370.382 134.732 421.379 156.31C452.942 169.665 485.871 176.108 519.69 181.663Z" fill="url(#paint0_linear)"/>
<defs>
<linearGradient id="paint0_linear" x1="527.217" y1="127.062" x2="251.559" y2="672.812" gradientUnits="userSpaceOnUse">
<stop stop-color="#FF9B21"/>
<stop offset="0.536458" stop-color="#FF8E3E"/>
<stop offset="1" stop-color="#FF7E5F"/>
</linearGradient>
</defs>
</svg>
