<svg width="898" height="1005" viewBox="0 0 898 1005" fill="none" xmlns="http://www.w3.org/2000/svg">
<path fill-rule="evenodd" clip-rule="evenodd" d="M508.408 35.6204C599.756 6.43267 706.233 -5.46044 790.71 38.0067C875.045 81.4007 903.415 180.657 948.278 261.952C991.946 341.082 1048.28 416.958 1049.41 506.795C1050.58 599.673 1024.97 700.726 954.591 764.734C886.573 826.591 776.036 799.7 689.615 834.002C601.107 869.133 536.936 989.554 444.441 967.224C350.469 944.537 358.737 802.846 289.861 737.492C221.973 673.077 86.3778 680.515 51.9728 594.831C18.2773 510.915 80.6683 417.021 130.358 340.262C173.634 273.41 251.016 240.973 313.78 190.396C379.641 137.324 426.997 61.6331 508.408 35.6204Z" fill="url(#paint0_linear)"/>
<g filter="url(#filter0_b)">
<path fill-rule="evenodd" clip-rule="evenodd" d="M803.167 559.869C782.278 626.268 787.751 706.189 735.242 751.73C681.559 798.288 600.852 812.473 528.514 798.073C462.105 784.853 428.67 710.516 368.339 678.693C293.7 639.323 173.743 667.206 137.724 591.941C102.651 518.651 189.811 449.387 225.067 379.308C252.807 324.168 275.175 267.695 321.463 226.717C371.116 182.759 428.6 144.757 496.384 139.11C567.531 133.183 638.235 157.914 700.85 195.111C767.238 234.55 839.56 282.225 860.011 355.13C880.078 426.669 824.934 490.676 803.167 559.869Z" fill="white" fill-opacity="0.3"/>
</g>
<defs>
<filter id="filter0_b" x="119.562" y="128.233" width="754.769" height="685.221" filterUnits="userSpaceOnUse" color-interpolation-filters="sRGB">
<feFlood flood-opacity="0" result="BackgroundImageFix"/>
<feGaussianBlur in="BackgroundImage" stdDeviation="5"/>
<feComposite in2="SourceAlpha" operator="in" result="effect1_backgroundBlur"/>
<feBlend mode="normal" in="SourceGraphic" in2="effect1_backgroundBlur" result="shape"/>
</filter>
<linearGradient id="paint0_linear" x1="501.883" y1="21.9091" x2="583.964" y2="960.105" gradientUnits="userSpaceOnUse">
<stop stop-color="#FF7E5F"/>
<stop offset="1" stop-color="#FF9B21"/>
</linearGradient>
</defs>
</svg>
