<svg id="strokes" width="1056" height="60" viewBox="0 0 1056 60" fill="none" xmlns="http://www.w3.org/2000/svg">
<path d="M37.1362 56H1.83936V5.58594H11.9292V45.9102H37.1362V56Z" stroke="#F9813A" stroke-width="2"/>
<path d="M60.0623 46.7891C60.4373 46.9062 60.8123 46.9883 61.1873 47.0352C61.5623 47.0586 61.9373 47.0703 62.3123 47.0703C63.2498 47.0703 64.1522 46.9414 65.0194 46.6836C65.8865 46.4258 66.6951 46.0625 67.4451 45.5938C68.2186 45.1016 68.8983 44.5156 69.4842 43.8359C70.0936 43.1328 70.5858 42.3594 70.9608 41.5156L77.992 48.582C77.1014 49.8477 76.0701 50.9844 74.8983 51.9922C73.7498 53 72.4959 53.8555 71.1365 54.5586C69.8006 55.2617 68.3826 55.7891 66.8826 56.1406C65.4061 56.5156 63.8826 56.7031 62.3123 56.7031C59.6639 56.7031 57.1678 56.2109 54.824 55.2266C52.5037 54.2422 50.4647 52.8711 48.7069 51.1133C46.9725 49.3555 45.6014 47.2695 44.5936 44.8555C43.5858 42.418 43.0819 39.7461 43.0819 36.8398C43.0819 33.8633 43.5858 31.1445 44.5936 28.6836C45.6014 26.2227 46.9725 24.125 48.7069 22.3906C50.4647 20.6562 52.5037 19.3086 54.824 18.3477C57.1678 17.3867 59.6639 16.9062 62.3123 16.9062C63.8826 16.9062 65.4178 17.0938 66.9178 17.4688C68.4178 17.8438 69.8358 18.3828 71.1717 19.0859C72.5311 19.7891 73.7967 20.6562 74.9686 21.6875C76.1404 22.6953 77.1717 23.832 78.0623 25.0977L60.0623 46.7891ZM64.9842 26.9961C64.5389 26.832 64.0936 26.7266 63.6483 26.6797C63.2264 26.6328 62.7811 26.6094 62.3123 26.6094C60.9998 26.6094 59.7576 26.8555 58.5858 27.3477C57.4373 27.8164 56.4295 28.4961 55.5623 29.3867C54.7186 30.2773 54.0506 31.3555 53.5584 32.6211C53.0662 33.8633 52.8201 35.2695 52.8201 36.8398C52.8201 37.1914 52.8319 37.5898 52.8553 38.0352C52.9022 38.4805 52.9608 38.9375 53.0311 39.4062C53.1248 39.8516 53.2303 40.2852 53.3475 40.707C53.4647 41.1289 53.617 41.5039 53.8045 41.832L64.9842 26.9961Z" stroke="#F9813A" stroke-width="2"/>
<path d="M106.473 56C104.152 56 101.973 55.5664 99.9337 54.6992C97.8947 53.8086 96.1017 52.6016 94.5548 51.0781C93.0314 49.5312 91.8244 47.7383 90.9337 45.6992C90.0665 43.6602 89.6329 41.4805 89.6329 39.1602V27.9805H84.9572V18.418H89.6329V3.37109H99.1954V18.418H113.75V27.9805H99.1954V39.1602C99.1954 40.168 99.3829 41.1172 99.7579 42.0078C100.133 42.875 100.649 43.6367 101.305 44.293C101.961 44.9492 102.735 45.4766 103.625 45.875C104.516 46.25 105.465 46.4375 106.473 46.4375H113.75V56H106.473Z" stroke="#F9813A" stroke-width="2"/>
<path d="M134.883 11.4922C134.883 12.5234 134.778 13.6367 134.567 14.832C134.379 16.0039 134.063 17.1758 133.618 18.3477C133.196 19.4961 132.633 20.5977 131.93 21.6523C131.227 22.707 130.383 23.5977 129.399 24.3242L125.602 21.6523C126.235 20.9023 126.715 20.1875 127.043 19.5078C127.372 18.8281 127.629 18.1484 127.817 17.4688C127.114 17.3516 126.457 17.1172 125.848 16.7656C125.239 16.4141 124.711 15.9805 124.266 15.4648C123.844 14.9258 123.504 14.3164 123.247 13.6367C122.989 12.957 122.86 12.2422 122.86 11.4922C122.86 10.6953 123.012 9.93359 123.317 9.20703C123.645 8.48047 124.079 7.84766 124.618 7.30859C125.18 6.74609 125.813 6.3125 126.516 6.00781C127.243 5.67969 128.016 5.51562 128.836 5.51562C129.68 5.51562 130.465 5.67969 131.192 6.00781C131.942 6.3125 132.586 6.74609 133.125 7.30859C133.665 7.84766 134.086 8.48047 134.391 9.20703C134.719 9.93359 134.883 10.6953 134.883 11.4922Z" stroke="#F9813A" stroke-width="2"/>
<path d="M166.845 56H144.907V46.4375H166.845C167.501 46.4375 168.063 46.2031 168.532 45.7344C169.001 45.2656 169.235 44.7031 169.235 44.0469C169.235 43.3672 169.001 42.9219 168.532 42.7109C168.063 42.5 167.501 42.3945 166.845 42.3945H156.86C155.196 42.3945 153.637 42.0781 152.184 41.4453C150.731 40.8125 149.466 39.957 148.387 38.8789C147.309 37.7773 146.454 36.5 145.821 35.0469C145.212 33.5938 144.907 32.0352 144.907 30.3711C144.907 28.707 145.212 27.1484 145.821 25.6953C146.454 24.2422 147.309 22.9766 148.387 21.8984C149.466 20.8203 150.731 19.9766 152.184 19.3672C153.637 18.7344 155.196 18.418 156.86 18.418H176.302V27.9805H156.86C156.204 27.9805 155.641 28.2148 155.173 28.6836C154.704 29.1523 154.47 29.7148 154.47 30.3711C154.47 31.0508 154.704 31.6367 155.173 32.1289C155.641 32.5977 156.204 32.832 156.86 32.832H166.845C168.485 32.832 170.032 33.1133 171.485 33.6758C172.938 34.2148 174.204 34.9766 175.282 35.9609C176.36 36.9453 177.216 38.1289 177.848 39.5117C178.481 40.8945 178.798 42.4062 178.798 44.0469C178.798 45.7109 178.481 47.2695 177.848 48.7227C177.216 50.1523 176.36 51.418 175.282 52.5195C174.204 53.5977 172.938 54.4531 171.485 55.0859C170.032 55.6953 168.485 56 166.845 56Z" stroke="#F9813A" stroke-width="2"/>
<path d="M246.376 25.8359L239.345 32.9023C238.994 31.918 238.513 31.0391 237.904 30.2656C237.294 29.4688 236.603 28.8008 235.83 28.2617C235.08 27.7227 234.259 27.3125 233.369 27.0312C232.478 26.75 231.564 26.6094 230.626 26.6094C229.314 26.6094 228.072 26.8789 226.9 27.418C225.751 27.957 224.744 28.7188 223.876 29.7031C223.033 30.6641 222.365 31.8125 221.872 33.1484C221.38 34.4844 221.134 35.9609 221.134 37.5781C221.134 38.8906 221.38 40.1211 221.872 41.2695C222.365 42.418 223.033 43.4258 223.876 44.293C224.744 45.1602 225.751 45.8398 226.9 46.332C228.072 46.8242 229.314 47.0703 230.626 47.0703C231.564 47.0703 232.466 46.9414 233.333 46.6836C234.201 46.4258 235.009 46.0625 235.759 45.5938C236.533 45.1016 237.212 44.5156 237.798 43.8359C238.408 43.1328 238.9 42.3594 239.275 41.5156L246.306 48.582C245.415 49.8477 244.384 50.9844 243.212 51.9922C242.064 53 240.81 53.8555 239.451 54.5586C238.115 55.2617 236.697 55.7891 235.197 56.1406C233.72 56.5156 232.197 56.7031 230.626 56.7031C227.978 56.7031 225.482 56.2109 223.138 55.2266C220.818 54.2188 218.779 52.8477 217.021 51.1133C215.287 49.3789 213.915 47.3516 212.908 45.0312C211.9 42.7109 211.396 40.2266 211.396 37.5781C211.396 34.6953 211.9 32 212.908 29.4922C213.915 26.9844 215.287 24.8047 217.021 22.9531C218.779 21.0781 220.818 19.6016 223.138 18.5234C225.482 17.4453 227.978 16.9062 230.626 16.9062C232.197 16.9062 233.732 17.1055 235.232 17.5039C236.755 17.9023 238.197 18.4883 239.556 19.2617C240.939 20.0117 242.205 20.9375 243.353 22.0391C244.525 23.1406 245.533 24.4062 246.376 25.8359Z" stroke="#F9813A" stroke-width="2"/>
<path d="M291.592 36.8398C291.592 39.6523 291.088 42.2773 290.08 44.7148C289.072 47.1289 287.701 49.2266 285.967 51.0078C284.232 52.7656 282.193 54.1602 279.849 55.1914C277.529 56.1992 275.033 56.7031 272.361 56.7031C269.713 56.7031 267.217 56.1992 264.873 55.1914C262.552 54.1602 260.513 52.7656 258.756 51.0078C257.021 49.2266 255.65 47.1289 254.642 44.7148C253.635 42.2773 253.131 39.6523 253.131 36.8398C253.131 33.9805 253.635 31.332 254.642 28.8945C255.65 26.457 257.021 24.3594 258.756 22.6016C260.513 20.8203 262.552 19.4258 264.873 18.418C267.217 17.4102 269.713 16.9062 272.361 16.9062C275.033 16.9062 277.529 17.3867 279.849 18.3477C282.193 19.2852 284.232 20.6328 285.967 22.3906C287.701 24.125 289.072 26.2227 290.08 28.6836C291.088 31.1211 291.592 33.8398 291.592 36.8398ZM281.924 36.8398C281.924 35.293 281.666 33.8984 281.15 32.6562C280.658 31.3906 279.978 30.3125 279.111 29.4219C278.244 28.5078 277.224 27.8164 276.052 27.3477C274.904 26.8555 273.674 26.6094 272.361 26.6094C271.049 26.6094 269.806 26.8555 268.635 27.3477C267.486 27.8164 266.478 28.5078 265.611 29.4219C264.767 30.3125 264.099 31.3906 263.607 32.6562C263.115 33.8984 262.869 35.293 262.869 36.8398C262.869 38.293 263.115 39.6406 263.607 40.8828C264.099 42.125 264.767 43.2031 265.611 44.1172C266.478 45.0312 267.486 45.7578 268.635 46.2969C269.806 46.8125 271.049 47.0703 272.361 47.0703C273.674 47.0703 274.904 46.8242 276.052 46.332C277.224 45.8398 278.244 45.1484 279.111 44.2578C279.978 43.3672 280.658 42.2891 281.15 41.0234C281.666 39.7578 281.924 38.3633 281.924 36.8398Z" stroke="#F9813A" stroke-width="2"/>
<path d="M311.248 56H301.58V3.37109H311.248V56Z" stroke="#F9813A" stroke-width="2"/>
<path d="M332.944 56H323.276V3.37109H332.944V56Z" stroke="#F9813A" stroke-width="2"/>
<path d="M381.428 56H379.108L375.382 50.832C374.467 51.6523 373.495 52.4258 372.464 53.1523C371.456 53.8555 370.389 54.4766 369.264 55.0156C368.139 55.5312 366.979 55.9414 365.784 56.2461C364.612 56.5508 363.417 56.7031 362.198 56.7031C359.549 56.7031 357.053 56.2578 354.71 55.3672C352.389 54.4766 350.35 53.1875 348.592 51.5C346.858 49.7891 345.487 47.7031 344.479 45.2422C343.471 42.7812 342.967 39.9805 342.967 36.8398C342.967 33.9102 343.471 31.2266 344.479 28.7891C345.487 26.3281 346.858 24.2188 348.592 22.4609C350.35 20.7031 352.389 19.3438 354.71 18.3828C357.053 17.3984 359.549 16.9062 362.198 16.9062C363.417 16.9062 364.624 17.0586 365.819 17.3633C367.014 17.668 368.174 18.0898 369.299 18.6289C370.424 19.168 371.491 19.8008 372.499 20.5273C373.53 21.2539 374.491 22.0391 375.382 22.8828L379.108 18.418H381.428V56ZM371.76 36.8398C371.76 35.5273 371.503 34.2617 370.987 33.043C370.495 31.8008 369.815 30.7109 368.948 29.7734C368.081 28.8125 367.061 28.0508 365.889 27.4883C364.741 26.9023 363.51 26.6094 362.198 26.6094C360.885 26.6094 359.643 26.832 358.471 27.2773C357.323 27.7227 356.315 28.3789 355.448 29.2461C354.604 30.1133 353.936 31.1914 353.444 32.4805C352.952 33.7461 352.706 35.1992 352.706 36.8398C352.706 38.4805 352.952 39.9453 353.444 41.2344C353.936 42.5 354.604 43.5664 355.448 44.4336C356.315 45.3008 357.323 45.957 358.471 46.4023C359.643 46.8477 360.885 47.0703 362.198 47.0703C363.51 47.0703 364.741 46.7891 365.889 46.2266C367.061 45.6406 368.081 44.8789 368.948 43.9414C369.815 42.9805 370.495 41.8906 370.987 40.6719C371.503 39.4297 371.76 38.1523 371.76 36.8398Z" stroke="#F9813A" stroke-width="2"/>
<path d="M431.144 36.8398C431.144 39.793 430.64 42.4883 429.632 44.9258C428.624 47.3633 427.253 49.4609 425.519 51.2188C423.784 52.9531 421.745 54.3008 419.401 55.2617C417.081 56.2227 414.585 56.7031 411.913 56.7031C409.265 56.7031 406.769 56.2109 404.425 55.2266C402.105 54.2422 400.065 52.8711 398.308 51.1133C396.573 49.3555 395.202 47.2695 394.194 44.8555C393.187 42.418 392.683 39.7461 392.683 36.8398V3.37109H402.315V20.9492C402.831 20.293 403.452 19.707 404.179 19.1914C404.929 18.6758 405.726 18.2539 406.569 17.9258C407.437 17.5977 408.327 17.3516 409.241 17.1875C410.155 17 411.046 16.9062 411.913 16.9062C414.585 16.9062 417.081 17.4102 419.401 18.418C421.745 19.4023 423.784 20.7852 425.519 22.5664C427.253 24.3477 428.624 26.457 429.632 28.8945C430.64 31.3086 431.144 33.957 431.144 36.8398ZM421.476 36.8398C421.476 35.3867 421.218 34.0391 420.702 32.7969C420.21 31.5312 419.53 30.4414 418.663 29.5273C417.796 28.6133 416.776 27.8984 415.605 27.3828C414.456 26.8672 413.226 26.6094 411.913 26.6094C410.601 26.6094 409.358 26.9023 408.187 27.4883C407.038 28.0508 406.03 28.8125 405.163 29.7734C404.296 30.7109 403.616 31.8008 403.124 33.043C402.632 34.2617 402.386 35.5273 402.386 36.8398C402.386 38.293 402.632 39.6406 403.124 40.8828C403.616 42.125 404.296 43.2031 405.163 44.1172C406.03 45.0312 407.038 45.7578 408.187 46.2969C409.358 46.8125 410.601 47.0703 411.913 47.0703C413.226 47.0703 414.456 46.8125 415.605 46.2969C416.776 45.7578 417.796 45.0312 418.663 44.1172C419.53 43.2031 420.21 42.125 420.702 40.8828C421.218 39.6406 421.476 38.293 421.476 36.8398Z" stroke="#F9813A" stroke-width="2"/>
<path d="M477.554 36.8398C477.554 39.6523 477.05 42.2773 476.042 44.7148C475.035 47.1289 473.663 49.2266 471.929 51.0078C470.195 52.7656 468.156 54.1602 465.812 55.1914C463.492 56.1992 460.995 56.7031 458.324 56.7031C455.675 56.7031 453.179 56.1992 450.835 55.1914C448.515 54.1602 446.476 52.7656 444.718 51.0078C442.984 49.2266 441.613 47.1289 440.605 44.7148C439.597 42.2773 439.093 39.6523 439.093 36.8398C439.093 33.9805 439.597 31.332 440.605 28.8945C441.613 26.457 442.984 24.3594 444.718 22.6016C446.476 20.8203 448.515 19.4258 450.835 18.418C453.179 17.4102 455.675 16.9062 458.324 16.9062C460.995 16.9062 463.492 17.3867 465.812 18.3477C468.156 19.2852 470.195 20.6328 471.929 22.3906C473.663 24.125 475.035 26.2227 476.042 28.6836C477.05 31.1211 477.554 33.8398 477.554 36.8398ZM467.886 36.8398C467.886 35.293 467.628 33.8984 467.113 32.6562C466.62 31.3906 465.941 30.3125 465.074 29.4219C464.206 28.5078 463.187 27.8164 462.015 27.3477C460.867 26.8555 459.636 26.6094 458.324 26.6094C457.011 26.6094 455.769 26.8555 454.597 27.3477C453.449 27.8164 452.441 28.5078 451.574 29.4219C450.73 30.3125 450.062 31.3906 449.57 32.6562C449.077 33.8984 448.831 35.293 448.831 36.8398C448.831 38.293 449.077 39.6406 449.57 40.8828C450.062 42.125 450.73 43.2031 451.574 44.1172C452.441 45.0312 453.449 45.7578 454.597 46.2969C455.769 46.8125 457.011 47.0703 458.324 47.0703C459.636 47.0703 460.867 46.8242 462.015 46.332C463.187 45.8398 464.206 45.1484 465.074 44.2578C465.941 43.3672 466.62 42.2891 467.113 41.0234C467.628 39.7578 467.886 38.3633 467.886 36.8398Z" stroke="#F9813A" stroke-width="2"/>
<path d="M497.14 56H487.543V18.3477H489.863L493.027 22.8125C494.574 21.4062 496.332 20.3281 498.3 19.5781C500.269 18.8047 502.308 18.418 504.418 18.418H512.89V27.9805H504.418C503.41 27.9805 502.461 28.168 501.57 28.543C500.679 28.918 499.906 29.4336 499.25 30.0898C498.593 30.7461 498.078 31.5195 497.703 32.4102C497.328 33.3008 497.14 34.25 497.14 35.2578V56Z" stroke="#F9813A" stroke-width="2"/>
<path d="M557.789 56H555.469L551.742 50.832C550.828 51.6523 549.855 52.4258 548.824 53.1523C547.816 53.8555 546.75 54.4766 545.625 55.0156C544.5 55.5312 543.34 55.9414 542.145 56.2461C540.973 56.5508 539.777 56.7031 538.559 56.7031C535.91 56.7031 533.414 56.2578 531.07 55.3672C528.75 54.4766 526.711 53.1875 524.953 51.5C523.219 49.7891 521.848 47.7031 520.84 45.2422C519.832 42.7812 519.328 39.9805 519.328 36.8398C519.328 33.9102 519.832 31.2266 520.84 28.7891C521.848 26.3281 523.219 24.2188 524.953 22.4609C526.711 20.7031 528.75 19.3438 531.07 18.3828C533.414 17.3984 535.91 16.9062 538.559 16.9062C539.777 16.9062 540.984 17.0586 542.18 17.3633C543.375 17.668 544.535 18.0898 545.66 18.6289C546.785 19.168 547.852 19.8008 548.859 20.5273C549.891 21.2539 550.852 22.0391 551.742 22.8828L555.469 18.418H557.789V56ZM548.121 36.8398C548.121 35.5273 547.863 34.2617 547.348 33.043C546.855 31.8008 546.176 30.7109 545.309 29.7734C544.441 28.8125 543.422 28.0508 542.25 27.4883C541.102 26.9023 539.871 26.6094 538.559 26.6094C537.246 26.6094 536.004 26.832 534.832 27.2773C533.684 27.7227 532.676 28.3789 531.809 29.2461C530.965 30.1133 530.297 31.1914 529.805 32.4805C529.312 33.7461 529.066 35.1992 529.066 36.8398C529.066 38.4805 529.312 39.9453 529.805 41.2344C530.297 42.5 530.965 43.5664 531.809 44.4336C532.676 45.3008 533.684 45.957 534.832 46.4023C536.004 46.8477 537.246 47.0703 538.559 47.0703C539.871 47.0703 541.102 46.7891 542.25 46.2266C543.422 45.6406 544.441 44.8789 545.309 43.9414C546.176 42.9805 546.855 41.8906 547.348 40.6719C547.863 39.4297 548.121 38.1523 548.121 36.8398Z" stroke="#F9813A" stroke-width="2"/>
<path d="M588.696 56C586.375 56 584.196 55.5664 582.157 54.6992C580.117 53.8086 578.325 52.6016 576.778 51.0781C575.254 49.5312 574.047 47.7383 573.157 45.6992C572.289 43.6602 571.856 41.4805 571.856 39.1602V27.9805H567.18V18.418H571.856V3.37109H581.418V18.418H595.973V27.9805H581.418V39.1602C581.418 40.168 581.606 41.1172 581.981 42.0078C582.356 42.875 582.871 43.6367 583.528 44.293C584.184 44.9492 584.957 45.4766 585.848 45.875C586.739 46.25 587.688 46.4375 588.696 46.4375H595.973V56H588.696Z" stroke="#F9813A" stroke-width="2"/>
<path d="M621.044 46.7891C621.419 46.9062 621.794 46.9883 622.169 47.0352C622.544 47.0586 622.919 47.0703 623.294 47.0703C624.231 47.0703 625.133 46.9414 626.001 46.6836C626.868 46.4258 627.676 46.0625 628.426 45.5938C629.2 45.1016 629.88 44.5156 630.465 43.8359C631.075 43.1328 631.567 42.3594 631.942 41.5156L638.973 48.582C638.083 49.8477 637.051 50.9844 635.88 51.9922C634.731 53 633.477 53.8555 632.118 54.5586C630.782 55.2617 629.364 55.7891 627.864 56.1406C626.387 56.5156 624.864 56.7031 623.294 56.7031C620.645 56.7031 618.149 56.2109 615.805 55.2266C613.485 54.2422 611.446 52.8711 609.688 51.1133C607.954 49.3555 606.583 47.2695 605.575 44.8555C604.567 42.418 604.063 39.7461 604.063 36.8398C604.063 33.8633 604.567 31.1445 605.575 28.6836C606.583 26.2227 607.954 24.125 609.688 22.3906C611.446 20.6562 613.485 19.3086 615.805 18.3477C618.149 17.3867 620.645 16.9062 623.294 16.9062C624.864 16.9062 626.399 17.0938 627.899 17.4688C629.399 17.8438 630.817 18.3828 632.153 19.0859C633.512 19.7891 634.778 20.6562 635.95 21.6875C637.122 22.6953 638.153 23.832 639.044 25.0977L621.044 46.7891ZM625.965 26.9961C625.52 26.832 625.075 26.7266 624.63 26.6797C624.208 26.6328 623.762 26.6094 623.294 26.6094C621.981 26.6094 620.739 26.8555 619.567 27.3477C618.419 27.8164 617.411 28.4961 616.544 29.3867C615.7 30.2773 615.032 31.3555 614.54 32.6211C614.047 33.8633 613.801 35.2695 613.801 36.8398C613.801 37.1914 613.813 37.5898 613.837 38.0352C613.883 38.4805 613.942 38.9375 614.012 39.4062C614.106 39.8516 614.212 40.2852 614.329 40.707C614.446 41.1289 614.598 41.5039 614.786 41.832L625.965 26.9961Z" stroke="#F9813A" stroke-width="2"/>
<path d="M709.822 36.8398C709.822 39.6523 709.318 42.2773 708.31 44.7148C707.302 47.1289 705.931 49.2266 704.197 51.0078C702.462 52.7656 700.423 54.1602 698.079 55.1914C695.759 56.1992 693.263 56.7031 690.591 56.7031C687.943 56.7031 685.447 56.1992 683.103 55.1914C680.782 54.1602 678.743 52.7656 676.986 51.0078C675.251 49.2266 673.88 47.1289 672.872 44.7148C671.865 42.2773 671.361 39.6523 671.361 36.8398C671.361 33.9805 671.865 31.332 672.872 28.8945C673.88 26.457 675.251 24.3594 676.986 22.6016C678.743 20.8203 680.782 19.4258 683.103 18.418C685.447 17.4102 687.943 16.9062 690.591 16.9062C693.263 16.9062 695.759 17.3867 698.079 18.3477C700.423 19.2852 702.462 20.6328 704.197 22.3906C705.931 24.125 707.302 26.2227 708.31 28.6836C709.318 31.1211 709.822 33.8398 709.822 36.8398ZM700.154 36.8398C700.154 35.293 699.896 33.8984 699.38 32.6562C698.888 31.3906 698.208 30.3125 697.341 29.4219C696.474 28.5078 695.454 27.8164 694.282 27.3477C693.134 26.8555 691.904 26.6094 690.591 26.6094C689.279 26.6094 688.036 26.8555 686.865 27.3477C685.716 27.8164 684.708 28.5078 683.841 29.4219C682.997 30.3125 682.329 31.3906 681.837 32.6562C681.345 33.8984 681.099 35.293 681.099 36.8398C681.099 38.293 681.345 39.6406 681.837 40.8828C682.329 42.125 682.997 43.2031 683.841 44.1172C684.708 45.0312 685.716 45.7578 686.865 46.2969C688.036 46.8125 689.279 47.0703 690.591 47.0703C691.904 47.0703 693.134 46.8242 694.282 46.332C695.454 45.8398 696.474 45.1484 697.341 44.2578C698.208 43.3672 698.888 42.2891 699.38 41.0234C699.896 39.7578 700.154 38.3633 700.154 36.8398Z" stroke="#F9813A" stroke-width="2"/>
<path d="M747.478 51.6055C746.705 52.3086 745.873 52.9766 744.982 53.6094C744.115 54.2188 743.201 54.7578 742.24 55.2266C741.279 55.6719 740.283 56.0234 739.252 56.2812C738.244 56.5625 737.212 56.7031 736.158 56.7031C733.837 56.7031 731.658 56.293 729.619 55.4727C727.58 54.6523 725.787 53.4922 724.24 51.9922C722.716 50.4688 721.509 48.6289 720.619 46.4727C719.752 44.293 719.318 41.8555 719.318 39.1602V18.3477H728.88V39.1602C728.88 40.4258 729.068 41.5625 729.443 42.5703C729.841 43.5547 730.369 44.3867 731.025 45.0664C731.681 45.7461 732.443 46.2617 733.31 46.6133C734.201 46.9648 735.15 47.1406 736.158 47.1406C737.142 47.1406 738.068 46.918 738.935 46.4727C739.826 46.0039 740.599 45.3945 741.255 44.6445C741.912 43.8945 742.427 43.0508 742.802 42.1133C743.177 41.1523 743.365 40.168 743.365 39.1602V18.3477H752.962V56H750.642L747.478 51.6055Z" stroke="#F9813A" stroke-width="2"/>
<path d="M774.588 56H764.99V18.3477H767.31L770.474 22.8125C772.021 21.4062 773.779 20.3281 775.748 19.5781C777.717 18.8047 779.756 18.418 781.865 18.418H790.338V27.9805H781.865C780.857 27.9805 779.908 28.168 779.017 28.543C778.127 28.918 777.353 29.4336 776.697 30.0898C776.041 30.7461 775.525 31.5195 775.15 32.4102C774.775 33.3008 774.588 34.25 774.588 35.2578V56Z" stroke="#F9813A" stroke-width="2"/>
<path d="M872.225 56H862.663V32.0938C862.663 31.4375 862.534 30.8164 862.276 30.2305C862.042 29.6445 861.702 29.1289 861.256 28.6836C860.811 28.2383 860.295 27.8984 859.71 27.6641C859.124 27.4062 858.503 27.2773 857.846 27.2773C857.19 27.2773 856.569 27.4062 855.983 27.6641C855.42 27.8984 854.917 28.2383 854.471 28.6836C854.049 29.1289 853.71 29.6445 853.452 30.2305C853.217 30.8164 853.1 31.4375 853.1 32.0938V56H843.503V32.0938C843.503 31.4375 843.374 30.8164 843.116 30.2305C842.881 29.6445 842.542 29.1289 842.096 28.6836C841.651 28.2383 841.135 27.8984 840.549 27.6641C839.963 27.4062 839.342 27.2773 838.686 27.2773C838.03 27.2773 837.409 27.4062 836.823 27.6641C836.26 27.8984 835.756 28.2383 835.311 28.6836C834.889 29.1289 834.549 29.6445 834.292 30.2305C834.057 30.8164 833.94 31.4375 833.94 32.0938V56H824.342V18.3477H826.663L829.264 21.2305C830.6 20.1055 832.065 19.2383 833.659 18.6289C835.276 17.9961 836.952 17.6797 838.686 17.6797C840.444 17.6797 842.155 18.0078 843.819 18.6641C845.506 19.3203 846.983 20.457 848.249 22.0742C848.835 21.2773 849.503 20.5977 850.253 20.0352C851.003 19.4727 851.788 19.0156 852.608 18.6641C853.452 18.3125 854.319 18.0664 855.21 17.9258C856.1 17.7617 856.979 17.6797 857.846 17.6797C859.838 17.6797 861.702 18.0547 863.436 18.8047C865.194 19.5547 866.717 20.5859 868.006 21.8984C869.319 23.1875 870.35 24.7109 871.1 26.4688C871.85 28.2266 872.225 30.1016 872.225 32.0938V56Z" stroke="#F9813A" stroke-width="2"/>
<path d="M895.257 8.11719C895.257 9.00781 895.081 9.83984 894.729 10.6133C894.401 11.3867 893.944 12.0664 893.358 12.6523C892.772 13.2148 892.081 13.6719 891.284 14.0234C890.511 14.3516 889.679 14.5156 888.788 14.5156C887.897 14.5156 887.054 14.3516 886.257 14.0234C885.483 13.6719 884.804 13.2148 884.218 12.6523C883.655 12.0664 883.198 11.3867 882.847 10.6133C882.518 9.83984 882.354 9.00781 882.354 8.11719C882.354 7.25 882.518 6.42969 882.847 5.65625C883.198 4.85938 883.655 4.17969 884.218 3.61719C884.804 3.03125 885.483 2.57422 886.257 2.24609C887.054 1.89453 887.897 1.71875 888.788 1.71875C889.679 1.71875 890.511 1.89453 891.284 2.24609C892.081 2.57422 892.772 3.03125 893.358 3.61719C893.944 4.17969 894.401 4.85938 894.729 5.65625C895.081 6.42969 895.257 7.25 895.257 8.11719ZM893.604 56H883.936V18.3477H893.604V56Z" stroke="#F9813A" stroke-width="2"/>
<path d="M915.23 56H905.632V18.3477H907.952L911.116 22.0039C912.663 20.5977 914.409 19.5195 916.355 18.7695C918.323 17.9961 920.374 17.6094 922.507 17.6094C924.804 17.6094 926.972 18.0547 929.011 18.9453C931.05 19.8125 932.831 21.0195 934.355 22.5664C935.878 24.0898 937.073 25.8828 937.941 27.9453C938.831 29.9844 939.277 32.1641 939.277 34.4844V56H929.679V34.4844C929.679 33.5 929.491 32.5742 929.116 31.707C928.741 30.8164 928.226 30.043 927.57 29.3867C926.913 28.7305 926.152 28.2148 925.284 27.8398C924.417 27.4648 923.491 27.2773 922.507 27.2773C921.499 27.2773 920.55 27.4648 919.659 27.8398C918.769 28.2148 917.995 28.7305 917.339 29.3867C916.683 30.043 916.167 30.8164 915.792 31.707C915.417 32.5742 915.23 33.5 915.23 34.4844V56Z" stroke="#F9813A" stroke-width="2"/>
<path d="M987.199 56H984.878L981.152 50.832C980.238 51.6523 979.265 52.4258 978.234 53.1523C977.226 53.8555 976.16 54.4766 975.035 55.0156C973.91 55.5312 972.75 55.9414 971.554 56.2461C970.382 56.5508 969.187 56.7031 967.968 56.7031C965.32 56.7031 962.824 56.2109 960.48 55.2266C958.16 54.2188 956.121 52.8359 954.363 51.0781C952.628 49.2969 951.257 47.1992 950.25 44.7852C949.242 42.3477 948.738 39.6992 948.738 36.8398C948.738 34.0039 949.242 31.3672 950.25 28.9297C951.257 26.4922 952.628 24.3828 954.363 22.6016C956.121 20.8203 958.16 19.4258 960.48 18.418C962.824 17.4102 965.32 16.9062 967.968 16.9062C968.812 16.9062 969.679 16.9766 970.57 17.1172C971.484 17.2578 972.363 17.4922 973.207 17.8203C974.074 18.125 974.882 18.5352 975.632 19.0508C976.382 19.5664 977.015 20.1992 977.531 20.9492V3.37109H987.199V56ZM977.531 36.8398C977.531 35.5273 977.273 34.2617 976.757 33.043C976.265 31.8008 975.585 30.7109 974.718 29.7734C973.851 28.8125 972.832 28.0508 971.66 27.4883C970.511 26.9023 969.281 26.6094 967.968 26.6094C966.656 26.6094 965.414 26.8438 964.242 27.3125C963.093 27.7812 962.085 28.4609 961.218 29.3516C960.375 30.2188 959.707 31.2852 959.214 32.5508C958.722 33.8164 958.476 35.2461 958.476 36.8398C958.476 38.2227 958.722 39.5352 959.214 40.7773C959.707 42.0195 960.375 43.1094 961.218 44.0469C962.085 44.9844 963.093 45.7227 964.242 46.2617C965.414 46.8008 966.656 47.0703 967.968 47.0703C969.281 47.0703 970.511 46.7891 971.66 46.2266C972.832 45.6406 973.851 44.8789 974.718 43.9414C975.585 42.9805 976.265 41.8906 976.757 40.6719C977.273 39.4297 977.531 38.1523 977.531 36.8398Z" stroke="#F9813A" stroke-width="2"/>
<path d="M1019.9 56H997.961V46.4375H1019.9C1020.55 46.4375 1021.12 46.2031 1021.59 45.7344C1022.05 45.2656 1022.29 44.7031 1022.29 44.0469C1022.29 43.3672 1022.05 42.9219 1021.59 42.7109C1021.12 42.5 1020.55 42.3945 1019.9 42.3945H1009.91C1008.25 42.3945 1006.69 42.0781 1005.24 41.4453C1003.78 40.8125 1002.52 39.957 1001.44 38.8789C1000.36 37.7773 999.508 36.5 998.875 35.0469C998.265 33.5938 997.961 32.0352 997.961 30.3711C997.961 28.707 998.265 27.1484 998.875 25.6953C999.508 24.2422 1000.36 22.9766 1001.44 21.8984C1002.52 20.8203 1003.78 19.9766 1005.24 19.3672C1006.69 18.7344 1008.25 18.418 1009.91 18.418H1029.36V27.9805H1009.91C1009.26 27.9805 1008.7 28.2148 1008.23 28.6836C1007.76 29.1523 1007.52 29.7148 1007.52 30.3711C1007.52 31.0508 1007.76 31.6367 1008.23 32.1289C1008.7 32.5977 1009.26 32.832 1009.91 32.832H1019.9C1021.54 32.832 1023.09 33.1133 1024.54 33.6758C1025.99 34.2148 1027.26 34.9766 1028.34 35.9609C1029.41 36.9453 1030.27 38.1289 1030.9 39.5117C1031.53 40.8945 1031.85 42.4062 1031.85 44.0469C1031.85 45.7109 1031.53 47.2695 1030.9 48.7227C1030.27 50.1523 1029.41 51.418 1028.34 52.5195C1027.26 53.5977 1025.99 54.4531 1024.54 55.0859C1023.09 55.6953 1021.54 56 1019.9 56Z" stroke="#F9813A" stroke-width="2"/>
<path d="M1051.82 43.5547H1043.98L1041.84 5.58594H1054L1051.82 43.5547ZM1053.93 52.4141C1053.93 53.2578 1053.77 54.0547 1053.44 54.8047C1053.14 55.5312 1052.71 56.1641 1052.18 56.7031C1051.64 57.2422 1051 57.6641 1050.28 57.9688C1049.55 58.2969 1048.78 58.4609 1047.96 58.4609C1047.11 58.4609 1046.33 58.2969 1045.6 57.9688C1044.88 57.6641 1044.23 57.2422 1043.67 56.7031C1043.13 56.1641 1042.7 55.5312 1042.37 54.8047C1042.06 54.0547 1041.91 53.2578 1041.91 52.4141C1041.91 51.5938 1042.06 50.8203 1042.37 50.0938C1042.7 49.3672 1043.13 48.7344 1043.67 48.1953C1044.23 47.6562 1044.88 47.2344 1045.6 46.9297C1046.33 46.6016 1047.11 46.4375 1047.96 46.4375C1048.78 46.4375 1049.55 46.6016 1050.28 46.9297C1051 47.2344 1051.64 47.6562 1052.18 48.1953C1052.71 48.7344 1053.14 49.3672 1053.44 50.0938C1053.77 50.8203 1053.93 51.5938 1053.93 52.4141Z" stroke="#F9813A" stroke-width="2"/>
</svg>
