<svg width="1088" height="1028" viewBox="0 0 1088 1028" fill="none" xmlns="http://www.w3.org/2000/svg">
<path fill-rule="evenodd" clip-rule="evenodd" d="M605.684 95.2924C739.174 99.7151 867.485 155.395 958.915 258.348C1047.67 358.289 1107.33 497.388 1082.23 631.901C1059.63 753.054 934.329 806.058 842.512 882.353C767.879 944.368 700.533 1031.62 605.684 1027.88C512.622 1024.21 464.866 916.526 385.883 864.348C256.967 779.183 44.837 787.389 6.27649 631.901C-32.1734 476.859 113.923 337.747 229.605 234.185C334.962 139.867 467.714 90.7213 605.684 95.2924Z" fill="url(#paint0_linear)"/>
<g filter="url(#filter0_b)">
<path fill-rule="evenodd" clip-rule="evenodd" d="M819.11 329.428C897.439 378.406 1025.94 387.917 1044.42 478.796C1062.74 568.89 949.909 630.651 895.683 705.956C852.61 765.772 824.33 837.838 760.026 873.734C695.133 909.959 616.58 919.828 545.26 901.569C478.3 884.428 442.654 817.137 385.957 777.971C312.972 727.553 193.642 724.295 166.174 639.696C139.204 556.632 222.496 478.948 263.519 400.87C303.229 325.289 323.546 227.362 401.28 192.22C478.395 157.357 564.759 202.522 644.406 228.676C709.996 250.215 760.693 292.902 819.11 329.428Z" fill="white" fill-opacity="0.3"/>
</g>
<g clip-path="url(#clip0)">
<path d="M636.922 555.153C626.184 561.342 607.053 569.097 587.504 561.128L574.866 555.976L600.191 528.693C579.982 507.279 568.802 479.395 568.833 450.486C568.864 421.576 580.103 393.715 600.357 372.34C620.611 350.966 648.426 337.612 678.373 334.886C708.32 332.16 738.249 340.257 762.319 357.596C786.389 374.936 802.871 400.273 808.549 428.663C814.228 457.053 808.694 486.458 793.029 511.138C777.363 535.818 752.691 554.002 723.826 562.14C694.962 570.279 663.978 567.788 636.922 555.153V555.153ZM588.4 450.421C588.345 463.747 591.159 476.941 596.666 489.172C602.173 501.403 610.254 512.406 620.401 521.489L627.386 527.798L611.45 544.966C619.751 543.347 626.981 539.032 630.646 536.525L635.676 533.086L641.086 535.942C656.04 543.811 672.815 547.935 689.863 547.933C745.81 547.933 791.326 504.189 791.326 450.421C791.326 396.652 745.81 352.908 689.863 352.908C633.917 352.908 588.4 396.652 588.4 450.421V450.421Z" fill="#3F3D56"/>
<path d="M578.563 450.421C578.563 391.345 628.394 343.454 689.863 343.454C751.332 343.454 801.163 391.345 801.163 450.421C801.163 509.497 751.332 557.387 689.863 557.387C671.155 557.414 652.745 552.887 636.349 544.229C628.655 549.49 609.886 559.983 591.345 552.424L613.664 528.379C602.569 518.389 593.728 506.313 587.69 492.903C581.652 479.493 578.546 465.033 578.563 450.421Z" fill="#FF9038"/>
<path opacity="0.1" d="M782.203 450.652C782.203 394.763 737.6 348.893 680.74 344.106C683.982 343.833 687.261 343.686 690.577 343.686C752.046 343.686 801.877 391.576 801.877 450.652C801.877 509.728 752.046 557.619 690.577 557.619C687.266 557.619 683.992 557.469 680.755 557.197C737.608 552.403 782.203 506.536 782.203 450.652Z" fill="black"/>
<path d="M433.385 703.753C405.574 703.765 378.604 694.591 356.995 677.767C335.386 660.943 320.45 637.492 314.69 611.343C308.931 585.195 312.699 557.939 325.361 534.143C338.024 510.346 358.813 491.456 384.243 480.638C409.673 469.819 438.2 467.73 465.042 474.72C491.885 481.71 515.412 497.355 531.68 519.032C547.949 540.709 555.97 567.102 554.4 593.787C552.83 620.472 541.764 645.828 523.057 665.604L548.381 692.887L535.744 698.039C516.194 706.009 497.064 698.254 486.326 692.065C469.824 699.753 451.724 703.749 433.385 703.753ZM433.385 489.82C377.438 489.82 331.922 533.564 331.922 587.332C331.922 641.101 377.438 684.844 433.385 684.844C450.433 684.846 467.208 680.723 482.161 672.854L487.571 669.997L492.601 673.437C496.267 675.943 503.497 680.259 511.797 681.877L495.862 664.71L502.847 658.401C512.994 649.317 521.075 638.314 526.582 626.083C532.089 613.852 534.903 600.659 534.847 587.332C534.847 533.564 489.331 489.82 433.385 489.82Z" fill="#3F3D56"/>
<path d="M544.685 587.332C544.685 528.256 494.854 480.365 433.385 480.365C371.916 480.365 322.085 528.256 322.085 587.332C322.085 646.408 371.916 694.299 433.385 694.299C452.093 694.325 470.503 689.798 486.899 681.14C494.592 686.401 513.361 696.895 531.903 689.336L509.584 665.291C520.679 655.3 529.519 643.225 535.557 629.814C541.596 616.404 544.702 601.944 544.685 587.332Z" fill="#FF9038"/>
<path opacity="0.1" d="M341.759 586.792C341.759 530.902 386.361 485.033 443.222 480.246C439.98 479.973 436.701 479.825 433.385 479.825C371.916 479.825 322.085 527.716 322.085 586.792C322.085 645.868 371.916 693.758 433.385 693.758C436.695 693.758 439.969 693.609 443.206 693.336C386.353 688.542 341.759 642.676 341.759 586.792Z" fill="black"/>
<path d="M715.992 416.437C708.709 404.612 694.302 404.061 694.302 404.061C694.302 404.061 680.263 402.335 671.257 420.346C662.863 437.133 651.278 453.341 669.392 457.271L672.664 447.484L674.691 458C677.27 458.178 679.857 458.221 682.441 458.127C701.84 457.525 720.314 458.303 719.72 451.613C718.929 442.72 722.999 427.816 715.992 416.437Z" fill="#2F2E41"/>
<path d="M668.358 519.999C668.144 521.3 667.834 522.584 667.429 523.842C666.973 525.074 666.27 526.213 665.853 527.457C664.525 531.423 666.366 535.845 669.307 538.906C671.857 541.55 675.149 543.429 678.785 544.315C681.462 544.865 684.192 545.141 686.93 545.138C694.5 545.384 702.265 545.605 709.438 543.267C711.704 542.51 713.893 541.554 715.977 540.412C716.635 540.11 717.215 539.672 717.674 539.128C718.155 538.331 718.369 537.411 718.287 536.493C718.271 533.409 717.62 530.341 717.774 527.26C717.86 525.554 718.192 523.848 718.029 522.147C717.802 520.215 716.96 518.398 715.618 516.943C714.275 515.489 712.497 514.469 710.528 514.023C708.494 513.603 706.383 513.832 704.311 514.023C698.934 514.52 693.533 514.752 688.131 514.718C682.611 514.685 677.125 513.875 671.633 513.79C670.009 513.765 670.042 514.246 669.525 515.757C669.048 517.148 668.659 518.564 668.358 519.999Z" fill="#2F2E41"/>
<path d="M684.023 443.842C683.757 445.176 683.471 446.56 682.636 447.657C681.676 448.919 680.11 449.64 679.077 450.848C677.522 452.666 677.433 455.224 677.426 457.578C677.42 459.746 677.466 462.058 678.724 463.858C679.619 464.976 680.731 465.917 681.997 466.631C686.715 469.686 691.812 472.797 697.5 472.898C699.857 472.939 702.384 472.354 703.935 470.648C704.604 469.847 705.131 468.944 705.493 467.977C706.947 464.531 707.829 460.888 708.105 457.179C708.315 455.435 708.146 453.669 707.608 451.991C706.917 450.14 705.52 448.616 704.596 446.861C703.505 444.773 703.106 442.415 703.453 440.102C703.499 439.939 703.484 439.766 703.412 439.612C703.336 439.53 703.242 439.466 703.136 439.424C703.029 439.383 702.915 439.366 702.801 439.374L691.522 438.594C690.472 438.544 689.426 438.429 688.391 438.25C687.783 438.131 686.177 437.301 685.597 437.522C684.524 437.93 684.242 442.735 684.023 443.842Z" fill="#A0616A"/>
<path opacity="0.1" d="M684.023 444.18C683.757 445.515 683.471 446.898 682.636 447.995C681.676 449.257 680.11 449.979 679.077 451.186C677.522 453.004 677.433 455.563 677.426 457.916C677.42 460.084 677.466 462.396 678.724 464.196C679.619 465.314 680.731 466.256 681.997 466.969C686.715 470.025 691.812 473.135 697.501 473.236C699.857 473.278 702.384 472.693 703.935 470.987C704.604 470.185 705.131 469.283 705.493 468.315C706.947 464.87 707.829 461.226 708.105 457.517C708.315 455.774 708.146 454.007 707.608 452.33C706.917 450.478 705.52 448.955 704.596 447.199C703.505 445.112 703.106 442.753 703.453 440.441C703.499 440.278 703.484 440.105 703.412 439.951C703.337 439.868 703.242 439.804 703.136 439.763C703.03 439.721 702.915 439.704 702.801 439.713L691.522 438.932C690.472 438.882 689.426 438.767 688.391 438.588C687.783 438.469 686.177 437.639 685.597 437.86C684.524 438.268 684.242 443.073 684.023 444.18Z" fill="black"/>
<path d="M694.808 445.295C703.947 445.295 711.355 438.175 711.355 429.392C711.355 420.61 703.947 413.49 694.808 413.49C685.67 413.49 678.262 420.61 678.262 429.392C678.262 438.175 685.67 445.295 694.808 445.295Z" fill="#A0616A"/>
<path d="M686.343 465.01C687.161 465.92 688.146 466.677 689.25 467.242C690.4 467.699 691.636 467.925 692.88 467.907C695.863 467.987 699.097 467.462 701.171 465.401C703.846 462.745 703.758 458.46 705.855 455.361C706.023 455.08 706.254 454.837 706.53 454.65C706.882 454.466 707.279 454.379 707.679 454.397C710.327 454.373 712.633 456.023 714.715 457.596C715.695 458.244 716.536 459.067 717.191 460.021C717.603 460.792 717.885 461.622 718.027 462.479C719.06 467.325 719.394 472.28 719.726 477.216C719.91 479.943 720.093 482.672 720.079 485.405C720.034 494.407 717.857 503.258 715.692 512.017C715.413 513.145 715.032 514.406 713.964 514.947C713.488 515.153 712.977 515.273 712.456 515.301C706.255 516.001 700.041 516.701 693.798 516.794C691.362 516.83 688.927 516.773 686.492 516.624C686.073 516.618 685.658 516.549 685.262 516.418C684.724 516.169 684.262 515.792 683.92 515.323C680.543 511.233 680.344 505.579 680.366 500.358C680.418 487.594 680.893 474.84 681.789 462.096C681.863 461.044 681.879 459.767 681.091 458.939C682.626 461.126 684.386 463.16 686.343 465.01Z" fill="white"/>
<path d="M682.839 446.648C682.28 447.621 678.16 450.035 677.364 450.841C672.92 455.343 664.808 455.174 660.744 459.996C659.314 461.693 658.571 463.824 658.024 465.944C657.251 468.941 656.839 472.21 658.133 475.036C659.379 477.756 662.002 479.636 663.782 482.065C665.737 484.733 666.616 487.971 667.458 491.132C668.08 493.465 668.707 495.857 668.465 498.255C668.19 500.981 666.817 503.477 666.007 506.103C665.196 508.729 665.056 511.856 666.93 513.92C668.307 515.436 670.466 516.037 672.53 516.375C675.174 516.757 677.84 516.98 680.512 517.043C682.871 517.143 685.472 517.162 687.286 515.709C688.717 514.562 689.339 512.7 689.42 510.911C689.5 509.122 689.113 507.348 688.87 505.573C688.619 503.732 688.522 501.875 688.441 500.02C688.078 491.697 688.029 483.369 688.293 475.035C688.426 473.303 688.337 471.562 688.029 469.851C687.523 467.621 686.27 465.629 685.224 463.581C683.133 459.723 682.186 455.387 682.487 451.047C682.803 446.587 684.827 443.189 682.839 446.648Z" fill="white"/>
<path d="M706.074 446.987C706.926 447.828 709.818 448.105 710.901 448.646C711.92 449.098 712.982 449.452 714.074 449.702C718.024 450.797 721.781 452.454 725.22 454.619C725.934 455.02 726.566 455.545 727.084 456.166C727.629 457.018 727.98 457.972 728.115 458.964C728.645 461.488 729.178 464.043 729.059 466.615C728.932 469.346 728.076 471.991 727.227 474.599L724.055 484.347C721.687 491.623 719.304 498.971 718.637 506.567C718.269 510.777 718.433 515.015 719.126 519.187C719.191 519.39 719.21 519.604 719.182 519.815C719.155 520.026 719.081 520.229 718.966 520.41C718.757 520.608 718.481 520.73 718.189 520.753C716.657 520.983 715.176 520.233 713.788 519.569C709.548 517.541 705.023 516.118 700.355 515.345C702.179 512.812 703.587 510.024 704.528 507.079C705.062 505.209 705.483 503.311 705.788 501.394L707.264 493.191C707.864 490.193 708.287 487.164 708.53 484.119C708.642 482.977 708.572 481.825 708.325 480.702C707.984 479.634 707.533 478.601 706.977 477.62C704.544 472.758 703.403 467.209 704.36 461.893C704.779 459.567 705.593 457.237 705.254 454.899C704.927 452.651 705.266 450.904 704.666 448.679C702.202 439.543 704.473 445.405 706.074 446.987Z" fill="white"/>
<path d="M660.702 467.684C659.593 469.895 657.739 471.779 657.108 474.158C656.863 475.269 656.757 476.405 656.795 477.541C656.685 479.253 656.862 480.971 657.317 482.629C657.669 483.678 658.242 484.645 658.655 485.674C659.23 487.111 659.486 488.647 659.407 490.185C659.296 492.315 658.543 494.382 658.484 496.514C658.391 499.867 660.005 503.019 661.58 506.012C661.976 505.069 662.582 504.221 663.355 503.526C664.128 502.831 665.05 502.308 666.056 501.991C667.062 501.675 668.127 501.573 669.178 501.694C670.229 501.814 671.24 502.154 672.14 502.69C672.5 502.264 672.671 501.719 672.616 501.173C672.732 497.283 672.844 493.393 672.953 489.503C673.123 483.487 673.285 477.39 671.845 471.533C671.195 468.889 670.184 466.254 668.329 464.203C667.352 463.123 664.037 460.278 662.434 461.488C661.713 462.032 661.882 463.513 661.768 464.263C661.595 465.449 661.236 466.602 660.702 467.684Z" fill="white"/>
<path d="M729.383 461.311C729.829 462.906 730.02 464.556 729.949 466.206C729.97 469.569 729.924 472.931 729.81 476.293C729.827 478.017 729.598 479.735 729.128 481.399C728.77 482.481 728.218 483.496 727.848 484.575C726.739 487.807 727.345 491.313 727.44 494.715C727.507 495.816 727.409 496.921 727.15 497.995C726.565 500.104 724.993 501.808 723.896 503.719C722.854 505.534 722.225 507.568 720.981 509.262C719.737 510.955 717.582 512.296 715.494 511.777C713.912 511.383 712.788 510.037 712.011 508.655C710.314 505.618 709.734 502.119 710.364 498.725C711.145 494.596 713.668 490.933 714.578 486.829C715.828 481.192 713.929 475.376 713.985 469.613C713.959 468.71 714.087 467.809 714.363 466.945C714.84 465.628 715.865 464.577 716.813 463.522C717.996 462.202 719.096 460.815 720.105 459.369C720.783 458.397 721.704 455.897 722.907 455.689C725.591 455.225 728.717 459.318 729.383 461.311Z" fill="white"/>
<path d="M646.774 517.493C645.29 517.134 643.76 516.978 642.231 517.029C640.624 517.114 639.054 517.527 637.626 518.241C636.198 518.954 634.944 519.952 633.948 521.167C632.953 522.382 632.237 523.787 631.85 525.289C631.463 526.79 631.413 528.354 631.704 529.875C632.074 531.523 632.68 533.114 633.504 534.603C634.709 536.953 636.154 539.298 638.384 540.804C639.728 541.632 641.175 542.294 642.691 542.774L654.439 547.027C656.167 547.653 657.896 548.279 659.641 548.859C668.409 551.772 677.551 553.518 686.812 554.05C689.63 554.304 692.471 554.166 695.248 553.639C695.92 553.555 696.535 553.236 696.976 552.742C697.2 552.367 697.332 551.948 697.362 551.517L698.085 546.653C698.247 545.976 698.226 545.27 698.023 544.603C697.692 543.786 696.862 543.271 696.071 542.834C688.347 538.571 679.33 536.219 672.829 530.368C671.298 528.991 670.018 526.807 668.158 525.872C666.05 524.811 663.567 524.205 661.387 523.227C656.622 521.09 651.938 518.634 646.774 517.493Z" fill="#2F2E41"/>
<path opacity="0.1" d="M658.502 524.05C662.654 525.3 680.186 533.963 683.19 536.988C682.788 537.127 669.122 529.767 668.712 529.649C664.953 528.657 661.272 527.41 657.697 525.918C656.984 525.602 653.07 524.114 653.248 523.25C653.448 522.276 657.765 523.828 658.502 524.05Z" fill="black"/>
<path d="M710.305 556.573C710.541 556.589 710.775 556.523 710.963 556.386C711.046 556.284 711.107 556.167 711.142 556.042C711.177 555.917 711.187 555.787 711.169 555.658L711.15 549.032C709.167 548.125 706.949 547.834 704.773 547.554L694.616 546.249C694.85 546.279 693.028 550.453 693.308 551.011C693.8 551.993 697.561 552.863 698.623 553.327C702.314 554.939 706.148 556.712 710.305 556.573Z" fill="#A0616A"/>
<path d="M678.44 549.01C676.522 549.303 674.382 549.563 673.14 550.997C671.565 552.816 672.236 555.529 672.987 557.782C673.033 558.073 673.139 558.352 673.299 558.603C673.459 558.854 673.669 559.071 673.918 559.242C674.167 559.414 674.45 559.535 674.748 559.6C675.047 559.664 675.356 559.67 675.657 559.618C677.406 559.724 679.267 559.808 680.795 558.983C681.487 558.544 682.154 558.068 682.791 557.558C683.918 556.837 685.156 556.293 686.461 555.945C688.858 555.22 691.326 554.732 693.827 554.486C694.812 554.443 695.787 554.278 696.729 553.995C697.199 553.849 697.628 553.601 697.982 553.271C698.337 552.94 698.607 552.535 698.772 552.088C699.126 550.884 698.398 549.656 697.7 548.6C696.895 547.217 695.85 545.976 694.611 544.931C692.718 543.518 691.782 544.603 689.876 545.507C686.268 547.218 682.413 548.399 678.44 549.01Z" fill="#A0616A"/>
<path d="M673.428 550.669L661.252 547.211C659.792 546.722 658.266 546.438 656.721 546.367C655.948 546.336 655.176 546.465 654.459 546.744C653.741 547.023 653.094 547.445 652.56 547.984C651.616 549.049 651.345 550.505 651.11 551.885L650.607 554.839C650.271 556.328 650.176 557.858 650.325 559.375C650.406 560.133 650.666 560.864 651.085 561.512C651.504 562.159 652.071 562.706 652.744 563.111C654.428 563.995 656.494 563.563 658.374 563.194C662.173 562.447 666.036 562.049 669.913 562.004C671.37 561.988 672.899 562.005 674.187 561.349C674.934 560.923 675.562 560.329 676.016 559.616C676.47 558.904 676.736 558.096 676.791 557.263C677.03 554.74 676.155 551.444 673.428 550.669Z" fill="#2F2E41"/>
<path d="M715.091 547.655C716.67 547.39 718.063 546.527 719.575 546.018C721.704 545.302 724.012 545.302 726.267 545.31C727.096 545.237 727.93 545.398 728.666 545.772C729.66 546.408 729.914 547.68 730.083 548.815L731.103 555.667C731.375 556.945 731.403 558.26 731.186 559.548C730.887 560.818 729.986 562.042 728.675 562.37C727.083 562.767 725.522 561.79 724.019 561.148C720.261 559.543 715.894 559.953 711.976 558.754C711.601 558.681 711.247 558.534 710.936 558.32C710.626 558.107 710.366 557.832 710.173 557.515C710.039 557.134 709.992 556.731 710.033 556.331C710.1 554.129 709.617 551.121 710.307 549.017C710.927 547.124 713.329 547.655 715.091 547.655Z" fill="#2F2E41"/>
<path d="M740.859 514.735C743.292 514.149 745.814 513.983 748.307 514.246C750.298 514.457 752.35 514.989 753.804 516.314C755.573 517.926 756.142 520.419 756.189 522.762C756.267 527.429 754.657 531.977 751.633 535.629C750.895 536.553 750.017 537.365 749.028 538.039C747.962 538.68 746.825 539.206 745.639 539.609L719.331 549.581C712.409 552.205 705.464 554.836 698.245 556.566C698.047 556.657 697.833 556.71 697.614 556.721C697.395 556.732 697.176 556.7 696.97 556.628C696.764 556.557 696.575 556.446 696.414 556.303C696.253 556.16 696.124 555.987 696.033 555.795C693.728 552.631 691.794 549.231 690.267 545.658C690.195 545.573 690.145 545.473 690.122 545.366C690.098 545.258 690.102 545.147 690.133 545.041C690.164 544.936 690.221 544.839 690.299 544.759C690.377 544.679 690.474 544.618 690.581 544.581L709.19 534.306C710.554 533.622 711.826 532.78 712.977 531.798C713.781 531.049 714.44 530.168 714.921 529.196C715.307 528.422 715.343 526.595 715.836 526.022C716.318 525.462 717.968 525.417 718.731 525.197C719.805 524.881 720.858 524.498 721.882 524.052C726.044 522.262 729.751 519.662 733.741 517.567C735.979 516.337 738.371 515.385 740.859 514.735Z" fill="#2F2E41"/>
<path opacity="0.1" d="M730.31 522.409C727.113 524.716 722.973 526.837 719.805 529.206C718.723 530.014 700.696 539.755 700.441 541.048C703.397 541.527 722.228 528.867 724.922 527.603C727.616 526.34 730.004 524.558 732.371 522.79C732.974 522.339 735.53 520.985 733.799 520.481C732.823 520.197 731.03 521.947 730.31 522.409Z" fill="black"/>
<path d="M708.312 447.21H680.249C679.109 447.21 678.015 447.646 677.209 448.42C676.403 449.195 675.95 450.246 675.95 451.342V452.855H675.645V456.238H675.95V458.607H675.645V460.637H675.95V485.602C675.95 486.698 676.403 487.749 677.209 488.524C678.015 489.298 679.109 489.734 680.249 489.734H708.312C709.452 489.734 710.546 489.298 711.352 488.524C712.158 487.749 712.611 486.698 712.611 485.602V451.342C712.611 450.246 712.158 449.195 711.352 448.42C710.546 447.645 709.452 447.21 708.312 447.21Z" fill="#D0CDE1"/>
<path d="M712.772 415.298L698.539 408.132L678.882 411.064L674.816 428.326L684.939 427.951L687.767 421.609V427.847L692.438 427.674L695.149 417.577L696.844 428.326L713.45 428L712.772 415.298Z" fill="#2F2E41"/>
<path d="M664.425 512.499C665.069 513.551 665.984 514.426 667.082 515.039C667.802 515.356 668.588 515.509 669.38 515.489C670.171 515.469 670.948 515.275 671.649 514.922C673.051 514.2 674.198 513.094 674.945 511.746C676.492 509.121 676.813 505.979 676.62 502.968C676.427 499.957 675.758 496.991 675.461 493.988C675.246 491.804 675.229 489.608 675.211 487.415C675.158 486.954 675.259 486.488 675.499 486.086C675.912 485.69 676.447 485.434 677.025 485.353C680.147 484.462 682.219 481.65 683.705 478.864C684.697 477.004 685.559 474.971 685.368 472.889C685.177 470.807 683.62 468.71 681.456 468.497C679.672 468.322 678.026 469.411 676.739 470.611C673.493 473.657 671.407 477.664 670.816 481.987C670.534 484.103 670.615 486.278 670.016 488.333C668.737 492.721 664.734 495.411 662.74 499.36C660.542 503.71 661.755 508.65 664.425 512.499Z" fill="#A0616A"/>
<path d="M723.322 495.735C722.867 496.753 722.204 497.672 721.373 498.44C720.542 499.207 719.559 499.807 718.483 500.204C717.146 500.72 715.67 500.807 714.277 500.451C713.586 500.267 712.948 499.932 712.414 499.473C711.879 499.013 711.462 498.442 711.195 497.802C710.982 497.158 710.865 496.488 710.848 495.812C710.648 492.853 710.725 489.804 711.844 487.041C712.275 485.975 712.857 484.964 713.197 483.868C713.532 482.602 713.703 481.302 713.707 479.996L714.074 471.922C714.135 471.336 714.093 470.744 713.95 470.171C713.583 469.003 712.447 468.244 711.404 467.547C708.887 465.864 706.399 463.901 705.179 461.197C704.76 460.383 704.61 459.466 704.749 458.567C705.093 456.964 706.777 455.926 708.441 455.576C709.529 455.348 710.655 455.333 711.75 455.534C712.845 455.734 713.886 456.145 714.811 456.743C715.736 457.34 716.525 458.112 717.132 459.01C717.738 459.909 718.149 460.916 718.34 461.971C718.504 462.882 718.502 463.813 718.599 464.733C718.803 466.685 719.448 468.567 719.851 470.49C720.844 475.226 720.33 480.123 721.312 484.859C722.134 488.819 725.231 491.402 723.322 495.735Z" fill="#A0616A"/>
<path d="M694.656 465.374C696.6 465.374 698.176 463.859 698.176 461.99C698.176 460.122 696.6 458.607 694.656 458.607C692.711 458.607 691.135 460.122 691.135 461.99C691.135 463.859 692.711 465.374 694.656 465.374Z" fill="#FF9038"/>
<path d="M312.386 583.594C318.122 583.594 322.771 579.126 322.771 573.613C322.771 568.101 318.122 563.632 312.386 563.632C306.651 563.632 302.001 568.101 302.001 573.613C302.001 579.126 306.651 583.594 312.386 583.594Z" fill="#2F2E41"/>
<path d="M350.031 603.244L344.8 598.357L334.296 601.493L335.305 613.181L356.903 612.217L350.268 603.553L350.031 603.244Z" fill="#FBBEBE"/>
<path d="M338.591 603.143C347.864 603.143 355.381 595.918 355.381 587.007C355.381 578.095 347.864 570.87 338.591 570.87C329.318 570.87 321.801 578.095 321.801 587.007C321.801 595.918 329.318 603.143 338.591 603.143Z" fill="#FBBEBE"/>
<path d="M442.825 623.955C442.825 623.955 463.452 658.023 468.361 663.137C470.695 665.654 473.183 668.037 475.809 670.272C475.809 670.272 473.501 677.629 469.826 677.366C467.731 677.245 465.676 676.758 463.763 675.93C463.763 675.93 462.122 671.843 459.261 670.051C456.399 668.258 433.021 646.154 433.567 639.089C434.113 632.025 442.825 623.955 442.825 623.955Z" fill="#2F2E41"/>
<path d="M369.366 672.571C369.366 672.571 391.359 688.976 421.248 673.561L423.824 671.739C423.824 671.739 419.477 681.137 419.074 683.685C418.606 686.64 407.289 703.946 405.442 704.775C403.595 705.604 403.188 706.369 403.188 706.369L411.025 714.66L413.923 712.61C413.923 712.61 425.222 697.225 428.527 694.411C431.832 691.596 447.577 662.571 447.577 662.571C447.577 662.571 453.597 651.635 438.573 650.813C423.549 649.99 416.636 653.926 416.636 653.926L389.972 657.997L369.366 672.571Z" fill="#2F2E41"/>
<path d="M476.065 668.66L487.189 676.057C487.189 676.057 501.38 680.331 492.638 683.174C483.896 686.018 460.859 687.047 460.337 683.123C459.814 679.2 461.245 673.024 462.394 673.362C463.544 673.7 471.521 675.69 476.065 668.66Z" fill="#2F2E41"/>
<path d="M414.908 710.069L416.967 720.935C416.967 720.935 422.821 731.696 415.792 728.357C408.763 725.019 394.28 712.336 396.419 709.677C398.557 707.018 403.277 704.135 403.757 705.001C404.236 705.868 407.784 711.669 414.908 710.069Z" fill="#2F2E41"/>
<path d="M393.696 661.564C393.696 661.564 378.746 678.339 369.67 674.264C360.593 670.189 323.459 622.991 327.699 614.268C331.939 605.545 333.361 607.401 333.361 607.401L352.534 609.105L347.018 600.605C347.018 600.605 349.593 598.783 352.048 601.34C354.502 603.897 364.357 610.284 367.79 619.305C371.223 628.326 381.301 627.875 381.301 627.875L393.696 661.564Z" fill="white"/>
<path d="M454.07 626.973L428.154 653.412L404.939 614.019L427.009 588.392L454.07 626.973Z" fill="#3F3D56"/>
<path d="M452.114 626.687L428.707 649.92L407.497 614.118L426.949 590.582L452.114 626.687Z" fill="white"/>
<path d="M426.885 652.402L428.155 653.412L427.34 654.941L391.102 665.307L390.76 664.114L392.408 662.475L426.885 652.402Z" fill="#B3B3B3"/>
<path d="M428.477 653.184L390.951 664.46L368.076 622.919L404.939 614.02L428.477 653.184Z" fill="#D0CDE1"/>
<path d="M425.652 647.55L424.042 648.688L406.173 618.871L408.02 618.042L425.652 647.55Z" fill="#3F3D56"/>
<path d="M421.957 649.208L406.083 653.757L388.063 623.093L403.767 619.619L421.957 649.208Z" fill="#3F3D56"/>
<path d="M377.237 626.457L380.524 625.563C380.524 625.563 398.853 623.571 399.12 629.106C399.388 634.642 378.064 632.074 378.064 632.074L375.22 628.36L377.237 626.457Z" fill="#FBBEBE"/>
<path d="M393.313 651.34L397.888 649.536C397.888 649.536 411.696 643.586 407.735 639.709C403.774 635.832 391.557 642.565 391.557 642.565L389.218 644.696L393.313 651.34Z" fill="#FBBEBE"/>
<path d="M389.236 642.775C389.236 642.775 396.685 649.91 394.99 651.586C393.295 653.262 365.502 675.304 358.613 668.251C351.723 661.198 318.156 625.788 331.217 622.751C344.279 619.715 347.73 626.814 347.73 626.814L364.973 655.166L389.236 642.775Z" fill="white"/>
<path d="M366.933 621.103L379.169 625.09L378.969 633.58L366.029 632.238L366.933 621.103Z" fill="white"/>
<path opacity="0.2" d="M377.961 647.172L364.778 654.588L349.717 632.326L364.256 650.664L377.961 647.172Z" fill="black"/>
<path d="M331.221 601.539C342.26 601.539 351.209 592.938 351.209 582.329C351.209 571.72 342.26 563.119 331.221 563.119C320.182 563.119 311.233 571.72 311.233 582.329C311.233 592.938 320.182 601.539 331.221 601.539Z" fill="#2F2E41"/>
<path d="M439.222 628.649L425.227 608.973L431.159 601.914L445.702 622.158L439.222 628.649Z" fill="#FF9038"/>
<path d="M438.828 636.561L417.521 606.791L418.571 605.57L439.779 635.411L438.828 636.561Z" fill="#E6E6E6"/>
<path d="M436.082 639.457L414.775 609.687L415.826 608.466L437.033 638.307L436.082 639.457Z" fill="#E6E6E6"/>
<path d="M433.743 641.588L412.436 611.818L413.487 610.598L434.694 640.438L433.743 641.588Z" fill="#E6E6E6"/>
<path d="M340.073 569.504H346.256C349.387 569.504 352.389 570.699 354.603 572.827C356.817 574.955 358.061 577.84 358.061 580.849H340.073V569.504Z" fill="#2F2E41"/>
<path d="M425.247 562.285L424.126 562.204C424.083 562.764 424.052 563.328 424.015 563.89L418.983 563.728L424.261 573.233L430.189 564.089L425.139 563.926C425.175 563.379 425.205 562.83 425.247 562.285Z" fill="#3F3D56"/>
<path d="M454.759 484.806L455.652 485.461C456.993 483.774 458.393 482.089 459.814 480.454L458.951 479.762C457.52 481.409 456.109 483.106 454.759 484.806Z" fill="#3F3D56"/>
<path d="M463.371 474.901L464.201 475.629C465.692 474.059 467.241 472.5 468.803 470.995L468.007 470.232C466.433 471.748 464.873 473.319 463.371 474.901Z" fill="#3F3D56"/>
<path d="M472.852 465.764L473.612 466.56C475.243 465.121 476.927 463.699 478.617 462.334L477.894 461.507C476.192 462.882 474.495 464.315 472.852 465.764Z" fill="#3F3D56"/>
<path d="M447.085 495.405L448.036 495.982C449.217 494.186 450.458 492.389 451.724 490.64L450.801 490.023C449.526 491.784 448.276 493.595 447.085 495.405Z" fill="#3F3D56"/>
<path d="M483.126 457.468L483.811 458.324C485.567 457.028 487.374 455.755 489.182 454.539L488.537 453.654C486.716 454.879 484.896 456.162 483.126 457.468Z" fill="#3F3D56"/>
<path d="M440.415 506.62L441.414 507.114C442.427 505.221 443.498 503.324 444.597 501.477L443.621 500.94C442.514 502.802 441.435 504.713 440.415 506.62Z" fill="#3F3D56"/>
<path d="M429.57 537.033L428.482 536.763C427.926 538.837 427.412 540.95 426.953 543.047L428.053 543.27C428.509 541.189 429.019 539.09 429.57 537.033Z" fill="#3F3D56"/>
<path d="M494.116 450.074L494.72 450.986C496.583 449.846 498.499 448.731 500.414 447.672L499.853 446.735C497.923 447.803 495.993 448.926 494.116 450.074Z" fill="#3F3D56"/>
<path d="M426.826 549.565L425.717 549.39C425.356 551.499 425.039 553.649 424.774 555.778L425.891 555.906C426.153 553.793 426.468 551.659 426.826 549.565Z" fill="#3F3D56"/>
<path d="M434.803 518.365L435.844 518.772C436.678 516.8 437.569 514.819 438.494 512.883L437.473 512.432C436.541 514.382 435.642 516.379 434.803 518.365Z" fill="#3F3D56"/>
<path d="M430.3 530.552L431.375 530.867C432.023 528.828 432.728 526.777 433.469 524.771L432.41 524.409C431.663 526.431 430.953 528.497 430.3 530.552Z" fill="#3F3D56"/>
<path d="M570.166 428.539C572.37 428.465 574.614 428.436 576.834 428.456L576.844 427.376C574.608 427.355 572.347 427.385 570.127 427.459L570.166 428.539Z" fill="#3F3D56"/>
<path d="M505.737 443.645L506.254 444.604C508.217 443.626 510.227 442.679 512.228 441.788L511.755 440.808C509.739 441.705 507.715 442.66 505.737 443.645Z" fill="#3F3D56"/>
<path d="M596.769 429.886C598.962 430.184 601.175 430.533 603.347 430.924L603.553 429.862C601.365 429.469 599.136 429.116 596.926 428.816L596.769 429.886Z" fill="#3F3D56"/>
<path d="M609.872 432.242C612.025 432.725 614.198 433.262 616.329 433.838L616.633 432.798C614.486 432.218 612.297 431.677 610.128 431.19L609.872 432.242Z" fill="#3F3D56"/>
<path d="M622.704 435.709C624.803 436.375 626.917 437.095 628.986 437.851L629.386 436.841C627.3 436.08 625.171 435.353 623.056 434.683L622.704 435.709Z" fill="#3F3D56"/>
<path d="M583.499 428.652C585.713 428.764 587.95 428.924 590.148 429.128L590.257 428.053C588.042 427.847 585.788 427.686 583.558 427.573L583.499 428.652Z" fill="#3F3D56"/>
<path d="M556.744 428.47L556.881 429.542C559.072 429.283 561.303 429.067 563.511 428.9L563.423 427.823C561.198 427.991 558.95 428.209 556.744 428.47Z" fill="#3F3D56"/>
<path d="M530.517 433.875L530.849 434.907C532.962 434.278 535.118 433.687 537.258 433.149L536.973 432.104C534.818 432.646 532.645 433.241 530.517 433.875Z" fill="#3F3D56"/>
<path d="M517.896 438.231L518.323 439.231C520.367 438.425 522.455 437.653 524.529 436.937L524.149 435.921C522.059 436.642 519.955 437.419 517.896 438.231Z" fill="#3F3D56"/>
<path d="M543.505 430.611L543.741 431.668C545.901 431.223 548.103 430.818 550.287 430.464L550.1 429.399C547.9 429.755 545.681 430.163 543.505 430.611Z" fill="#3F3D56"/>
<path d="M645.761 444.532L639.478 435.609L637.269 439.979C636.735 439.749 636.203 439.515 635.669 439.293L635.222 440.284C635.743 440.501 636.259 440.729 636.778 440.951L634.579 445.301L645.761 444.532Z" fill="#3F3D56"/>
</g>
<defs>
<filter id="filter0_b" x="39" y="-10" width="1083" height="1083.16" filterUnits="userSpaceOnUse" color-interpolation-filters="sRGB">
<feFlood flood-opacity="0" result="BackgroundImageFix"/>
<feGaussianBlur in="BackgroundImage" stdDeviation="5"/>
<feComposite in2="SourceAlpha" operator="in" result="effect1_backgroundBlur"/>
<feBlend mode="normal" in="SourceGraphic" in2="effect1_backgroundBlur" result="shape"/>
</filter>
<linearGradient id="paint0_linear" x1="544" y1="95" x2="544" y2="1028" gradientUnits="userSpaceOnUse">
<stop stop-color="#FF9B21"/>
<stop offset="1" stop-color="#FF7E5F"/>
</linearGradient>
<clipPath id="clip0">
<rect width="509" height="395" fill="white" transform="translate(302 334)"/>
</clipPath>
</defs>
</svg>
