<svg width="1010" height="795" viewBox="0 0 1010 795" fill="none" xmlns="http://www.w3.org/2000/svg">
<g clip-path="url(#clip0)">
<g filter="url(#filter0_b)">
<path d="M541 746C747.002 746 914 579.002 914 373C914 166.998 747.002 0 541 0C334.998 0 168 166.998 168 373C168 579.002 334.998 746 541 746Z" fill="#F2F2F2" fill-opacity="0.5"/>
</g>
<path d="M912 747.001C912 762.465 707.842 795.001 456 795.001C204.158 795.001 0 762.465 0 747.001C0 731.537 204.158 739.001 456 739.001C707.842 739.001 912 731.537 912 747.001Z" fill="#3F3D56"/>
<path opacity="0.1" d="M912 747.001C912 762.465 707.842 795.001 456 795.001C204.158 795.001 0 762.465 0 747.001C0 731.537 204.158 739.001 456 739.001C707.842 739.001 912 731.537 912 747.001Z" fill="black"/>
<path d="M456 775.001C707.842 775.001 912 762.465 912 747.001C912 731.537 707.842 719.001 456 719.001C204.158 719.001 0 731.537 0 747.001C0 762.465 204.158 775.001 456 775.001Z" fill="#3F3D56"/>
<path opacity="0.1" d="M459 754.001C560.62 754.001 643 746.39 643 737.001C643 727.612 560.62 720.001 459 720.001C357.38 720.001 275 727.612 275 737.001C275 746.39 357.38 754.001 459 754.001Z" fill="black"/>
<path d="M739 614.913C739 678.117 778.651 729.261 827.652 729.261L739 614.913Z" fill="#3F3D56"/>
<path d="M827.652 729.261C827.652 665.347 871.901 613.628 926.583 613.628L827.652 729.261Z" fill="#75CFB8"/>
<path d="M771.12 620.642C771.12 680.68 796.405 729.261 827.652 729.261L771.12 620.642Z" fill="#75CFB8"/>
<path d="M827.652 729.261C827.652 647.593 878.796 581.508 942 581.508L827.652 729.261Z" fill="#3F3D56"/>
<path d="M809.002 730.067C809.002 730.067 821.574 729.68 825.363 726.982C829.152 724.284 844.703 721.062 845.643 725.389C846.583 729.716 864.536 746.91 850.342 747.025C836.148 747.139 817.362 744.814 813.58 742.51C809.798 740.207 809.002 730.067 809.002 730.067Z" fill="#A8A8A8"/>
<path opacity="0.2" d="M850.596 745.519C836.402 745.633 817.615 743.308 813.833 741.004C810.953 739.25 809.806 732.955 809.422 730.051C809.156 730.062 809.002 730.067 809.002 730.067C809.002 730.067 809.798 740.207 813.58 742.51C817.362 744.814 836.148 747.139 850.342 747.025C854.44 746.992 855.855 745.534 855.777 743.375C855.208 744.68 853.645 745.494 850.596 745.519Z" fill="black"/>
<path d="M581 612.001H355V744.001H581V612.001Z" fill="#3F3D56"/>
<path d="M627.919 613.127H461.298C455.834 613.127 450.594 610.956 446.73 607.093C442.867 603.229 440.696 597.989 440.696 592.525V516.188C440.696 515.079 440.922 513.982 441.36 512.964C441.798 511.945 442.439 511.027 443.243 510.264L531.536 426.571C535.066 423.224 539.744 421.359 544.608 421.359C549.472 421.359 554.151 423.224 557.681 426.571L641.864 506.368C643.966 508.362 645.641 510.762 646.786 513.424C647.93 516.086 648.521 518.954 648.521 521.851V592.525C648.521 597.989 646.35 603.229 642.487 607.093C638.623 610.956 633.383 613.127 627.919 613.127Z" fill="#2F2E41"/>
<path opacity="0.1" d="M440.696 517.441H646.789V584.395C646.789 592.015 643.762 599.323 638.373 604.712C632.985 610.1 625.677 613.127 618.057 613.127H469.429C465.655 613.127 461.919 612.384 458.433 610.94C454.947 609.496 451.78 607.38 449.112 604.712C446.444 602.044 444.327 598.876 442.883 595.39C441.439 591.904 440.696 588.168 440.696 584.395V517.441Z" fill="black"/>
<path d="M609.692 451.847H479.092C472.832 451.847 467.757 456.922 467.757 463.182V593.782C467.757 600.042 472.832 605.117 479.092 605.117H609.692C615.952 605.117 621.027 600.042 621.027 593.782V463.182C621.027 456.922 615.952 451.847 609.692 451.847Z" fill="#75CFB8"/>
<path opacity="0.1" d="M621.027 520.883V605.117H467.757V520.883L544.392 557.924L621.027 520.883Z" fill="black"/>
<path d="M544.392 562.686L446.197 515.226C445.59 514.932 444.918 514.798 444.244 514.835C443.571 514.872 442.918 515.079 442.346 515.438C441.775 515.796 441.304 516.294 440.977 516.884C440.651 517.475 440.479 518.138 440.479 518.813V600.47C440.479 602.104 440.801 603.722 441.426 605.231C442.052 606.74 442.968 608.112 444.123 609.267C445.278 610.422 446.65 611.338 448.159 611.964C449.668 612.589 451.286 612.911 452.92 612.911H635.864C639.163 612.911 642.327 611.6 644.66 609.267C646.993 606.934 648.304 603.77 648.304 600.47V520.212C648.304 519.388 648.095 518.579 647.696 517.858C647.298 517.138 646.723 516.531 646.026 516.093C645.329 515.656 644.532 515.403 643.71 515.357C642.888 515.312 642.068 515.476 641.327 515.834L544.392 562.686Z" fill="#2F2E41"/>
<path d="M523.826 465.918H480.962V471.98H523.826V465.918Z" fill="#F2F2F2" fill-opacity="0.5"/>
<path d="M604.79 488H477.498V491.463H604.79V488Z" fill="#F2F2F2" fill-opacity="0.5"/>
<path d="M604.79 499.689H477.498V503.153H604.79V499.689Z" fill="#F2F2F2" fill-opacity="0.5"/>
<path d="M604.79 511.38H477.498V514.843H604.79V511.38Z" fill="#F2F2F2" fill-opacity="0.5"/>
<path d="M474.035 472.044C483.839 472.044 491.787 464.082 491.787 454.26C491.787 444.438 483.839 436.476 474.035 436.476C464.231 436.476 456.283 444.438 456.283 454.26C456.283 464.082 464.231 472.044 474.035 472.044Z" fill="white"/>
<path d="M474.035 433.446C469.839 433.446 465.737 434.69 462.248 437.021C458.759 439.352 456.04 442.666 454.434 446.542C452.829 450.419 452.408 454.685 453.227 458.8C454.046 462.915 456.066 466.696 459.033 469.663C462 472.63 465.78 474.65 469.896 475.469C474.011 476.287 478.277 475.867 482.154 474.261C486.03 472.656 489.344 469.936 491.675 466.448C494.006 462.959 495.25 458.857 495.25 454.661C495.234 449.039 492.993 443.653 489.018 439.678C485.043 435.702 479.656 433.462 474.035 433.446ZM469.68 465.972L458.807 455.1L461.856 452.05L469.69 459.883L486.223 443.349L489.273 446.399L469.68 465.972Z" fill="#57B894"/>
<path d="M1023.62 111.008H563.623V303.008H1023.62V111.008Z" fill="#3F3D56"/>
<path d="M749.453 259.008H697.453C693.905 238.494 693.905 217.523 697.453 197.008H749.453C743.595 217.26 743.595 238.757 749.453 259.008Z" fill="#FFB8B8"/>
<path d="M894.784 259.008H842.784C839.236 238.494 839.236 217.523 842.784 197.008H894.784C888.926 217.26 888.926 238.757 894.784 259.008Z" fill="#FFB8B8"/>
<path d="M675.622 217.008H623.622C620.074 196.494 620.074 175.523 623.622 155.008H675.622C669.764 175.26 669.764 196.757 675.622 217.008Z" fill="#75CFB8"/>
<path d="M768.623 217.008H820.623C824.172 196.494 824.172 175.523 820.623 155.008H768.623C774.481 175.26 774.481 196.757 768.623 217.008Z" fill="#75CFB8"/>
<path d="M911.623 217.008H963.623C967.172 196.494 967.172 175.523 963.623 155.008H911.623C917.481 175.26 917.481 196.757 911.623 217.008Z" fill="#75CFB8"/>
<path d="M253.879 161.93C252.378 161.807 250.875 162.143 249.569 162.893C248.33 163.949 247.336 165.262 246.654 166.741C243.5 172.279 239.23 177.103 234.115 180.905C230.389 183.634 225.652 187.038 226.29 192.07C226.626 193.732 227.24 195.325 228.106 196.783C231.543 203.722 240.922 209.084 240 217.001C243.415 211.284 238.847 208.457 242.262 202.74C243.888 200.018 246.713 196.944 249.168 198.654C249.991 199.227 250.53 200.253 251.386 200.756C253.429 201.954 255.602 199.663 257.41 198.04C263.644 192.443 272.511 193.909 280.269 195.653C283.932 196.476 287.955 197.557 290.12 201.057C292.967 205.66 287.415 210.631 286.012 215.834C285.898 216.278 285.893 216.742 285.997 217.188C286.101 217.634 286.311 218.048 286.611 218.395C286.91 218.742 287.288 219.011 287.714 219.18C288.14 219.348 288.6 219.411 289.055 219.363C291.383 219.133 294.141 218.945 294.279 217.924C297.208 218.028 300.796 217.696 302.051 214.647C302.435 213.44 302.638 212.183 302.653 210.917C303.114 205.794 305.288 201.12 306.728 196.245C308.169 191.369 308.795 185.655 306.364 181.332C305.497 179.893 304.424 178.589 303.18 177.461C289.385 164.112 271.249 161.91 253.879 161.93Z" fill="#2F2E41"/>
<path d="M243 227.001C243 227.001 246 252.001 235 254.001C224 256.001 245 290.001 245 290.001L295 296.001L283 256.001C283 256.001 275 253.001 280 233.001C285 213.001 243 227.001 243 227.001Z" fill="#A0616A"/>
<path d="M212.5 656.501L216.5 711.501H237.5L231.5 656.501H212.5Z" fill="#A0616A"/>
<path d="M366.5 552.501L369.5 598.501L392.5 588.501L383.5 550.501L366.5 552.501Z" fill="#A0616A"/>
<path d="M197.5 446.501C197.5 446.501 198.5 504.501 204.5 523.501C210.5 542.501 209.5 543.501 208.5 546.501C207.5 549.501 206.5 547.501 206.5 552.501C206.5 557.501 204.5 636.501 206.5 643.501C208.5 650.501 200.5 662.501 206.5 663.501C212.5 664.501 240.5 663.501 241.5 657.501C242.5 651.501 233.5 649.501 237.5 645.501C241.5 641.501 247.5 559.501 247.5 559.501L261.5 502.501L287.5 472.501H342.5L359.5 538.501C359.5 538.501 352.5 557.501 357.5 557.501C362.5 557.501 392.5 563.501 392.5 541.501C392.5 519.501 382.5 454.501 380.5 452.501C378.5 450.501 381.5 443.501 378.5 440.501C375.5 437.501 340.5 416.501 327.5 412.501C314.5 408.501 296.263 403.74 296.263 403.74L197.5 446.501Z" fill="#2F2E41"/>
<path d="M392.5 580.501C392.5 580.501 377.5 575.501 370.5 590.501C363.5 605.501 366.5 609.501 366.5 609.501C366.5 609.501 389.5 617.501 393.5 613.501C395.241 611.76 400.767 611.156 406.455 611.028C415.119 610.834 417.424 598.577 409.242 595.723C408.997 595.637 408.75 595.563 408.5 595.501C400.5 593.501 392.5 580.501 392.5 580.501Z" fill="#2F2E41"/>
<path d="M265.5 243.501C282.069 243.501 295.5 230.069 295.5 213.501C295.5 196.932 282.069 183.501 265.5 183.501C248.931 183.501 235.5 196.932 235.5 213.501C235.5 230.069 248.931 243.501 265.5 243.501Z" fill="#A0616A"/>
<path d="M226.5 266.501C226.5 266.501 275.5 276.501 287.5 260.501C299.5 244.501 304.5 305.501 304.5 305.501L310.5 369.501L301.5 404.501C301.5 404.501 254.5 442.501 239.5 445.501C224.5 448.501 201.5 450.501 201.5 450.501C201.5 450.501 208.5 339.501 208.5 337.501C208.5 335.501 226.5 266.501 226.5 266.501Z" fill="#75CFB8"/>
<path d="M241.402 247.746C241.402 247.746 230.5 241.501 227.5 247.501C224.5 253.501 196.5 268.501 193.5 268.501C190.5 268.501 199.5 351.501 195.5 361.501C191.5 371.501 172.5 444.501 183.5 450.501C194.5 456.501 186.5 444.501 197.5 459.501C208.5 474.501 262.5 474.501 265.5 468.501C268.5 462.501 241.5 417.501 246.5 375.501C251.5 333.501 259.5 275.501 252.5 267.501C245.5 259.501 241.402 247.746 241.402 247.746Z" fill="#2F2E41"/>
<path d="M277.5 254.501L278.893 249.707C278.893 249.707 320.5 263.501 322.5 272.501C324.5 281.501 323.5 344.501 316.5 349.501C309.5 354.501 299.5 362.501 306.5 374.501C313.5 386.501 321.5 399.501 327.5 400.501C333.5 401.501 344.5 408.501 341.5 415.501C338.5 422.501 302.5 409.501 302.5 409.501C302.5 409.501 278.5 391.501 279.5 363.501C280.5 335.501 277.5 254.501 277.5 254.501Z" fill="#2F2E41"/>
<path d="M312.5 372.501L288.5 417.501C288.5 417.501 253.5 453.501 273.5 457.501C293.5 461.501 304.5 424.501 304.5 424.501L330.5 387.501L312.5 372.501Z" fill="#A0616A"/>
<path d="M255.341 169.78C254.132 169.69 252.921 169.925 251.833 170.46C250.849 171.179 250.038 172.108 249.46 173.18C246.792 177.192 243.316 180.602 239.252 183.191C236.219 185.12 232.363 187.525 232.882 191.082C233.164 192.275 233.665 193.405 234.361 194.414C237.168 199.367 238.286 205.1 237.545 210.746L245.884 198.624C247.208 196.7 249.508 194.527 251.507 195.736C252.176 196.14 252.615 196.866 253.312 197.221C254.975 198.068 256.744 196.449 258.216 195.302C263.291 191.346 270.508 192.382 276.824 193.615C279.805 194.197 283.08 194.96 284.843 197.434C287.772 201.546 284.713 207.487 286.423 212.237C286.901 211.902 287.308 211.474 287.618 210.979C287.928 210.484 288.136 209.932 288.228 209.355C290.613 209.429 293.534 209.195 294.556 207.039C294.866 206.194 295.032 205.303 295.045 204.403C295.42 200.782 297.19 197.479 298.363 194.033C299.535 190.587 300.045 186.548 298.066 183.492C297.342 182.457 296.469 181.535 295.474 180.757C284.245 171.322 269.481 169.766 255.341 169.78Z" fill="#2F2E41"/>
<path d="M312.5 268.501L321.817 270.974C321.817 270.974 343.5 326.501 338.5 364.501C333.5 402.501 330.5 394.501 330.5 394.501C330.5 394.501 322.5 376.501 304.5 380.501L312.5 268.501Z" fill="#2F2E41"/>
<path d="M213.886 704.232C211.474 707.509 211.958 712.193 209.822 715.656C207.97 718.658 204.481 720.232 202.165 722.891C201.426 723.775 200.767 724.723 200.196 725.723C198.048 729.322 196.301 733.934 198.417 737.552C200.119 740.462 203.697 741.6 206.978 742.375C211.126 743.355 215.435 744.139 219.63 743.39C223.825 742.642 227.925 740.073 229.421 736.082C229.715 735.079 230.064 734.093 230.468 733.128C232.741 728.652 239.873 728.603 242.201 724.155C243.829 721.041 242.332 717.278 240.836 714.098L236.265 704.389C234.749 701.167 228.6 703.02 225.395 702.248C221.214 701.241 216.893 700.131 213.886 704.232Z" fill="#2F2E41"/>
<path d="M234.202 479.085L251.934 503.23L321.083 467.503L325.072 465.451L238.676 459.871L234.202 479.085Z" fill="#75CFB8"/>
<path opacity="0.2" d="M235.165 480.395L251.934 503.23L321.083 467.503L235.165 480.395Z" fill="black"/>
<path d="M228.704 507.245L231.911 486.306L325.42 465.471L228.704 507.245Z" fill="#75CFB8"/>
<path d="M180.5 392.501L222.5 457.501C222.5 457.501 248.5 490.501 256.5 475.501C264.5 460.501 228.5 435.501 228.5 435.501L201.5 385.501L180.5 392.501Z" fill="#A0616A"/>
<path d="M201.5 270.501L193.5 268.501C193.5 268.501 177.5 273.501 173.5 294.501C169.5 315.501 172.5 399.501 177.5 400.501C182.5 401.501 202.195 385.875 205.348 389.188C208.5 392.501 198.5 375.501 201.5 366.501C204.5 357.501 201.5 270.501 201.5 270.501Z" fill="#2F2E41"/>
</g>
<defs>
<filter id="filter0_b" x="155" y="-13" width="772" height="772" filterUnits="userSpaceOnUse" color-interpolation-filters="sRGB">
<feFlood flood-opacity="0" result="BackgroundImageFix"/>
<feGaussianBlur in="BackgroundImage" stdDeviation="6.5"/>
<feComposite in2="SourceAlpha" operator="in" result="effect1_backgroundBlur"/>
<feBlend mode="normal" in="SourceGraphic" in2="effect1_backgroundBlur" result="shape"/>
</filter>
<clipPath id="clip0">
<rect width="1023.62" height="795.001" fill="white"/>
</clipPath>
</defs>
</svg>
