<svg width="789" height="690" viewBox="0 0 789 690" fill="none" xmlns="http://www.w3.org/2000/svg">
<path d="M266.473 326.959C318.034 326.959 359.833 289.435 359.833 243.146C359.833 196.857 318.034 159.332 266.473 159.332C214.912 159.332 173.113 196.857 173.113 243.146C173.113 289.435 214.912 326.959 266.473 326.959Z" fill="#E5EDD4"/>
<path d="M215.273 239.517C222.342 239.517 228.073 233.56 228.073 226.211C228.073 218.863 222.342 212.906 215.273 212.906C208.203 212.906 202.473 218.863 202.473 226.211C202.473 233.56 208.203 239.517 215.273 239.517Z" fill="#DBE3CC"/>
<path d="M287.357 214.72C298.891 214.72 308.241 208.221 308.241 200.205C308.241 192.188 298.891 185.69 287.357 185.69C275.823 185.69 266.473 192.188 266.473 200.205C266.473 208.221 275.823 214.72 287.357 214.72Z" fill="#DBE3CC"/>
<path d="M282.979 281.853C287.63 281.853 291.4 277.25 291.4 271.571C291.4 265.893 287.63 261.29 282.979 261.29C278.328 261.29 274.558 265.893 274.558 271.571C274.558 277.25 278.328 281.853 282.979 281.853Z" fill="#DBE3CC"/>
<path d="M233.463 299.997C240.904 299.997 246.937 295.123 246.937 289.11C246.937 283.098 240.904 278.224 233.463 278.224C226.022 278.224 219.989 283.098 219.989 289.11C219.989 295.123 226.022 299.997 233.463 299.997Z" fill="#DBE3CC"/>
<path d="M261.421 246.17C264.211 246.17 266.473 244.139 266.473 241.634C266.473 239.128 264.211 237.098 261.421 237.098C258.63 237.098 256.368 239.128 256.368 241.634C256.368 244.139 258.63 246.17 261.421 246.17Z" fill="#DBE3CC"/>
<path d="M348.662 271.571C353.499 271.571 357.42 265.885 357.42 258.87C357.42 251.856 353.499 246.17 348.662 246.17C343.825 246.17 339.904 251.856 339.904 258.87C339.904 265.885 343.825 271.571 348.662 271.571Z" fill="#DBE3CC"/>
<path d="M295.104 311.488C305.336 311.488 313.631 304.854 313.631 296.67C313.631 288.487 305.336 281.853 295.104 281.853C284.873 281.853 276.578 288.487 276.578 296.67C276.578 304.854 284.873 311.488 295.104 311.488Z" fill="#DBE3CC"/>
<path d="M322.052 232.259C324.47 232.259 326.431 229.822 326.431 226.816C326.431 223.81 324.47 221.373 322.052 221.373C319.633 221.373 317.673 223.81 317.673 226.816C317.673 229.822 319.633 232.259 322.052 232.259Z" fill="#DBE3CC"/>
<path opacity="0.15" d="M266.473 459.664C399.672 459.664 507.652 362.725 507.652 243.145C507.652 123.566 399.672 26.6273 266.473 26.6273C133.273 26.6273 25.2939 123.566 25.2939 243.145C25.2939 362.725 133.273 459.664 266.473 459.664Z" fill="#E5EDD4"/>
<path opacity="0.15" d="M696.324 606.748C747.036 561.221 747.036 487.408 696.324 441.881C645.612 396.354 563.391 396.354 512.679 441.881C461.967 487.408 461.967 561.221 512.679 606.748C563.391 652.275 645.612 652.275 696.324 606.748Z" fill="#E5EDD4"/>
<path opacity="0.15" d="M266.473 379.841C350.566 379.841 418.738 318.64 418.738 243.146C418.738 167.651 350.566 106.45 266.473 106.45C182.379 106.45 114.208 167.651 114.208 243.146C114.208 318.64 182.379 379.841 266.473 379.841Z" fill="#E5EDD4"/>
<path opacity="0.15" d="M450.86 431.002C476.484 421.279 488.477 394.75 477.647 371.746C466.817 348.742 437.266 337.976 411.642 347.698C386.018 357.421 374.025 383.95 384.855 406.954C395.685 429.958 425.236 440.724 450.86 431.002Z" fill="#E5EDD4"/>
<path opacity="0.15" d="M394.855 384.174C414.36 379.511 425.962 361.536 420.769 344.025C415.575 326.513 395.552 316.097 376.046 320.76C356.54 325.423 344.938 343.399 350.132 360.91C355.326 378.421 375.349 388.837 394.855 384.174Z" fill="#E5EDD4"/>
<path opacity="0.15" d="M107.11 95.9244C126.78 78.2652 126.78 49.634 107.11 31.9748C87.4392 14.3156 55.5469 14.3156 35.8764 31.9748C16.2059 49.634 16.2059 78.2652 35.8764 95.9244C55.5469 113.584 87.4392 113.584 107.11 95.9244Z" fill="#E5EDD4"/>
<path opacity="0.15" d="M154.266 107.022C159.013 89.4095 146.958 71.6762 127.339 67.4139C107.72 63.1516 87.9674 73.9743 83.2196 91.5871C78.4719 109.2 90.5272 126.933 110.146 131.195C129.765 135.458 149.518 124.635 154.266 107.022Z" fill="#E5EDD4"/>
</svg>
