<svg width="1918" height="804" viewBox="0 0 1918 804" fill="none" xmlns="http://www.w3.org/2000/svg">
<path d="M1917.28 535.319L1864.31 493.567L1772 458.151L1747.92 423.161L1642.23 346.789L1604.77 384.975L1586.04 413.615L1493.72 464.927L1465.63 481.634L1397.4 442.851L1363.95 401.682L1330.5 427.935L1297.06 466.121L1191.37 521.013L1092.36 623.638L962.706 756.202L1438.87 803.828L1917.28 701.117V535.319Z" fill="#CCE7E6"/>
<path d="M1917.28 701.117V535.319L1864.31 493.567L1772 458.151L1747.92 423.161L1642.23 346.789L1620.88 404.16L1687.31 471.492L1620.88 430.123L1555.92 489.87L1526.01 533.748L1567.52 540.468L1589.35 544.795L1609.97 567.513L1567.52 558.859L1618.46 602.131L1613.61 638.914L1659.7 669.204L1663.33 714.641L1651.88 758.096L1917.28 701.117Z" fill="#355365"/>
<path d="M1363.95 401.682L1323.74 463.111L1373.15 517.886L1315.47 483.403L1307.2 514.765L1335.57 537.824L1304.59 552.442L1336.78 593.995L1257.64 582.596L1218.26 655.89V676.183L1207.92 683.562L1252.65 785.201L1370.28 666.036L1444.73 552.442V503.696L1465.63 481.634L1397.4 442.851L1363.95 401.682Z" fill="#355365"/>
<path d="M305.061 525.891L271.21 491.384L240.26 486.208L202.541 462.053L103.889 512.088L83.5776 544.007L12.0068 578.515L0.30957 588.377V698.265L35.1363 733.872L424.024 694.976L305.061 525.891Z" fill="#58819A"/>
<path d="M202.54 462.053L175.201 505.145L188.871 519.215L165.265 537.948L175.201 550.874L103.481 571.393L65.3593 623.714L83.763 637.053L52.8712 679.849L35.125 733.785L144.889 720.888L424.023 694.976L305.061 525.891L271.21 491.384L240.26 486.208L202.54 462.053Z" fill="#96CCD7"/>
<path d="M658.707 603.356L749.671 526.667L841.88 482.209L868.048 441.086L995.148 376.622L1043.74 407.743L1083.62 414.411L1127.23 458.869L1280.5 676.712L779.47 726.825" fill="#BAE0E5"/>
<path d="M995.147 376.622L959.924 432.141L977.536 450.268L947.123 474.403L959.924 491.055L867.523 517.491L818.408 584.901L842.119 602.086L802.319 657.223L779.455 726.712L920.871 710.095L1280.5 676.712L1127.23 458.869L1083.62 414.411L1043.74 407.743L995.147 376.622Z" fill="#58819A"/>
<path d="M921.091 732.029L563.815 767.764L105.066 669.273L201.434 568.993L244.599 534.969L313.862 508.396L331.931 482.142L411.234 424.839L439.34 453.491L453.394 474.979L522.658 513.48L543.739 526.015L594.933 496.916L620.029 466.026L645.125 485.724L670.22 514.375L749.522 555.562L823.805 632.563" fill="#58819A"/>
<path d="M411.234 424.839L427.248 467.885L411.234 484.119L427.248 487.366V504.412L381.747 526.328V552.302L395.397 532.009L433.618 522.269L442.719 541.75L467.29 555.549V570.16L450.909 573.407L435.438 590.452L467.29 583.958L429.068 616.427L432.709 644.025L398.127 666.753L395.397 700.844L403.988 733.45L105.066 669.273L201.434 568.993L244.599 534.969L313.862 508.396L331.931 482.142L411.234 424.839Z" fill="#CCE7E6"/>
<path d="M620.029 466.026L650.198 512.117L641.662 527.343H656.405L662.612 550.874L641.321 568.176L646.318 575.097L637.007 584.786H675.027L729.342 656.763V671.989L737.101 677.526L703.543 753.788L615.281 664.376L559.415 579.144V542.569L543.738 526.015L594.933 496.916L620.029 466.026Z" fill="#CCE7E6"/>
<g opacity="0.52">
<g opacity="0.52">
<path opacity="0.52" d="M1213.47 42.5693L1213.69 42.591C1215.54 42.7731 1216.88 44.2706 1216.68 45.9362C1216.48 47.6018 1214.81 48.8042 1212.95 48.6221L1212.92 48.6185L1212.7 48.5949L1213.47 42.5693Z" fill="white"/>
</g>
<g opacity="0.52">
<g opacity="0.52">
<path opacity="0.52" d="M770.47 0.368504L770.252 0.343083C770.166 0.332792 770.105 0.262568 770.117 0.185081C770.127 0.10941 770.204 0.0555251 770.288 0.0627895L770.507 0.0821692L770.47 0.368504Z" fill="white"/>
</g>
</g>
</g>
</svg>
