<svg width="1814" height="883" viewBox="0 0 1814 883" fill="none" xmlns="http://www.w3.org/2000/svg">
<path opacity="0.4" d="M1779.34 569.82L1767.62 561.089L1755.37 569.344L1765.1 558.824L1755.9 547.828L1768.04 556.181L1779.87 548.304L1770.57 558.447L1779.34 569.82Z" fill="white"/>
<path opacity="0.6" d="M1407.34 368.006L1398.33 361.297L1388.92 367.641L1396.39 359.555L1389.32 351.104L1398.65 357.524L1407.75 351.47L1400.59 359.265L1407.34 368.006Z" fill="white"/>
<path opacity="0.6" d="M1761.41 346.756L1754.33 341.477L1746.92 346.469L1752.8 340.108L1747.24 333.46L1754.58 338.51L1761.73 333.747L1756.11 339.88L1761.41 346.756Z" fill="white"/>
<path opacity="0.6" d="M1413.35 535.727L1408.35 532.003L1403.13 535.524L1407.27 531.037L1403.35 526.346L1408.53 529.91L1413.58 526.55L1409.61 530.876L1413.35 535.727Z" fill="white"/>
<path opacity="0.6" d="M1530.48 597.518L1521.47 590.809L1512.06 597.153L1519.53 589.068L1512.47 580.617L1521.8 587.037L1530.89 580.982L1523.73 588.777L1530.48 597.518Z" fill="white"/>
<path opacity="0.4" d="M1524.34 217.706L1515.33 210.996L1505.92 217.341L1513.39 209.255L1506.32 200.804L1515.65 207.225L1524.75 201.17L1517.59 208.965L1524.34 217.706Z" fill="white"/>
<path opacity="0.93" d="M1530.46 366.847L1528.26 365.204L1525.96 366.757L1527.78 364.778L1526.05 362.71L1528.34 364.281L1530.56 362.8L1528.81 364.707L1530.46 366.847Z" fill="white"/>
<path opacity="0.93" d="M1722.08 433.75L1717.85 430.599L1713.43 433.579L1716.94 429.782L1713.62 425.814L1718.01 428.828L1722.27 425.985L1718.92 429.646L1722.08 433.75Z" fill="white"/>
<path opacity="0.93" d="M1488.54 472.05L1486.34 470.408L1484.04 471.961L1485.86 469.982L1484.13 467.914L1486.42 469.485L1488.64 468.003L1486.89 469.911L1488.54 472.05Z" fill="white"/>
<path opacity="0.93" d="M1617.64 723.086L1615.43 721.443L1613.13 722.996L1614.96 721.017L1613.23 718.949L1615.51 720.52L1617.74 719.038L1615.99 720.946L1617.64 723.086Z" fill="white"/>
<path opacity="0.93" d="M1627.78 497.025L1624.49 494.568L1621.04 496.891L1623.78 493.931L1621.19 490.837L1624.6 493.187L1627.93 490.97L1625.31 493.824L1627.78 497.025Z" fill="white"/>
<path opacity="0.93" d="M1704.16 101.541L1698.47 97.3047L1692.53 101.311L1697.25 96.2058L1692.79 90.8702L1698.68 94.9236L1704.41 91.1007L1699.9 96.0225L1704.16 101.541Z" fill="white"/>
<path opacity="0.4" d="M1331.08 164.828L1319.36 156.097L1307.11 164.353L1316.84 153.832L1307.64 142.836L1319.78 151.189L1331.61 143.312L1322.3 153.455L1331.08 164.828Z" fill="white"/>
<path opacity="0.6" d="M640.32 555.395L631.313 548.685L621.899 555.03L629.374 546.943L622.307 538.492L631.637 544.912L640.727 538.858L633.576 546.654L640.32 555.395Z" fill="white"/>
<path opacity="0.6" d="M956.097 69.9817L949.012 64.703L941.606 69.6944L947.486 63.3337L941.926 56.6858L949.266 61.7359L956.417 56.9731L950.791 63.1057L956.097 69.9817Z" fill="white"/>
<path opacity="0.6" d="M1090.69 333.926L1083.6 328.648L1076.2 333.639L1082.08 327.278L1076.52 320.63L1083.86 325.681L1091.01 320.918L1085.38 327.05L1090.69 333.926Z" fill="white"/>
<path opacity="0.6" d="M950.677 134.131L958.151 126.045L951.084 117.594L960.09 124.304L969.504 117.959L962.352 126.335L969.097 134.496L960.414 128.076L950.677 134.131Z" fill="white"/>
<path opacity="0.6" d="M1254.19 476.919L1245.18 470.209L1235.77 476.554L1243.24 468.468L1236.17 460.017L1245.5 466.437L1254.59 460.383L1247.44 468.178L1254.19 476.919Z" fill="white"/>
<path opacity="0.4" d="M757.32 405.095L748.313 398.385L738.899 404.729L746.374 396.643L739.306 388.193L748.636 394.613L757.727 388.558L750.576 396.353L757.32 405.095Z" fill="white"/>
<path opacity="0.93" d="M725.15 90.0725L722.946 88.4299L720.642 89.983L722.471 88.0041L720.741 85.9357L723.024 87.5069L725.25 86.0246L723.499 87.9327L725.15 90.0725Z" fill="white"/>
<path opacity="0.93" d="M1189.98 96.3285L1185.75 93.1775L1181.33 96.1568L1184.84 92.3604L1181.52 88.3923L1185.9 91.4067L1190.17 88.5635L1186.81 92.2237L1189.98 96.3285Z" fill="white"/>
<path opacity="0.93" d="M1040.28 67.0586L1038.08 65.416L1035.77 66.9691L1037.6 64.9902L1035.87 62.9218L1038.16 64.493L1040.38 63.0113L1038.63 64.9188L1040.28 67.0586Z" fill="white"/>
<path opacity="0.93" d="M1202.72 286.447L1200.52 284.805L1198.21 286.358L1200.04 284.379L1198.31 282.31L1200.6 283.882L1202.82 282.4L1201.07 284.307L1202.72 286.447Z" fill="white"/>
<path opacity="0.93" d="M1467.25 149.339L1463.95 146.882L1460.5 149.206L1463.24 146.245L1460.65 143.151L1464.07 145.502L1467.4 143.285L1464.78 146.139L1467.25 149.339Z" fill="white"/>
<path opacity="0.93" d="M1487.64 60.0339L1481.96 55.7973L1476.01 59.8034L1480.73 54.6983L1476.27 49.3628L1482.16 53.4162L1487.9 49.5932L1483.39 54.5151L1487.64 60.0339Z" fill="white"/>
<path opacity="0.6" d="M1424.56 864.228L1425.41 872.458L1434.57 873.63L1425.41 874.395L1424.1 882.624L1422.89 874.395L1414.08 873.223L1422.89 872.458L1424.56 864.228Z" fill="white"/>
<path opacity="0.4" d="M1216.36 672.983L1215.28 662.521L1203.62 661.031L1215.28 660.058L1216.94 649.596L1218.48 660.058L1229.67 661.548L1218.48 662.521L1216.36 672.983Z" fill="white"/>
<path opacity="0.93" d="M1520.89 827.68L1521.39 832.592L1526.87 833.292L1521.39 833.748L1520.62 838.66L1519.89 833.748L1514.63 833.049L1519.89 832.592L1520.89 827.68Z" fill="white"/>
<path opacity="0.93" d="M1394.32 669.829L1395.01 676.434L1402.36 677.374L1395.01 677.988L1393.96 684.594L1392.99 677.988L1385.92 677.048L1392.99 676.434L1394.32 669.829Z" fill="white"/>
<path opacity="0.93" d="M1061.38 536.797L1058.09 534.341L1054.64 536.664L1057.38 533.703L1054.79 530.609L1058.2 532.959L1061.53 530.743L1058.91 533.597L1061.38 536.797Z" fill="white"/>
<path opacity="0.93" d="M941.728 426.964L936.043 422.728L930.099 426.733L934.818 421.629L930.356 416.293L936.246 420.346L941.986 416.524L937.471 421.446L941.728 426.964Z" fill="white"/>
<path opacity="0.4" d="M557.244 374.834L566.969 364.314L557.774 353.318L569.492 362.049L581.741 353.793L572.436 364.691L581.211 375.31L569.913 366.956L557.244 374.834Z" fill="white"/>
<path opacity="0.6" d="M209.209 173.497L200.201 166.786L190.788 173.131L198.263 165.045L191.195 156.594L200.525 163.014L209.616 156.96L202.464 164.755L209.209 173.497Z" fill="white"/>
<path opacity="0.6" d="M563.28 152.246L556.195 146.967L548.79 151.959L554.67 145.598L549.111 138.95L556.45 144L563.6 139.237L557.975 145.37L563.28 152.246Z" fill="white"/>
<path opacity="0.6" d="M215.22 341.217L210.221 337.493L204.997 341.014L209.145 336.526L205.223 331.836L210.401 335.399L215.445 332.039L211.477 336.366L215.22 341.217Z" fill="white"/>
<path opacity="0.6" d="M332.349 403.008L323.342 396.298L313.929 402.643L321.403 394.557L314.336 386.106L323.665 392.527L332.756 386.472L325.604 394.267L332.349 403.008Z" fill="white"/>
<path opacity="0.4" d="M326.208 23.1962L317.201 16.4859L307.787 22.8309L315.262 14.7453L308.195 6.29382L317.525 12.7144L326.615 6.65973L319.463 14.455L326.208 23.1962Z" fill="white"/>
<path opacity="0.93" d="M332.333 172.337L330.129 170.694L327.825 172.247L329.654 170.268L327.925 168.2L330.208 169.771L332.433 168.289L330.683 170.197L332.333 172.337Z" fill="white"/>
<path opacity="0.93" d="M523.952 239.24L519.723 236.089L515.304 239.068L518.813 235.272L515.494 231.304L519.875 234.318L524.144 231.475L520.785 235.136L523.952 239.24Z" fill="white"/>
<path opacity="0.93" d="M290.414 277.54L288.209 275.898L285.905 277.451L287.734 275.472L286.005 273.403L288.288 274.975L290.513 273.493L288.763 275.401L290.414 277.54Z" fill="white"/>
<path opacity="0.93" d="M419.508 528.576L417.304 526.933L415 528.486L416.829 526.507L415.099 524.439L417.383 526.01L419.608 524.528L417.858 526.436L419.508 528.576Z" fill="white"/>
<path opacity="0.93" d="M429.653 302.515L426.355 300.058L422.908 302.381L425.645 299.421L423.058 296.327L426.473 298.677L429.802 296.46L427.183 299.314L429.653 302.515Z" fill="white"/>
<path opacity="0.93" d="M737.775 270.516L732.089 266.279L726.146 270.285L730.865 265.18L726.403 259.844L732.293 263.898L738.032 260.075L733.517 264.997L737.775 270.516Z" fill="white"/>
<path opacity="0.4" d="M842.883 0.781768L833.158 11.3023L842.353 22.2981L830.635 13.5678L818.387 21.8227L827.691 10.9249L818.916 0.306396L830.214 8.65989L842.883 0.781768Z" fill="white"/>
<path opacity="0.6" d="M856.866 525.922L864.34 517.837L857.273 509.385L866.28 516.095L875.693 509.751L868.542 518.127L875.286 526.288L866.603 519.868L856.866 525.922Z" fill="white"/>
<path opacity="0.6" d="M23.5827 158.03L17.7028 164.391L23.2621 171.039L16.1776 165.76L8.77246 170.752L14.3977 164.163L9.09246 157.743L15.9229 162.793L23.5827 158.03Z" fill="white"/>
<path opacity="0.6" d="M442.456 578.525L436.577 584.886L442.136 591.534L435.051 586.255L427.646 591.247L433.272 584.658L427.966 578.238L434.797 583.288L442.456 578.525Z" fill="white"/>
<path opacity="0.6" d="M1039.95 403.4L1032.48 411.485L1039.54 419.936L1030.54 413.226L1021.12 419.571L1028.27 411.195L1021.53 403.034L1030.21 409.454L1039.95 403.4Z" fill="white"/>
<path opacity="0.6" d="M56.0563 282.409L47.0491 275.699L37.6357 282.044L45.1103 273.958L38.0427 265.507L47.3725 271.927L56.4632 265.872L49.3114 273.668L56.0563 282.409Z" fill="white"/>
<path opacity="0.4" d="M823.602 218.99L814.596 212.279L805.183 218.624L812.656 210.538L805.59 202.087L814.919 208.507L824.009 202.453L816.858 210.248L823.602 218.99Z" fill="white"/>
<path opacity="0.93" d="M829.728 368.13L827.524 366.488L825.22 368.04L827.049 366.061L825.319 363.993L827.603 365.564L829.828 364.082L828.077 365.99L829.728 368.13Z" fill="white"/>
<path opacity="0.93" d="M997.435 205.101L993.926 208.898L997.244 212.866L993.015 209.715L988.595 212.694L991.953 208.761L988.786 204.93L992.863 207.944L997.435 205.101Z" fill="white"/>
<path opacity="0.93" d="M964.832 339.493L963.002 341.472L964.732 343.54L962.528 341.898L960.224 343.451L961.974 341.4L960.323 339.403L962.448 340.975L964.832 339.493Z" fill="white"/>
<path opacity="0.93" d="M1678.74 261.249L1673.05 257.013L1667.11 261.018L1671.83 255.914L1667.37 250.578L1673.26 254.631L1679 250.809L1674.48 255.731L1678.74 261.249Z" fill="white"/>
<path opacity="0.6" d="M1776.96 237.685L1769.49 245.77L1776.55 254.221L1767.55 247.511L1758.13 253.856L1765.28 245.48L1758.54 237.319L1767.22 243.739L1776.96 237.685Z" fill="white"/>
<path opacity="0.93" d="M1701.84 173.778L1700.01 175.757L1701.74 177.825L1699.54 176.183L1697.23 177.736L1698.98 175.685L1697.33 173.688L1699.46 175.26L1701.84 173.778Z" fill="white"/>
<path opacity="0.93" d="M1813.67 43.7461L1811.84 45.725L1813.57 47.7934L1811.37 46.1507L1809.07 47.7039L1810.82 45.6536L1809.17 43.6566L1811.29 45.2278L1813.67 43.7461Z" fill="white"/>
<path opacity="0.93" d="M1321.88 29.2309L1320.05 31.2098L1321.78 33.2782L1319.58 31.6355L1317.28 33.1887L1319.03 31.1384L1317.38 29.1414L1319.5 30.7126L1321.88 29.2309Z" fill="white"/>
<path opacity="0.93" d="M1410.14 268.731L1408.31 270.71L1410.04 272.779L1407.83 271.136L1405.53 272.689L1407.28 270.639L1405.63 268.642L1407.75 270.213L1410.14 268.731Z" fill="white"/>
<path opacity="0.93" d="M1162.22 394.53L1160.39 396.509L1162.12 398.577L1159.92 396.934L1157.61 398.488L1159.36 396.437L1157.71 394.44L1159.84 396.011L1162.22 394.53Z" fill="white"/>
<path opacity="0.93" d="M1387.91 446.542L1386.08 448.521L1387.81 450.59L1385.6 448.947L1383.3 450.5L1385.05 448.45L1383.4 446.453L1385.52 448.024L1387.91 446.542Z" fill="white"/>
<path opacity="0.93" d="M1763.82 742.289L1761.99 744.268L1763.72 746.337L1761.52 744.694L1759.21 746.247L1760.96 744.197L1759.31 742.2L1761.44 743.771L1763.82 742.289Z" fill="white"/>
<path opacity="0.93" d="M999.864 614.677L998.034 616.656L999.764 618.724L997.56 617.081L995.256 618.635L997.006 616.584L995.355 614.587L997.48 616.158L999.864 614.677Z" fill="white"/>
<path opacity="0.93" d="M521.196 558.058L518.344 558.297L517.937 560.857L517.673 558.297L514.82 557.932L517.673 557.594L518.079 555.134L518.344 557.594L521.196 558.058Z" fill="white"/>
<path opacity="0.93" d="M463.812 52.2018L460.515 49.7451L457.067 52.0681L459.805 49.1076L457.216 46.0135L460.632 48.3643L463.961 46.1471L461.343 49.0012L463.812 52.2018Z" fill="white"/>
<path opacity="0.93" d="M155.323 1.37886L150.604 6.48337L155.066 11.8189L149.38 7.58289L143.437 11.5885L147.951 6.30011L143.693 1.14783L149.176 5.20119L155.323 1.37886Z" fill="white"/>
<path opacity="0.6" d="M269.084 744.021L276.169 749.3L283.573 744.309L277.694 750.669L283.253 757.317L275.914 752.267L268.764 757.029L274.389 750.897L269.084 744.021Z" fill="white"/>
<path opacity="0.4" d="M38.9678 421.753L46.4423 413.667L39.3747 405.216L48.3812 411.927L57.7952 405.582L50.6434 413.958L57.3877 422.119L48.7045 415.698L38.9678 421.753Z" fill="white"/>
<path opacity="0.93" d="M308.411 657.027L312.64 660.178L317.061 657.198L313.551 660.995L316.869 664.963L312.488 661.948L308.22 664.792L311.578 661.131L308.411 657.027Z" fill="white"/>
<path opacity="0.93" d="M167.29 532.494L162.571 537.599L167.033 542.934L161.347 538.698L155.403 542.704L159.918 537.415L155.661 532.263L161.142 536.316L167.29 532.494Z" fill="white"/>
<path opacity="0.93" d="M1119 204.998L1115.7 202.541L1112.26 204.864L1114.99 201.904L1112.4 198.809L1115.82 201.16L1119.15 198.943L1116.53 201.797L1119 204.998Z" fill="white"/>
<path opacity="0.93" d="M17.2142 330.556L9.85625 331.17L8.80934 337.775L8.12488 331.17L0.767578 330.23L8.12488 329.357L9.17246 323.01L9.85625 329.357L17.2142 330.556Z" fill="white"/>
</svg>
