<svg width="1327" height="283" viewBox="0 0 1327 283" fill="none" xmlns="http://www.w3.org/2000/svg">
<path opacity="0.42" d="M249.042 28.0214H306.127" stroke="white" stroke-width="4" stroke-miterlimit="10" stroke-linecap="round"/>
<path opacity="0.42" d="M382.548 28.0214H598.728" stroke="white" stroke-width="4" stroke-miterlimit="10" stroke-linecap="round"/>
<path opacity="0.42" d="M696.899 28.0214H773.08" stroke="white" stroke-width="4" stroke-miterlimit="10" stroke-linecap="round"/>
<path opacity="0.42" d="M887.16 28.0214H1019.35" stroke="white" stroke-width="4" stroke-miterlimit="10" stroke-linecap="round"/>
<path opacity="0.42" d="M1161.62 28.0214H1244.78" stroke="white" stroke-width="4" stroke-miterlimit="10" stroke-linecap="round"/>
<path opacity="0.42" d="M1298.78 28.0214H1324.78" stroke="white" stroke-width="4" stroke-miterlimit="10" stroke-linecap="round"/>
<path opacity="0.42" d="M2.79785 28.0214H28.7933" stroke="white" stroke-width="4" stroke-miterlimit="10" stroke-linecap="round"/>
<path opacity="0.42" d="M87.832 28.0214H181.219" stroke="white" stroke-width="4" stroke-miterlimit="10" stroke-linecap="round"/>
<path opacity="0.42" d="M151.779 50.9246H237.432" stroke="white" stroke-width="4" stroke-miterlimit="10" stroke-linecap="round"/>
<path opacity="0.42" d="M411.091 50.9246H431.069" stroke="white" stroke-width="4" stroke-miterlimit="10" stroke-linecap="round"/>
<path opacity="0.42" d="M591.376 50.9246H647.954" stroke="white" stroke-width="4" stroke-miterlimit="10" stroke-linecap="round"/>
<path opacity="0.42" d="M761.092 50.9246H785.069" stroke="white" stroke-width="4" stroke-miterlimit="10" stroke-linecap="round"/>
<path opacity="0.42" d="M988.6 50.9246H1083.36" stroke="white" stroke-width="4" stroke-miterlimit="10" stroke-linecap="round"/>
<path opacity="0.42" d="M1203.18 50.9246H1226.53" stroke="white" stroke-width="4" stroke-miterlimit="10" stroke-linecap="round"/>
<path opacity="0.42" d="M229.662 73.8271H249.042" stroke="white" stroke-width="4" stroke-miterlimit="10" stroke-linecap="round"/>
<path opacity="0.42" d="M287.43 73.8271H350.625" stroke="white" stroke-width="4" stroke-miterlimit="10" stroke-linecap="round"/>
<path opacity="0.42" d="M494.128 73.8271H520.639" stroke="white" stroke-width="4" stroke-miterlimit="10" stroke-linecap="round"/>
<path opacity="0.42" d="M733.15 73.8271H822.632" stroke="white" stroke-width="4" stroke-miterlimit="10" stroke-linecap="round"/>
<path opacity="0.42" d="M908.515 73.8271H927.082" stroke="white" stroke-width="4" stroke-miterlimit="10" stroke-linecap="round"/>
<path opacity="0.42" d="M1060.33 73.8271H1106.39" stroke="white" stroke-width="4" stroke-miterlimit="10" stroke-linecap="round"/>
<path opacity="0.42" d="M249.042 96.7302H290.756" stroke="white" stroke-width="4" stroke-miterlimit="10" stroke-linecap="round"/>
<path opacity="0.42" d="M812.837 96.7302H870.706" stroke="white" stroke-width="4" stroke-miterlimit="10" stroke-linecap="round"/>
<path opacity="0.42" d="M988.537 96.7302H1012.64" stroke="white" stroke-width="4" stroke-miterlimit="10" stroke-linecap="round"/>
<path opacity="0.42" d="M714.439 96.7302H738.541" stroke="white" stroke-width="4" stroke-miterlimit="10" stroke-linecap="round"/>
<path opacity="0.42" d="M461.286 96.7302H650.97" stroke="white" stroke-width="4" stroke-miterlimit="10" stroke-linecap="round"/>
<path opacity="0.42" d="M336.585 119.633H471.816" stroke="white" stroke-width="4" stroke-miterlimit="10" stroke-linecap="round"/>
<path opacity="0.42" d="M512.285 119.633H557.324" stroke="white" stroke-width="4" stroke-miterlimit="10" stroke-linecap="round"/>
<path opacity="0.42" d="M911.536 119.633H922.504" stroke="white" stroke-width="4" stroke-miterlimit="10" stroke-linecap="round"/>
<path opacity="0.42" d="M622.583 119.633H830.399" stroke="white" stroke-width="4" stroke-miterlimit="10" stroke-linecap="round"/>
<path opacity="0.42" d="M432.143 142.537H650.97" stroke="white" stroke-width="4" stroke-miterlimit="10" stroke-linecap="round"/>
<path opacity="0.42" d="M687.456 142.537H733.151" stroke="white" stroke-width="4" stroke-miterlimit="10" stroke-linecap="round"/>
<path opacity="0.42" d="M814.867 142.537H830.399" stroke="white" stroke-width="4" stroke-miterlimit="10" stroke-linecap="round"/>
<g opacity="0.42">
<path opacity="0.42" d="M1009.47 216.713C978.485 200.988 944.127 199.778 909.769 192.521C908.422 191.916 905.727 190.102 907.074 188.892C917.853 181.03 933.348 183.449 942.78 176.191C945.474 173.772 938.064 170.748 934.695 170.143C906.401 161.676 878.106 158.652 848.464 153.814C846.443 153.209 843.074 151.394 843.748 150.79C848.126 144.24 856.256 142.301 864.932 141.131C870.611 140.365 870.791 133.021 865.159 132.011C830.919 125.877 783.537 127.204 747.098 124.775C739.359 124.26 738.651 114.284 746.26 112.912C762.801 109.931 782.212 108.262 789.491 106.94C793.631 106.189 793.575 100.838 789.419 100.159C762.347 95.7402 733.995 98.8694 705.643 95.7529C704.705 95.4723 698.773 95.5835 692.482 95.6627C687.909 95.7202 687.127 89.8144 691.59 88.9126C705.086 86.185 723.028 85.2276 729.222 82.4473C722.485 78.8185 714.401 79.4233 706.991 78.8185C684.556 75.7975 622.598 81.8165 596.238 79.8975C591.341 79.5413 590.888 73.2416 595.708 72.3895C606.684 70.4487 647.107 68.1644 651.749 65.5129V63.6985C635.167 58.2402 595.839 61.0483 571.089 58.8928C565.899 58.441 565.45 51.8335 570.541 50.8193C578.875 49.1579 589.766 48.1485 599.212 47.3871C603.255 47.0611 603.379 41.8181 599.359 41.3137C579.714 38.8492 553.567 41.5907 531.683 39.304C526.897 38.8038 526.578 32.7068 531.286 31.7875C538.642 30.3517 546.993 29.9108 551.37 27.4111C530.485 21.968 508.927 21.968 487.37 21.3632C486.696 21.3632 482.654 20.7584 484.001 20.1536C488.717 16.5248 495.454 17.1296 501.517 15.3152C484.001 11.6864 465.812 13.5008 448.296 12.2912C452.338 8.66237 458.401 11.0816 462.443 8.66237C456.38 3.82397 448.296 5.03357 441.559 1.40477C441.718 1.22152 441.89 1.05281 442.056 0.877421L422.9 0.729248C425.785 3.12607 429.993 3.21796 432.801 6.24317C426.738 6.84797 421.348 6.84797 415.285 6.84797C422.022 10.4768 430.78 9.26717 436.17 15.3152C424.043 17.7344 405.854 14.1056 397.77 20.7584C415.285 23.7824 432.127 27.4111 449.643 28.0159C450.317 28.0159 457.054 28.0159 454.359 30.4351C450.317 34.0639 442.906 31.6447 436.843 34.0639C451.833 35.5058 474.873 32.0723 492.493 34.2436C495.615 34.6282 495.714 38.6599 492.618 39.1903C480.822 41.2103 466.632 44.0256 458.532 46.9347C455.255 48.1116 456.053 52.4741 459.574 52.6948C481.791 54.0865 504.256 53.2705 525.77 58.8613C528.464 59.4661 532.506 61.8853 531.159 61.8853C509.784 69.9176 487.677 75.3161 465.106 79.0525C461.115 79.713 461.398 84.9258 465.44 85.2451C475 85.9999 508.267 84.5085 532.529 85.6443C538.226 85.911 538.506 93.3712 532.845 94.0026C512.919 96.2264 486.728 97.8945 470.439 101.241C467.605 101.824 468.047 105.563 470.954 105.584C502.25 105.811 533.547 105.274 564.843 108.455C566.864 109.06 572.927 111.479 572.253 111.479C547.907 123.105 516.79 126.506 491.152 135.156C485.491 137.066 486.928 144.572 492.974 144.638C508.896 144.811 533.828 144.719 555.276 145.519C559.397 145.674 559.788 151.019 555.724 151.652C530.306 155.615 500.3 160.298 482.653 169.54C481.306 169.54 485.348 171.354 488.043 171.959C511.622 174.378 536.548 170.749 558.106 181.031C531.832 191.917 504.211 197.965 475.243 204.618C469.853 205.828 462.443 207.037 461.095 210.666C459.074 213.69 466.485 212.48 469.179 213.085C485.348 215.504 500.843 213.085 516.337 217.319C519.706 218.528 530.485 222.762 523.074 225.786C504.808 233.767 486.153 240.773 467.381 247.398C643.663 263.167 820.168 276.381 996.781 282.894C991.25 279.167 986.226 274.952 982.527 269.331C969.053 249.978 1002.06 242.72 1012.84 230.624C1016.88 225.785 1015.54 219.737 1009.47 216.713Z" fill="#E5EDD4"/>
</g>
<path d="M630.499 63.3508C622.171 63.5449 613.89 64.1987 605.649 65.2892C604.509 65.4404 604.803 67.0836 605.918 67.0709C614.695 66.9717 623.427 66.3657 632.12 65.2807C633.282 65.1355 632.944 63.5262 631.851 63.499C627.141 63.3792 622.508 63.713 617.876 64.4775C616.599 64.688 617.14 66.4371 618.413 66.2272C622.871 65.4918 627.322 65.1984 631.85 65.314C631.761 64.7201 631.671 64.1261 631.581 63.5322C623.07 64.5948 614.51 65.1609 605.917 65.2577C606.006 65.8516 606.096 66.4456 606.186 67.0395C614.247 65.9726 622.353 65.3557 630.498 65.1658C631.797 65.1349 631.802 63.3206 630.499 63.3508Z" fill="#155B6F"/>
<path d="M626.093 85.1714C612.652 85.1605 599.21 85.1489 585.769 85.1381C584.466 85.1369 584.469 86.9198 585.769 86.9525C598.035 87.2585 610.304 87.2966 622.572 87.0656C623.87 87.0414 623.874 85.2264 622.572 85.2512C610.304 85.4822 598.035 85.4447 585.769 85.1381C585.769 85.7429 585.769 86.3477 585.769 86.9525C599.21 86.9634 612.652 86.9749 626.093 86.9858C627.393 86.987 627.396 85.1726 626.093 85.1714Z" fill="#155B6F"/>
<path d="M689.6 85.0848C680.113 85.2674 670.637 85.6533 661.172 86.2429C659.886 86.3234 659.864 88.1129 661.172 88.0573C671.327 87.6261 681.468 87.0002 691.594 86.1789C692.878 86.0748 692.891 84.2593 691.594 84.3645C681.468 85.1858 671.327 85.8123 661.172 86.2429C661.172 86.8477 661.172 87.4525 661.172 88.0573C670.637 87.4676 680.113 87.0811 689.6 86.8991C690.899 86.8743 690.903 85.06 689.6 85.0848Z" fill="#155B6F"/>
<path d="M768.829 104.12C764.327 104.006 759.824 103.892 755.322 103.779C754.021 103.746 754.022 105.56 755.322 105.593C759.824 105.707 764.327 105.82 768.829 105.934C770.13 105.967 770.129 104.152 768.829 104.12Z" fill="#155B6F"/>
<path d="M592.319 111.056C601.032 111.031 609.745 111.006 618.457 110.981C619.757 110.977 619.76 109.162 618.457 109.166C609.744 109.192 601.031 109.216 592.319 109.242C591.018 109.245 591.016 111.06 592.319 111.056Z" fill="#155B6F"/>
<path d="M639.899 110.866C643.227 110.965 646.555 111.065 649.884 111.164C651.184 111.203 651.183 109.389 649.884 109.35C646.556 109.25 643.227 109.151 639.899 109.052C638.598 109.013 638.6 110.828 639.899 110.866Z" fill="#155B6F"/>
<path d="M530.351 134.932C538.575 134.41 546.799 133.888 555.023 133.366C556.313 133.284 556.323 131.469 555.023 131.552C546.799 132.074 538.575 132.596 530.351 133.118C529.061 133.2 529.051 135.015 530.351 134.932Z" fill="#155B6F"/>
<path d="M587.622 132.673C603.287 132.424 618.953 132.572 634.608 133.115C635.909 133.16 635.906 131.345 634.608 131.301C618.953 130.758 603.287 130.611 587.622 130.859C586.323 130.879 586.319 132.693 587.622 132.673Z" fill="#155B6F"/>
<path d="M575.726 161.166C580.708 160.705 585.673 160.671 590.663 161.065C591.805 161.155 592.027 159.522 590.932 159.284C587.008 158.429 583.084 159.714 579.166 158.978C577.896 158.74 577.354 160.488 578.628 160.728C582.556 161.465 586.503 160.186 590.395 161.033C590.484 160.439 590.574 159.845 590.663 159.251C585.673 158.857 580.708 158.89 575.726 159.351C574.444 159.47 574.431 161.285 575.726 161.166Z" fill="#155B6F"/>
<path d="M575.535 54.0646C572.871 53.9207 570.206 53.7773 567.542 53.6334C566.243 53.5632 566.247 55.3784 567.542 55.4479C570.206 55.5919 572.87 55.7352 575.535 55.8792C576.834 55.9493 576.829 54.1342 575.535 54.0646Z" fill="#155B6F"/>
<path d="M474.592 48.5555C479.643 48.6202 484.669 48.3989 489.689 47.892C490.967 47.7626 490.982 45.947 489.689 46.0777C484.669 46.5851 479.643 46.8059 474.592 46.7412C473.291 46.7242 473.291 48.5386 474.592 48.5555Z" fill="#155B6F"/>
<path d="M508.333 45.3476C508.105 45.3887 507.877 45.4299 507.649 45.471C506.487 45.6809 506.825 47.205 507.918 47.2528C510.445 47.3647 512.973 47.4705 515.501 47.5709C516.802 47.6223 516.799 45.8079 515.501 45.7565C512.973 45.6561 510.445 45.5502 507.918 45.4383C508.007 46.0323 508.097 46.6262 508.186 47.2202C508.415 47.179 508.643 47.1379 508.87 47.0968C510.144 46.867 509.605 45.1178 508.333 45.3476Z" fill="#155B6F"/>
<path d="M531.872 46.6794C541.355 46.2343 550.814 45.5279 560.249 44.5609C561.527 44.4296 561.542 42.614 560.249 42.7465C550.815 43.7136 541.355 44.4199 531.872 44.865C530.578 44.9255 530.57 46.7405 531.872 46.6794Z" fill="#155B6F"/>
<path d="M570.995 44.1453C572.615 44.1453 574.234 44.1453 575.854 44.1453C577.154 44.1453 577.156 42.3309 575.854 42.3309C574.234 42.3309 572.615 42.3309 570.995 42.3309C569.694 42.3309 569.692 44.1453 570.995 44.1453Z" fill="#155B6F"/>
<path d="M519.08 38.1366C522.748 37.6975 526.416 37.2579 530.084 36.8188C531.354 36.6664 531.371 34.8502 530.084 35.0044C526.416 35.4435 522.748 35.8831 519.08 36.3222C517.81 36.4746 517.793 38.2908 519.08 38.1366Z" fill="#155B6F"/>
<path d="M502.981 32.5677C495.31 32.7999 487.637 32.8713 479.962 32.7818C478.661 32.7666 478.661 34.581 479.962 34.5961C487.638 34.6856 495.31 34.6143 502.981 34.382C504.278 34.3427 504.284 32.5277 502.981 32.5677Z" fill="#155B6F"/>
<path d="M514.744 31.9441C515.593 32.0421 516.442 32.1407 517.292 32.2392C517.834 32.3021 518.302 31.7772 518.302 31.3321C518.302 30.7896 517.836 30.4878 517.292 30.4249C516.442 30.3269 515.593 30.2283 514.744 30.1298C514.202 30.0669 513.733 30.5918 513.733 31.0369C513.733 31.5794 514.2 31.8812 514.744 31.9441Z" fill="#155B6F"/>
<path d="M469.48 21.8771C473.989 21.5463 478.504 21.3304 483.028 21.2282C484.326 21.1992 484.33 19.3843 483.028 19.4139C478.504 19.5161 473.989 19.732 469.48 20.0628C468.192 20.1572 468.181 21.9727 469.48 21.8771Z" fill="#155B6F"/>
<path d="M431.123 21.4043C436.837 21.0638 442.55 20.7239 448.264 20.3834C449.555 20.3066 449.565 18.4916 448.264 18.569C442.55 18.9095 436.837 19.2494 431.123 19.5899C429.831 19.6667 429.822 21.4817 431.123 21.4043Z" fill="#155B6F"/>
<path d="M435.471 9.71907C437.796 9.72875 440.093 9.55456 442.388 9.22131C443.669 9.03563 443.125 7.28706 441.85 7.47153C439.736 7.77817 437.612 7.9131 435.47 7.90402C434.17 7.89919 434.168 9.71363 435.471 9.71907Z" fill="#155B6F"/>
<path d="M436.237 4.43123C436.748 4.43123 437.26 4.43123 437.771 4.43123C438.3 4.43123 438.806 4.01391 438.781 3.52402C438.757 3.03232 438.337 2.61682 437.771 2.61682C437.26 2.61682 436.748 2.61682 436.237 2.61682C435.708 2.61682 435.202 3.03413 435.226 3.52402C435.251 4.01573 435.67 4.43123 436.237 4.43123Z" fill="#155B6F"/>
<path d="M446.977 16.6161C449.471 16.6185 451.936 16.422 454.395 16.0476C455.674 15.8529 455.132 14.1044 453.857 14.2979C451.577 14.6445 449.289 14.8041 446.977 14.8011C445.677 14.8005 445.674 16.6149 446.977 16.6161Z" fill="#155B6F"/>
<path d="M671.065 161.211C691.899 160.616 712.733 160.021 733.567 159.426C734.865 159.389 734.87 157.574 733.567 157.611C712.733 158.206 691.899 158.802 671.065 159.397C669.767 159.435 669.762 161.249 671.065 161.211Z" fill="#155B6F"/>
<path d="M771.472 147.509C777.704 147.743 783.937 147.977 790.17 148.21C791.47 148.259 791.468 146.445 790.17 146.396C783.937 146.162 777.704 145.928 771.472 145.694C770.172 145.645 770.175 147.46 771.472 147.509Z" fill="#155B6F"/>
</svg>
