<svg width="786" height="954" viewBox="0 0 786 954" fill="none" xmlns="http://www.w3.org/2000/svg">
<path fill-rule="evenodd" clip-rule="evenodd" d="M558.771 907.33C512.362 912.336 470.781 868.137 426.623 845.36C380.605 821.624 338.031 792.301 291.757 769.603C208 728.519 66.7773 773.003 41.6476 656.523C16.4115 539.55 190.998 506.831 209.774 389.597C226.813 283.203 104.419 178.498 134.29 78.0656C161.095 -12.0576 261.871 -3.85168 332.194 -22.0029C390.871 -37.1484 452.142 -0.476484 510.225 -18.9687C585.161 -42.8258 640.104 -153.6 717.553 -144.69C792.129 -136.11 876.324 -69.6433 904.046 26.3398C934.619 132.198 841.11 242.426 861.14 352.465C879.654 454.184 988.11 492.22 1007.32 593.727C1026.5 695.089 1030.63 847.741 963.532 893.495C877.412 952.222 775.503 814.903 678.097 818.233C631.611 819.821 605.044 902.338 558.771 907.33Z" fill="#F9813A"/>
</svg>
